<svg xmlns="http://www.w3.org/2000/svg" viewBox="0 0 750 500"><g id="freepik--Character--inject-6"><path d="M579.2,172.67s10.34-5.29,11.75-7.92,7.53-13.72,9.94-14.32c9-2.25,30.46-.91,39.2,2.95,4.79,2.12,1.43,17-2.45,21.56s-30.39,9.31-35.34,8.7-8.92-5.33-8.92-5.33l-11.74,4.27Z" style="fill:#8114F6"></path><path d="M574.75,162.29s7.61.51,9.56,1.94,8.63,13.63,8.6,18-4.29,9.25-4.29,9.25Z" style="fill:#8114F6"></path><path d="M574.75,162.29s7.61.51,9.56,1.94,8.63,13.63,8.6,18-4.29,9.25-4.29,9.25Z" style="opacity:0.1"></path><path d="M203.91,201.69s-11-3.64-12.82-6-9.56-12.41-12-12.63c-9.28-.83-30.24,3.78-38.29,9-4.4,2.82,1.19,17,5.74,20.92s31.46,4.53,36.25,3.17,8-6.64,8-6.64L203,211.85Z" style="fill:#8114F6"></path><path d="M206.71,190.74s-7.44,1.68-9.14,3.4-6.43,14.79-5.73,19.13,5.66,8.48,5.66,8.48Z" style="fill:#8114F6"></path><path d="M206.71,190.74s-7.44,1.68-9.14,3.4-6.43,14.79-5.73,19.13,5.66,8.48,5.66,8.48Z" style="opacity:0.1"></path><rect x="580.92" y="262.39" width="71.46" height="149.04" rx="20.14" transform="translate(1257.43 625.28) rotate(175.58)" style="fill:#263238"></rect><rect x="156.43" y="295.21" width="71.46" height="149.04" rx="20.14" transform="translate(-27.93 15.91) rotate(-4.42)" style="fill:#263238"></rect><path d="M635.41,221.55c-7.51-13.86-44.63-30.69-45.32-32.05-18-35.23-52.39-88.43-56.14-93.83-7.69-11.08-15.25-15.12-28.67-16.9-4.85-.64-29.45-3.75-121.84,3.39s-116.22,14-120.92,15.38c-13,3.82-19.82,9-25.73,21.1-2.87,5.91-28.73,63.78-41,101.34-.48,1.46-34.58,23.79-39.86,38.65-13,36.53,11.69,152,24.84,162.59,10.29,8.26,87.87-.93,91.43-1.2s14.25-7.45,16.32-8.09,69.09-2.9,119.93-6.83,117.4-12,119.55-11.68,13.8,5.75,17.36,5.48S627,395.78,635.86,386C647.22,373.58,653.87,255.65,635.41,221.55ZM392.67,201.64c-94.9,7.34-178.89,10-178.89,10,13.7-45.76,31.27-85.76,33-88.43,5.8-9.15,12.55-12.63,18.4-14.48,14.57-4.6,52.36-10.13,119.16-15.3s105-5.5,120.09-3.2c6.07.94,13.28,3.33,20.41,11.48,2.09,2.38,25.6,39.2,46.17,82.31C571,184,487.58,194.3,392.67,201.64Z" style="fill:#8114F6"></path><path d="M632.6,253.39c0,16.29-27.33,56.33-34.54,58.4S433,328.67,402.68,331s-188.58,12-196,11-40.65-36.29-43.1-52.39-.4-28.64,2.25-33.37,29.95-24,40.32-25.75,65.92,65.12,77.43,69.69,90.3-2.11,116.42-4.13,105-7.51,115.66-13.81,55.3-80.86,65.81-80.77,40.44,15,43.8,19.25S632.54,237.1,632.6,253.39Z" style="fill:#fff;opacity:0.2"></path><circle cx="201.16" cy="277.41" r="35.2" transform="translate(-140.6 252.37) rotate(-49.86)" style="fill:#fff"></circle><path d="M236.25,274.71c2.66,30.15-33.18,49.57-57.11,30.38-15.79-12-17.75-37.37-4-51.63,20.69-22.67,59.11-9,61.11,21.25Zm0,0c-2-28.49-39.05-39.51-56.19-17-10.11,12.48-8.64,31.74,3.27,42.53,20.4,19.59,55.31,3,52.92-25.49Z" style="fill:#dbdbdb"></path><path d="M216.49,276.23c1.16,13.17-14.5,21.65-25,13.27-6.89-5.25-7.75-16.32-1.74-22.55,9-9.9,25.81-3.91,26.69,9.28Zm0,0c-.89-12.44-17.06-17.25-24.55-7.44a13.8,13.8,0,0,0,1.43,18.57c8.91,8.56,24.16,1.3,23.12-11.13Z" style="fill:#dbdbdb"></path><path d="M230.86,288.18a7.31,7.31,0,1,1-12.66-4.4,7.33,7.33,0,0,1,12.66,4.4Zm0,0a6.53,6.53,0,1,0-11,5.28,6.54,6.54,0,0,0,11-5.28Z" style="fill:#dbdbdb"></path><circle cx="593.56" cy="247.07" r="35.2" transform="translate(-43.86 331.1) rotate(-30.11)" style="fill:#fff"></circle><path d="M558.47,249.8c-2.67-30.16,33.19-49.61,57.12-30.4,15.78,12,17.74,37.32,4,51.64-20.7,22.64-59.09,9-61.1-21.24Zm0,0c2,28.49,39.07,39.54,56.21,17.05,10.11-12.49,8.61-31.75-3.3-42.53-20.39-19.57-55.29-3-52.91,25.48Z" style="fill:#dbdbdb"></path><path d="M578.24,248.26c-1.17-13.17,14.49-21.66,24.94-13.27,6.89,5.23,7.75,16.3,1.74,22.55-9,9.89-25.81,3.91-26.68-9.28Zm0,0c.88,12.45,17.06,17.27,24.54,7.45a13.79,13.79,0,0,0-1.44-18.57c-8.9-8.55-24.14-1.31-23.1,11.12Z" style="fill:#dbdbdb"></path><path d="M565.87,262.28A7.33,7.33,0,0,1,577.7,256a7.31,7.31,0,1,1-11.83,6.3Zm0,0a6.53,6.53,0,1,0,11-5.28,6.54,6.54,0,0,0-11,5.28Z" style="fill:#dbdbdb"></path><path d="M588.59,189.61l-7.37.68c-1.22.13-2.46.21-3.67.36-3.48,1.1-5.72,4.52-8,7.18-13.4,17.72-23.38,37.66-34.82,56.65a218.41,218.41,0,0,1-12.15,18.71c-2.66,3.51-5.82,7.33-10.32,8.53l-1.85.53c-17,3.5-34.41,4.1-51.64,5.81-43,3.44-104.75,8.51-147.6,11.05-4.94.24-9.88.51-14.85.54-5-.13-10.63.27-15-2.5-8.21-5.83-14.25-13.94-20.76-21.46-12.6-15.2-24.36-31.06-37.88-45.43-3.41-3.51-6.86-7.11-11-9.78a7.21,7.21,0,0,0-3.31-1.28c-1.22,0-2.46.15-3.69.21l-7.38.46,7.36-.68c1.24-.11,2.45-.25,3.7-.33a7.48,7.48,0,0,1,3.55,1.23c4.24,2.61,7.78,6.15,11.31,9.62,17.4,17.52,31.81,37.7,48.55,55.79,3.29,3.46,6.75,7.12,10.74,9.69,4,2.4,9.22,1.85,13.8,1.94,48.75-2.1,113.29-8.52,162.26-11.79,14.72-1.22,29.49-2.24,44.12-4.16,4.52-.79,9.78-1.05,13.35-4.05s6.39-7.29,9.12-11.22c8.3-12.23,15.49-25.15,23.18-37.79,5.17-8.41,10.42-16.79,16.21-24.81,3-4,5.9-8,9.7-11.23a7.42,7.42,0,0,1,3.32-1.76c1.24-.12,2.46-.17,3.7-.25l7.38-.46Z" style="fill:#030402;opacity:0.2"></path><path d="M571,184s-83.41,10.26-178.32,17.6-178.89,10-178.89,10c13.7-45.76,31.27-85.76,33-88.44,5.8-9.14,12.56-12.62,18.42-14.47,14.55-4.6,52.35-10.13,119.15-15.29s105-5.51,120.09-3.21c6.06.93,13.28,3.33,20.42,11.47C526.9,104.09,550.41,140.92,571,184Z" style="fill:#dbdbdb;opacity:0.5"></path><path d="M356,163.93,251,172a6.89,6.89,0,0,0-6.25,6.44l-1.48,19.76a7,7,0,0,0,7.33,7.6l110.94-8.58a7,7,0,0,0,6.08-8.64l-4.5-19.29A6.88,6.88,0,0,0,356,163.93Z" style="fill:#8114F6"></path><rect x="267.33" y="145.31" width="71.11" height="30.3" rx="3.85" transform="matrix(1, -0.08, 0.08, 1, -11.47, 23.83)" style="fill:#8114F6"></rect><g style="opacity:0.4"><path d="M356,163.93,251,172a6.89,6.89,0,0,0-6.25,6.44l-1.48,19.76a7,7,0,0,0,7.33,7.6l110.94-8.58a7,7,0,0,0,6.08-8.64l-4.5-19.29A6.88,6.88,0,0,0,356,163.93Z"></path><rect x="267.33" y="145.31" width="71.11" height="30.3" rx="3.85" transform="matrix(1, -0.08, 0.08, 1, -11.47, 23.83)"></rect></g><path d="M528.13,150.61l-105,8.12a6.89,6.89,0,0,0-6.25,6.44l-1.48,19.75a7,7,0,0,0,7.33,7.61L533.71,184a7,7,0,0,0,6.08-8.64L535.29,156A6.9,6.9,0,0,0,528.13,150.61Z" style="fill:#8114F6"></path><rect x="439.51" y="131.99" width="71.11" height="30.3" rx="3.85" transform="matrix(1, -0.08, 0.08, 1, -9.93, 37.06)" style="fill:#8114F6"></rect><g style="opacity:0.4"><path d="M528.13,150.61l-105,8.12a6.89,6.89,0,0,0-6.25,6.44l-1.48,19.75a7,7,0,0,0,7.33,7.61L533.71,184a7,7,0,0,0,6.08-8.64L535.29,156A6.9,6.9,0,0,0,528.13,150.61Z"></path><rect x="439.51" y="131.99" width="71.11" height="30.3" rx="3.85" transform="matrix(1, -0.08, 0.08, 1, -9.93, 37.06)"></rect></g><g style="opacity:0.30000000000000004"><path d="M339.29,97.4l-93.45,113c-20.06.87-32.06,1.25-32.06,1.25.14-.48.28-1,.43-1.44l90-108.77C314.13,100.1,325.8,98.75,339.29,97.4Z" style="fill:#fff"></path><path d="M555.34,153.25l-29.73,36c-10.28,1.11-22,2.34-34.8,3.63l51.72-62.55C546.48,137.1,550.84,144.85,555.34,153.25Z" style="fill:#fff"></path><path d="M292.81,103.06l-72.32,87.45c1.14-3.43,2.29-6.8,3.44-10.08L287.17,104C289,103.66,290.84,103.36,292.81,103.06Z" style="fill:#fff"></path><path d="M457.25,89.22,362.43,203.85l-5.18.36L452.19,89.38Z" style="fill:#fff"></path><path d="M500.13,89.72,408.62,200.37l-11.67.94L489.74,89.08C493.77,89.22,497.23,89.44,500.13,89.72Z" style="fill:#fff"></path></g><path d="M571,184s-83.41,10.26-178.32,17.6-178.9,10-178.9,10c1.3-4.3,2.64-8.53,4-12.64,19.33-.69,92.63-3.56,173.94-9.85s154.18-14.72,173.38-17C567.07,176,569.05,180,571,184Z" style="fill:#263238"></path><path d="M646.83,291.55c.89,42.25-4.21,87.07-11,94.49-8.9,9.74-87,12.58-90.53,12.86s-15.23-5.17-17.36-5.48-68.71,7.75-119.56,11.68-117.85,6.16-119.92,6.83-12.76,7.81-16.32,8.09-81.14,9.46-91.43,1.2c-7.83-6.29-19.76-49.79-25.38-91.67,7.62,36.85,27.51,73.88,35.3,75.69s66.94,2.07,72.61,3,25.45-10.62,25.45-10.62c13.75,1.19,118.57-7.15,118.57-7.15s104.84-7.87,118.25-11.16c0,0,21.34,8.41,26.79,6.58s63.87-11.18,71.28-14.16S645,329.14,646.83,291.55Z" style="opacity:0.1"></path><path d="M406.75,383.71l-3.09-40s-103.26,7.18-125.15,8.88-77.71,2.89-81.93,3.71A8.55,8.55,0,0,0,190,366.47c.91,5.26,8.08,22.07,25.09,26.53C237.58,398.9,367.62,386.73,406.75,383.71Z" style="fill:#263238"></path><path d="M201.31,364.94c-.92,2.77,8.09,19.23,16.4,22,5.22,1.76,30.87.71,31.14.29s-8.25-26-8.25-26c-16.83.66-29.54.51-35.86,1.27C203.18,362.71,202,363,201.31,364.94Z" style="fill:#fff"></path><path d="M404.72,357.46l.35,4.51c-41.47,3.2-80.44,5.79-113.82,7.73l-4.65.27c-14,.81-27.05,1.5-38.76,2.06l-4.7.23c-22.78,1.06-40.24,1.64-50.43,1.7l-.41-.84-.33-.68c-.48-1.07-.87-2.08-1.19-3,9.51,0,27.22-.55,50.85-1.65l4.7-.23c11.73-.55,24.78-1.24,38.92-2.05l4.65-.26C323.46,363.3,362.8,360.7,404.72,357.46Z" style="fill:#37474f"></path><path d="M405.71,370.17l.34,4.51c-40.31,3.12-78.24,5.66-111,7.57l-4.65.28c-13.84.8-26.69,1.49-38.35,2.06l-4.7.22c-18.59.9-33.85,1.48-44.77,1.73l-.81-.69c-.29-.25-.56-.5-.83-.75a36,36,0,0,1-2.83-3c10.73-.17,27.12-.76,47.75-1.74l4.7-.22c11.66-.58,24.56-1.27,38.49-2.06l4.65-.28C326.65,375.88,365,373.33,405.71,370.17Z" style="fill:#37474f"></path><path d="M255.36,394.29c-1.62,0-3.19.1-4.74.13l-3.25-9.61-1.49-4.44-2.74-8.11-1.51-4.46-4.48-13.26,4.72-.16,4.46,13.19,1.51,4.46,2.74,8.12,1.49,4.44Z" style="fill:#37474f"></path><path d="M298.07,392.14l-4.64.28-3-9.89-1.35-4.44L286.6,370l-1.35-4.45-4-13.14,4.62-.34,4,13.22,1.35,4.44,2.47,8.11,1.35,4.44Z" style="fill:#37474f"></path><path d="M406.75,383.71l-3.09-40s103.13-8.78,125-10.47,77.22-9.09,81.52-8.92a8.55,8.55,0,0,1,8.11,9c-.1,5.34-4.6,23-20.71,30.07C576.25,372.71,445.88,380.68,406.75,383.71Z" style="fill:#263238"></path><path d="M606.87,333.58c1.33,2.6-5,20.25-12.82,24.3-4.89,2.54-30.4,5.45-30.73,5.07s4.15-27,4.15-27c16.74-1.94,29.28-4.05,35.63-4.26C604.68,331.66,605.92,331.75,606.87,333.58Z" style="fill:#fff"></path><path d="M404.72,357.46l.35,4.51c41.47-3.21,80.38-6.64,113.66-9.86,1.56-.14,3.1-.3,4.63-.45,14-1.36,27-2.67,38.62-3.92l4.68-.5c22.67-2.45,40-4.56,50.09-6.07.1-.3.19-.6.28-.89s.14-.48.22-.72c.31-1.14.54-2.19.71-3.14-9.39,1.47-27,3.64-50.49,6.19l-4.68.49c-11.68,1.26-24.68,2.58-38.78,4l-4.63.45C485.91,350.74,446.65,354.22,404.72,357.46Z" style="fill:#37474f"></path><path d="M405.71,370.17l.34,4.51c40.31-3.11,78.19-6.44,110.84-9.58l4.63-.44c13.79-1.34,26.61-2.63,38.21-3.86l4.68-.5c18.51-2,33.67-3.75,44.5-5.17q.36-.4.69-.81c.25-.29.48-.58.71-.87a35.36,35.36,0,0,0,2.34-3.39c-10.63,1.48-26.91,3.42-47.45,5.62l-4.68.5c-11.61,1.23-24.47,2.53-38.35,3.88l-4.63.44C484.7,363.66,446.46,367,405.71,370.17Z" style="fill:#37474f"></path><path d="M558,370.9l4.69-.6,1.74-10,.79-4.62,1.46-8.44.81-4.63,2.39-13.79-4.7.56-2.37,13.72-.81,4.64-1.46,8.44-.79,4.62Z" style="fill:#37474f"></path><path d="M515.43,375.33l4.64-.43,1.45-10.24.65-4.6,1.19-8.4.65-4.6,1.93-13.6-4.62.37-1.94,13.68-.65,4.6-1.19,8.39-.65,4.6Z" style="fill:#37474f"></path><rect x="349.82" y="361.08" width="113.16" height="36.08" transform="translate(-28.02 32.46) rotate(-4.42)" style="fill:#fff"></rect><path d="M551.85,215c-1,1.74-32.55,57.42-43.85,60.67-11.46,3.3-80.54,7.83-108.82,10s-97.24,8.33-109.08,6.83c-11.66-1.48-51.41-51.64-52.65-53.21,1.41,1.39,46.64,46,54,46.55S398.66,279,398.66,279s99.71-8,107-9.69S550.67,216.63,551.85,215Z" style="fill:#fff;opacity:0.2"></path><path d="M458.38,147.14h0a17.64,17.64,0,0,1-.31,2.86c0,.24-.09.49-.15.76-.12.59-.27,1.22-.44,1.89h0c-.1.39-.21.79-.33,1.22-.19.68-.41,1.39-.65,2.13l-.26.77c-.13.41-.27.82-.41,1.24s-.3.85-.46,1.28a1,1,0,0,1-.06.18c-.44,1.21-.88,2.4-1.31,3.6s-.83,2.28-1.24,3.41c-.24.64-.47,1.27-.7,1.9-.08.21-.16.41-.23.61-.47,1.28-.94,2.54-1.42,3.79,0,.11-.08.22-.11.34-.32.84-.63,1.67-.95,2.5l-.69,1.82c-.1.27-.2.54-.31.8,0,.07-.05.14-.07.2l-.81,2.1a.11.11,0,0,0,0,.05l0,0c-.11.3-.23.59-.33.89l-.11.26a1.7,1.7,0,0,1-.09.24c-.07.18-.14.35-.2.52-.28.68-.54,1.36-.81,2h0c-1.24.13-2.47.23-3.72.35l-.21,0-1.4.13a5.11,5.11,0,0,0-.55,0l-.56,0c-1.45.13-2.91.27-4.37.39-2.82.26-5.65.5-8.51.74-.42,0-.85.08-1.28.11l-2.83.25h0l-5.46.46h-.08l.05-.07h0c1.05-1.74,2.17-3.54,3.34-5.36h0l.45-.7h0c1.45-2.21,3-4.48,4.54-6.72l.3-.42c1.49-2.13,3-4.25,4.61-6.33.35-.48.71-.95,1.07-1.42q2-2.59,4-5c4.94-6,9.88-11.27,14.15-14.64a22.5,22.5,0,0,1,3.94-2.55h0a6.21,6.21,0,0,1,2.6-.67h0a2.08,2.08,0,0,1,.71.12,1.47,1.47,0,0,1,.5.25l.1.06h0l.18.17a1.83,1.83,0,0,1,.13.16A4.87,4.87,0,0,1,458.38,147.14Z" style="fill:#455a64"></path><path d="M458.29,147.19a17.94,17.94,0,0,1-.26,2.71h0c0,.29-.11.57-.17.87-.11.58-.24,1.19-.41,1.83-.09.41-.21.85-.33,1.29-.18.67-.39,1.39-.62,2.12l-.26.77c-.13.41-.27.82-.41,1.24s-.3.85-.46,1.28a1,1,0,0,1-.06.18c-.44,1.21-.88,2.4-1.31,3.6s-.83,2.28-1.24,3.41c-.24.64-.47,1.27-.7,1.9-.08.21-.16.41-.23.61-.47,1.28-.94,2.54-1.42,3.79,0,.11-.08.22-.11.34-.32.84-.63,1.67-.95,2.5l-.69,1.82c-.1.27-.2.54-.31.8,0,.07-.05.14-.07.2l-.81,2.1a.11.11,0,0,0,0,.05l0,0c-.11.3-.23.59-.33.89h0c0,.09-.07.17-.1.26a1.7,1.7,0,0,1-.09.24c-.07.18-.14.35-.2.52-.28.68-.54,1.36-.81,2h0c-1.24.13-2.47.23-3.72.35l-.21,0-1.4.13a5.11,5.11,0,0,0-.55,0l-.56,0c-1.45.13-2.91.27-4.37.39-2.82.26-5.65.5-8.51.74-.42,0-.85.08-1.28.11l-2.83.25.23-.28,1.11-1.39.41-.5,2.43-3,.09-.11.05-.05,2.46-3.06.54-.67,1.74-2.16.19-.24,3.17-3.93.57-.7,5.33-6.61.95-1.17,2.17-2.69s0,0,0,0l.55-.68,1.05-1.31,2.4-3,6.95-8.6h0l1.52-1.88.69-.87.14-.17v0c.05,0,.08.05.09.08h0l.18.17a1.83,1.83,0,0,1,.13.16A5.35,5.35,0,0,1,458.29,147.19Z" style="opacity:0.1"></path><path d="M501.07,179.22l-6.66.69-16.79,1.68c-5.52.53-11.2,1.09-17,1.63l-2.45.23-.8.08c-3.77.36-7.59.7-11.47,1.05h0c-1.24.13-2.47.23-3.72.35l-.21,0-1.4.13a5.11,5.11,0,0,0-.55,0l-.56,0a2.44,2.44,0,0,1,.06-.26c.07-.39.15-.78.23-1.17.58-2.73,1.18-5.4,1.8-8,.09-.42.2-.84.29-1.24.26-1,.51-2,.77-3h0c.14-.53.28-1,.42-1.56.49-1.8,1-3.55,1.49-5.22.24-.79.47-1.55.72-2.3.17-.54.34-1.05.52-1.57.23-.68.46-1.36.71-2,.48-1.33,1-2.57,1.46-3.76a43.78,43.78,0,0,1,3-6.06c.15-.24.3-.47.46-.7s.21-.3.3-.45.2-.27.29-.41q.36-.48.72-.93a8.91,8.91,0,0,1,.9-.94c.17-.17.33-.32.5-.47v0l.52-.44.38-.26a14.85,14.85,0,0,1,1.69-1.1l.33-.18a22,22,0,0,1,3.81-1.57c.91-.27,1.83-.5,2.75-.68a25.64,25.64,0,0,1,5.28-.47l1,0H470l.3,0a14.52,14.52,0,0,1,4.27.93l.2.09a4.85,4.85,0,0,1,.51.26.05.05,0,0,1,0,0,5.82,5.82,0,0,1,.66.44c.27.22.54.43.8.66l.25.21c.06,0,.1.08.15.11s.12.1.17.16l.63.57c.82.72,1.63,1.49,2.41,2.29.34.35.68.71,1,1.07h0c.54.57,1.07,1.16,1.58,1.78h0c1,1.17,2,2.4,2.95,3.67h0c.46.61.91,1.22,1.37,1.85a2.53,2.53,0,0,1,.18.27c1.49,2.09,2.94,4.3,4.33,6.61.52.83,1,1.67,1.5,2.53s.91,1.56,1.33,2.36q1.11,2,2.14,4c.2.39.4.78.58,1.16s.26.5.39.75C498.89,174.55,500,176.87,501.07,179.22Z" style="fill:#455a64"></path><path d="M558.56,172.93c-5.53.64-12.92,1.49-21.84,2.47l-.72.08c-3.34.38-6.89.77-10.63,1.17l-3.52.38q-6,.65-12.47,1.32l-.8.1c-2.89-1.74-6-3.65-9.16-5.63l-2.06-1.29q-2.64-1.67-5.27-3.36l-2.49-1.62-.22-.14a.21.21,0,0,1-.08-.06l-.85-.55h0l-1.47-1h0l-.8-.53a1.43,1.43,0,0,1-.22-.15h0q-2-1.33-3.9-2.62c-2.51-1.71-4.8-3.32-6.71-4.73l-.93-.69-.6-.47c-.27-.21-.54-.42-.8-.64s-.54-.45-.81-.67l-.3-.25-.46-.42-.41-.38c-.48-.44-.93-.88-1.32-1.31s-.62-.65-.9-1-.55-.69-.79-1h0a3.69,3.69,0,0,1-.27-.35,9.13,9.13,0,0,1-1.82-4.11c-.28-2.16.87-3.82,3.45-4.74a3.2,3.2,0,0,1,.52-.18l.11,0h0l.29-.08a17.62,17.62,0,0,1,4-.53h1.25a.66.66,0,0,0,.14,0c.36,0,.75,0,1.12.05h.31a5.33,5.33,0,0,1,.56,0l1.53.08c1.86.11,3.77.27,5.73.52s3.7.48,5.61.8c1.59.26,3.21.57,4.84.91.51.1,1,.2,1.55.33l.13,0a165.17,165.17,0,0,1,18.4,5.16c4,1.39,8,2.92,11.89,4.59.62.25,1.25.53,1.87.81,2.51,1.09,4.94,2.25,7.3,3.46l.67.35a103.34,103.34,0,0,1,14.63,9A27.81,27.81,0,0,1,558.56,172.93Z" style="fill:#455a64"></path><path d="M509.38,178.35l-.8.1-1.2.12c-2.58-1.58-5.13-3.25-7.65-4.94l-2-1.35c-1.94-1.33-3.84-2.67-5.75-4l-2.42-1.71-.2-.14a.21.21,0,0,1-.08-.06l-.77-.54-1.25-.87,0,0-1-.7-.09-.07-4-2.79-1.68-1.16,1.79,1c1.4.81,2.84,1.7,4.35,2.63l.65.4c1.24.79,2.51,1.59,3.8,2.43l1.54,1,4.16,2.69,2.21,1.44C502.36,174,505.85,176.21,509.38,178.35Z" style="fill:#263238"></path><path d="M489.81,166a27.73,27.73,0,0,0-7.17-2.38,18.7,18.7,0,0,0,7.17,2.38Z" style="fill:#263238"></path><path d="M465.29,158.85c5-1.17,9.32-11.87,9.59-18.94,0-.49-2.56-4.22-5.49-8.89-1.76-2.85-3.66-6.06-5.17-9.12-.31-.62-16.85,14.19-16.85,14.19a54.06,54.06,0,0,1,7.68,10.8,7.69,7.69,0,0,1,.5,1.32c0,.06,0,.14.07.22C456.42,151,460.44,160,465.29,158.85Z" style="fill:#ad6359"></path><path d="M463.08,122.57c1.68,5.61,4.67,19.68-5.44,25a11.32,11.32,0,0,1-2,.87.74.74,0,0,1-.08-.22,8.54,8.54,0,0,0-.49-1.32,54.23,54.23,0,0,0-7.69-10.81S459.3,125.4,463.08,122.57Z" style="fill:#263238"></path><path d="M461.05,100.23c3.91,6.9,4.78,29.16.57,35.11-6.09,8.61-18.44,12.06-26.36,4.2-7.68-7.62-8.3-36.66-3.38-42.3C439.12,88.92,455.27,90,461.05,100.23Z" style="fill:#ad6359"></path><path d="M461.05,100.23c3.91,6.9,4.78,29.16.57,35.11-6.09,8.61-18.44,12.06-26.36,4.2-7.68-7.62-8.3-36.66-3.38-42.3C439.12,88.92,455.27,90,461.05,100.23Z" style="fill:#ad6359"></path><path d="M464.34,117.05c.3,7.53-.51,15.17-2.72,18.29-6.09,8.61-18.44,12.07-26.36,4.2-2.63-2.62-4.44-7.77-5.47-13.64,2.66,3.6,7,1,7,1l2.61-.09c5.85,3.91,11.84,3.09,15.29-.77,2.31-2.57,3.91-9,3.91-9Z" style="fill:#263238;opacity:0.2"></path><path d="M433.37,124.78c-2-.08-2.58-3.32-1.54-5a.09.09,0,0,1,0-.06,4.25,4.25,0,0,0,.16,1.06,7.06,7.06,0,0,0,.32,1c.28.63.71,1.13,1.22,1s.91-.52,1.06-1.2a10.2,10.2,0,0,0,.21-2.11s0,0,0,0C436,121.1,435.55,124.86,433.37,124.78Z" style="opacity:0.1"></path><path d="M445.94,123.83c-2.12.29-3.24-3.15-2.26-5,0,0,0,0,0,0s0,0,0,0a11,11,0,0,0,.54,2c.27.64.71,1,1.25,1s.87-.57,1-1.24a6.2,6.2,0,0,0,.16-1,4.81,4.81,0,0,0,0-1.07.16.16,0,0,1,.06.08C447.91,120.2,448,123.55,445.94,123.83Z" style="opacity:0.1"></path><path d="M431.09,117.25a14.33,14.33,0,0,1,1.16-1,2.49,2.49,0,0,1,1.37-.83.79.79,0,0,1,.79.57,2,2,0,0,1-.77,1.86,3,3,0,0,1-1.91.87A.86.86,0,0,1,431.09,117.25Z" style="fill:#263238"></path><path d="M446.65,115a14.88,14.88,0,0,1-1.48-.45,2.48,2.48,0,0,1-1.43-.74.78.78,0,0,1,.08-1,2,2,0,0,1,2-.3,3,3,0,0,1,1.74,1.17A.86.86,0,0,1,446.65,115Z" style="fill:#263238"></path><path d="M449.08,132.16c-.25.45-.46,1-1,1.23a4,4,0,0,1-1.68.11,0,0,0,0,0,0,.09,2,2,0,0,0,2.09.24,1.63,1.63,0,0,0,.77-1.64C449.24,132.1,449.11,132.1,449.08,132.16Z" style="fill:#263238"></path><path d="M445.27,129.8a14,14,0,0,0-5.71.83c-.17,0-.58-.06-.64-.22v0s-.36-3.18-.36-3.18c-.39.27-2.38,1.53-2.43.93-.42-5-.89-10.53-.26-15.58a.14.14,0,0,1,.28,0c.59,4.78.34,9.63.86,14.44a8.84,8.84,0,0,1,2.29-1.07c.16,0,.21,3.39.34,3.9a8.57,8.57,0,0,1,5.78-.33C446.16,129.7,446.26,129.87,445.27,129.8Z" style="fill:#263238"></path><path d="M442.88,132.31c-.75-.06-2.54-2.51-1.42-3s4-.45,5.48,1c1.27,1.3-2.46,1.08-3,1.46S443.42,132.35,442.88,132.31Z" style="fill:#263238"></path><path d="M444,131.8l-.23.19a2.07,2.07,0,0,1,1.7-2.57,3.75,3.75,0,0,1,1.49.92C448.2,131.64,444.48,131.43,444,131.8Z" style="fill:#ff9abb"></path><path d="M443.65,119.37c0-.06.12.07.12.13,0,1.54.34,3.3,1.76,3.73.05,0,.05.09,0,.09C443.82,123.18,443.44,120.84,443.65,119.37Z" style="fill:#263238"></path><path d="M443.7,121a2.31,2.31,0,0,0,.58,1.1,1.71,1.71,0,0,0,1.27.47,1.52,1.52,0,0,0,1.17-.72,2.63,2.63,0,0,0,.37-1.17,3.66,3.66,0,0,0,0-.74,3.35,3.35,0,0,0-.43-1.46,5.16,5.16,0,0,1,0,1.11,6.2,6.2,0,0,1-.16,1c-.16.67-.5,1.24-1,1.24s-1-.36-1.24-1a10.82,10.82,0,0,1-.56-2.07A4.76,4.76,0,0,0,443.7,121Z" style="fill:#263238"></path><path d="M435,120c0-.06-.11.08-.1.15.21,1.52.21,3.3-1.12,4,0,0,0,.09,0,.08C435.43,123.78,435.42,121.42,435,120Z" style="fill:#263238"></path><path d="M435.2,121.66a2.35,2.35,0,0,1-.4,1.18,1.69,1.69,0,0,1-1.17.68,1.59,1.59,0,0,1-1.28-.51,2.88,2.88,0,0,1-.56-1.1,5.85,5.85,0,0,1-.12-.73,3.21,3.21,0,0,1,.19-1.51,5,5,0,0,0,.16,1.1,7.06,7.06,0,0,0,.32,1c.27.63.71,1.14,1.22,1s.91-.52,1.06-1.2a11.15,11.15,0,0,0,.21-2.13A4.89,4.89,0,0,1,435.2,121.66Z" style="fill:#263238"></path><path d="M464.16,120.58c-3.14,1.23-6.09-2.37-7.12-4.3s-.69-13.29-2.56-16.16-5.4-4.21-8-3.16-5.67,4.9-7.66,4.91-2.87-4.19-4.24-4.05c-3,.3-5.54,8.34-5.76,11.7,0,0-2-15.4,12.64-18,14-2.5,20.11,5.32,21.75,9.44C466.38,108.82,464.16,120.58,464.16,120.58Z" style="fill:#263238"></path><path d="M460.16,119.07s3.45-7.93,7-6.84,1.88,11.9-1.54,14a3.83,3.83,0,0,1-5.45-1Z" style="fill:#ad6359"></path><path d="M466.58,115.32c.05,0,.08.06,0,.09-2.38,1.58-3.26,4.26-3.71,7a2.11,2.11,0,0,1,3-1.2.08.08,0,0,1,0,.15,2.35,2.35,0,0,0-2.38,1.33,10.89,10.89,0,0,0-.8,2.31c-.08.25-.52.21-.49-.07,0,0,0,0,0-.07C461.46,121.52,463.09,116.37,466.58,115.32Z" style="fill:#263238"></path><path d="M526,103.33c-2,2.76-8,11.24-15.51,21.42-3.18,4.31-6.61,8.92-10.1,13.53a.18.18,0,0,1-.05.07l-3.28,4.31-.14.19-.56.72-1.19,1.55h0l-.07.08s0,0,0,0a1.84,1.84,0,0,0-.17.22c-.06.06-.1.12-.15.18l-3.29,4.23c-1,1.21-1.9,2.41-2.83,3.57-.38.48-.76,1-1.14,1.42q-.8,1-1.59,2c-.94,1.15-1.86,2.26-2.74,3.32-.24.29-.48.57-.69.85a.84.84,0,0,0-.18.2.58.58,0,0,0-.11.13c-.06.06-.09.11-.14.15l-.59.71-1.19,1.38c-.57.66-1.13,1.3-1.66,1.89-2,2.23-3.74,4.1-5.24,5.5-2,1.89-5.09,4.45-8.24,7-1.93,1.56-3.9,3.1-5.65,4.47l-1.31,1-.8.08c-3.77.36-7.59.7-11.47,1.05h0c-1.24.13-2.47.23-3.72.35l-.21,0-1.4.13c.21-.19.45-.38.67-.59l.77-.67c1.84-1.6,4-3.44,6.17-5.39l.2-.17c.25-.23.51-.44.76-.66l1.37-1.2,5.33-4.69,1.16-1c3.11-2.75,5.85-5.2,7.61-6.83,1.47-1.36,3.14-3,5-5,1.1-1.17,2.25-2.46,3.44-3.83l1-1.11c.35-.43.72-.85,1.09-1.28.25-.28.5-.58.75-.88.7-.82,1.4-1.66,2.12-2.52l.45-.55c.67-.8,1.33-1.61,2-2.43l1.41-1.72c.56-.7,1.15-1.42,1.72-2.14l1.41-1.76,2.36-3,.15-.2.22-.26a4.87,4.87,0,0,1,.33-.43c1.93-2.45,3.85-4.94,5.75-7.41l.09-.11a0,0,0,0,0,0,0c.12-.17.26-.34.38-.5l1-1.27c.41-.52.8-1.05,1.19-1.56,1.23-1.6,2.44-3.2,3.63-4.77,8.93-11.82,16.35-22.09,18.56-25.17a38.74,38.74,0,0,1,6.25,5.79A17.6,17.6,0,0,1,526,103.33Z" style="fill:#8114F6"></path><path d="M526,103.33c-2,2.76-8,11.24-15.51,21.42-3.18,4.31-6.61,8.92-10.1,13.53a.18.18,0,0,1-.05.07l-3.28,4.31-.14.19-.56.72-1.19,1.55h0l-.07.08s0,0,0,0a1.84,1.84,0,0,0-.17.22c-.06.06-.1.12-.15.18l-3.29,4.23c-1,1.21-1.9,2.41-2.83,3.57-.38.48-.76,1-1.14,1.42q-.8,1-1.59,2c-.94,1.15-1.86,2.26-2.74,3.32-.24.29-.48.57-.69.85a.84.84,0,0,0-.18.2.58.58,0,0,0-.11.13c-.06.06-.09.11-.14.15l-.59.71-1.19,1.38c-.57.66-1.13,1.3-1.66,1.89-2,2.23-3.74,4.1-5.24,5.5-2,1.89-5.09,4.45-8.24,7-1.93,1.56-3.9,3.1-5.65,4.47l-1.31,1-.8.08c-3.77.36-7.59.7-11.47,1.05h0c-1.24.13-2.47.23-3.72.35l-.21,0-1.4.13c.21-.19.45-.38.67-.59l.77-.67c1.84-1.6,4-3.44,6.17-5.39l.2-.17c.25-.23.51-.44.76-.66l1.37-1.2,5.33-4.69,1.16-1c3.11-2.75,5.85-5.2,7.61-6.83,1.47-1.36,3.14-3,5-5,1.1-1.17,2.25-2.46,3.44-3.83l1-1.11c.35-.43.72-.85,1.09-1.28.25-.28.5-.58.75-.88.7-.82,1.4-1.66,2.12-2.52l.45-.55c.67-.8,1.33-1.61,2-2.43l1.41-1.72c.56-.7,1.15-1.42,1.72-2.14l1.41-1.76,2.36-3,.15-.2.22-.26a4.87,4.87,0,0,1,.33-.43c1.93-2.45,3.85-4.94,5.75-7.41l.09-.11a0,0,0,0,0,0,0c.12-.17.26-.34.38-.5l1-1.27c.41-.52.8-1.05,1.19-1.56,1.23-1.6,2.44-3.2,3.63-4.77,8.93-11.82,16.35-22.09,18.56-25.17a38.74,38.74,0,0,1,6.25,5.79A17.6,17.6,0,0,1,526,103.33Z" style="opacity:0.6000000000000001"></path><g style="opacity:0.7000000000000001"><path d="M494.38,167l-10.51-1-10.52-1c-1-.09,3-31.76,3.36-35.3s7.3-12.13,7.49-14.13,1.55-16.29,1.55-16.29l8.87.84-1.55,16.29c-.2,2,5,11.77,4.67,15.29S495.37,167.09,494.38,167Z" style="fill:#fff"></path><path d="M494.38,167,475,165.21l-1.39-.13-.17,0s0,0-.1,0c-.26-.25-.15-.81-.19-1.16.09-3.72.51-7.41.86-11.11l1.2-11.07c.36-2,1.08-12.18,1.87-13.81,1.76-4.29,5-7.86,6.85-12.06a2.33,2.33,0,0,0,.11-.65c.32-3.52,1.18-12.54,1.53-16.17l.23,0,8.87.87.2,0,0,.2-.83,8.46-.42,4.23a30.09,30.09,0,0,0-.29,4.18c1.15,4.67,4.06,9.27,4.57,14.11,0,.54-1.33,17.94-1.45,19.07-.36,4.24-.71,8.47-1.21,12.69a35,35,0,0,1-.58,3.67c-.06.16-.07.37-.23.46Zm0,0c.16-.09.17-.3.23-.46.28-1.21.4-2.45.56-3.67.47-4.23.8-8.46,1.13-12.7l1.21-16.94c.48-2.86-.59-5.56-1.58-8.19l-1.57-3.94c-.56-1.64-1.56-3.35-1.41-5.14l.1-1.06.19-2.12c.26-2.76.91-9.85,1.17-12.69l.19.23-8.87-.82.25-.21c-.34,3.56-1.19,12.54-1.53,15.94-.33,2.12-1.89,3.78-2.92,5.59-1.83,3.12-4.45,6.14-4.75,9.85-.67,5.51-2,16.61-2.6,22.12-.32,4-1.07,8.08-.84,12.1,0,.06.16,0,.26.06l1.38.14,19.4,1.91Z" style="fill:#263238"></path></g><path d="M493,164.82l-9-.86-9-.85c-.85-.08,2.85-29.94,3.14-33s7.07-11.7,7.23-13.41l6.65-4.74-.51,5.33c-.17,1.71,4.85,11.53,4.56,14.53S493.87,164.9,493,164.82Z" style="fill:#8114F6;opacity:0.7000000000000001"></path><g style="opacity:0.1"><path d="M494.15,142.66a1,1,0,0,0-1.34-.07,1,1,0,0,0-.07,1.35,1,1,0,0,0,1.41-1.28Z"></path><path d="M490.89,120.67a1,1,0,0,0-1.41,1.28,1,1,0,0,0,1.41-1.28Z"></path><path d="M494.58,139.39a.67.67,0,0,0-.95,0,.67.67,0,1,0,.91,1A.66.66,0,0,0,494.58,139.39Z"></path><path d="M483,159.91a.67.67,0,1,0,0,1A.68.68,0,0,0,483,159.91Z"></path><path d="M481.15,131.78a.68.68,0,0,0-.95,0,.67.67,0,0,0-.05.95.68.68,0,0,0,1,0A.67.67,0,0,0,481.15,131.78Z"></path><path d="M491,142.89a.48.48,0,0,0-.71.64.48.48,0,0,0,.71-.64Z"></path><path d="M481.25,158.2a.47.47,0,0,0-.7.64.47.47,0,0,0,.67,0A.48.48,0,0,0,481.25,158.2Z"></path></g><g style="opacity:0.7000000000000001"><rect x="485.07" y="97.52" width="10.42" height="2.18" transform="translate(11.57 -46.09) rotate(5.45)" style="fill:#fff"></rect><path d="M495.58,98c-3.05-.19-7.42-.46-10.4-.75l.25-.21-.19,2.17L485,99c3.46.34,6.91.69,10.36,1.15l-.09.08.29-2.17Zm0,0-.12,2.18v.08c-3.5-.2-7-.51-10.48-.83l-.25,0,0-.25c0-.11.24-2.36.24-2.4,3.14.29,7.43.85,10.59,1.24Z" style="fill:#263238"></path></g><g style="opacity:0.7000000000000001"><rect x="485.31" y="95" width="10.42" height="2.18" transform="translate(11.34 -46.13) rotate(5.45)" style="fill:#fff"></rect><path d="M495.82,95.5c-3.05-.2-7.42-.47-10.4-.76l.25-.21-.19,2.17-.22-.27c3.46.35,6.91.7,10.36,1.15l-.09.08.29-2.16Zm0,0-.12,2.18v.08c-3.5-.2-7-.52-10.48-.83l-.25,0c0-.06.24-2.28.25-2.41l0-.24.23,0c3,.29,7.3.84,10.36,1.23Z" style="fill:#263238"></path></g><ellipse cx="484.33" cy="145.82" rx="10.39" ry="6.55" transform="translate(293.2 614.12) rotate(-84.55)" style="fill:#fff"></ellipse><rect x="484.41" y="111.45" width="8.91" height="4.19" transform="translate(12.98 -45.89) rotate(5.45)" style="fill:#455a64"></rect><rect x="474.91" y="142.58" width="21.73" height="6.75" transform="translate(16.05 -45.45) rotate(5.45)" style="fill:#455a64"></rect><path d="M560.29,172.73c-.56.06-1.13.12-1.73.2-5.53.64-12.92,1.49-21.84,2.47l-.72.08c-3.34.38-6.89.77-10.63,1.17l-3.52.38q-2.36-1.16-4.93-2.46h0l-2.48-1.26,0,0s0,0,0,0c-.52-.28-1-.53-1.58-.82a1.36,1.36,0,0,1-.52-.54s0,0,0,0c-1.8-3,.32-15.66,3.21-24.07,1.67-4.91,3.62-8.38,5.21-7.66l7.39,3.37c.47.22,1,.45,1.45.67h0c2.4,1.1,5,2.3,7.48,3.47l.2.1c6.31,2.93,12,5.65,12.76,6.15C556.14,158.19,559.35,165.88,560.29,172.73Z" style="fill:#ad6359"></path><path d="M531.75,148.25s-5.78-11.08-10.62-16c-6.48-6.54-14.77-9.51-18.32-10.55-7.4-2.17-26.81-2.29-27.82,3.3-.92,5.05,18.93,4.17,18.93,4.17s-20.38-2.44-20.36,3.85,23,3.95,23,3.95-21-2-19.95,4.45c.79,4.9,21.72,4,21.72,4s-18.06-1.62-17.46,3.45c.66,5.61,20,6,20,6,3.68,12.64,10.61,17.15,15.92,19.77C518.09,175.21,531.75,148.25,531.75,148.25Z" style="fill:#ad6359"></path><path d="M501,129.59c-2.38-.37-4.79-.76-7.2-.92s-4.83-.24-7.24-.18a41,41,0,0,0-9.36,1.15c5.54-.91,14.17-.47,16.58-.31s4.81.2,7.22.35C501.08,129.69,501.08,129.6,501,129.59Z" style="fill:#263238"></path><path d="M500.6,138.3c-3.06-.34-6.09-.8-9.17-1s-6-.14-9.07-.13c-.23,0-.16.12.08.13,3.07.12,5.9.47,9,.63s6.14.19,9.19.45C500.65,138.38,500.65,138.31,500.6,138.3Z" style="fill:#263238"></path><path d="M501.59,145.84a69,69,0,0,0-14.15-.47c-.24,0-.12.16.12.17,4.71.06,8.4.08,14,.46C501.65,146,501.68,145.86,501.59,145.84Z" style="fill:#263238"></path><path d="M561.07,172.63l-.78.1c-.56.06-1.13.12-1.73.2-5.53.64-12.92,1.49-21.84,2.47l-.72.08c-3.34.38-6.89.77-10.63,1.17l1.54-19,.43-5.2.71-8.88.12-1.56.35-4.2L549.92,153A29.86,29.86,0,0,1,561.07,172.63Z" style="fill:#455a64"></path><path d="M537.17,146.76c0,.34,0,.67,0,1,0,2.41,0,4.83,0,7.24,0,.67,0,1.35,0,2,0,4.17-.16,8.36-.27,12.52-.06,2-.1,3.91-.19,5.85l-.72.08c.07-4.75.17-9.51.34-14.26.06-1.51.1-3,.17-4.54.11-3,.25-6,.48-9,0-.3,0-.62.07-.93C537.06,146.67,537.16,146.7,537.17,146.76Z" style="fill:#263238"></path><path d="M501.28,179.2a32.28,32.28,0,0,0-1.55-5.57,1.42,1.42,0,0,0-.07-.22c-.09-.2-.16-.4-.24-.59l-.21-.52c-.08-.16-.15-.33-.22-.49-.25-.58-.52-1.15-.81-1.7a33.35,33.35,0,0,0-2.67-4.35l-.5-.68a1.13,1.13,0,0,1-.1-.13c-.46-.6-1-1.19-1.46-1.75s-1.05-1.16-1.64-1.71a32.78,32.78,0,0,0-5.92-4.63c-.44-.27-.88-.53-1.33-.77l-.23-.13c-.48-.27-1-.53-1.48-.76-.68-.33-1.38-.63-2.08-.91l-1-.38h0a31.61,31.61,0,0,0-4.07-1.18l-.64-.14c-.31-.06-.63-.13-.94-.17a23.25,23.25,0,0,0-2.49-.33l-.36,0a.1.1,0,0,0-.07,0c-.33,0-.67-.05-1-.06l-.48,0a32.76,32.76,0,0,0-3.83.07,33.25,33.25,0,0,0-7.77,1.55l-.09,0-.36.12h-.05l-.44.17h0a32.79,32.79,0,0,0-8.16,4.3,36.38,36.38,0,0,0-3.24,2.66l-.81.78c-.45.44-.87.9-1.3,1.37l0,0c-.75.85-1.48,1.74-2.16,2.67-.34.47-.66.93-1,1.42a32.15,32.15,0,0,0-2.69,5c-.15.34-.29.68-.43,1a33.89,33.89,0,0,0-1.89,7c0,.31-.09.62-.12.93,0,.07,0,.13,0,.2-.07.47-.12,1-.15,1.43-.07.95-.12,1.9-.1,2.87,1.46-.12,2.92-.26,4.37-.39l.56,0a5.11,5.11,0,0,1,.55,0l1.4-.13a.4.4,0,0,1,0-.11c0-.35,0-.68,0-1,0,0,0-.1,0-.15,0-.37.05-.75.08-1.12a26.52,26.52,0,0,1,1.31-5.83c.14-.4.28-.8.44-1.2s.27-.67.42-1c.27-.59.55-1.16.86-1.74h0a26.31,26.31,0,0,1,4-5.58h0a26.94,26.94,0,0,1,4.88-4.1c.34-.23.69-.44,1-.64a26.22,26.22,0,0,1,11.36-3.58,27.91,27.91,0,0,1,3.16-.06,26.43,26.43,0,0,1,3.91.46c.39.07.76.16,1.14.25.16,0,.32.08.49.13a25.48,25.48,0,0,1,6.35,2.57,21.26,21.26,0,0,1,2.71,1.76h0l0,0,.19.13q.54.41,1.05.84h0c.49.41,1,.85,1.45,1.3a25.83,25.83,0,0,1,3.2,3.73,0,0,0,0,0,0,0l.07.09q.31.44.6.9a26.75,26.75,0,0,1,3.06,6.61l.27.95h0c.11.44.22.88.31,1.33l6.66-.69c.12.25.24.5.34.75C501.37,179.71,501.32,179.45,501.28,179.2Z" style="fill:#263238"></path><path d="M492.87,167.46l-.25.22-.53.49-.09.09L490.1,170l-12.48,11.57c-5.52.53-11.2,1.09-17,1.63l-1.14-.77L454,178.8l-3.54-2.4-1.13-.76-4.24-2.87-2.17-1.45,3.58-5.31.26-.4,2.33,1.58h0l2.71,1.82,4,2.7,4.38,2.95,4.92,3.32,3.65,2.45L484.28,166h0l1.14-1.06h0l.51-.47.21-.21.09-.07.05-.05h0l.32-.31,1.56-1.45,2,2.12,2.09,2.26Z" style="fill:#263238"></path><path d="M460.19,174.66a2.86,2.86,0,0,1-.19,1c-.93,2.46-4.17,3-6,3.11h-.48c-.47,0-.76,0-.76,0l.42.19h0c1.14.52,4.12,2.14,4.14,4.53-3.77.36-7.59.7-11.47,1.05h0c-1.24.13-2.47.23-3.72.35l-.21,0-1.4.13a5.11,5.11,0,0,0-.55,0l-.56,0c-1.45.13-2.91.27-4.37.39-2.82.26-5.65.5-8.51.74-.42,0-.85.08-1.28.11l-2.83.25h0l-5.46.46a.16.16,0,0,1,0-.06h0a3.4,3.4,0,0,1-.16-1.91c.47-1.92,2.43-3,3.5-3.45h0a6,6,0,0,1,.69-.26s-.1-.16-.24-.44h0c-.42-.87-1.13-2.82-.11-4.46a5.17,5.17,0,0,1,4.65-2.26l.28,0h.11l.1,0s-.08-.17-.19-.46c-.37-.91-1-3-.22-4.11a5.83,5.83,0,0,1,4.83-2.22,7.47,7.47,0,0,1,1.52.11,4.63,4.63,0,0,1-.45-1.53,4.48,4.48,0,0,1,1.38-3.78,5.93,5.93,0,0,1,2.61-1.26c2.27-.64,5.43-1,8.21-1.47l1-.2c.71-.17,1.38-.35,2-.53,1.59-.49,2.73-1,2.87-1l-.34.38-3.76,4.23L443.77,164a4.25,4.25,0,0,0,.71.69,12,12,0,0,0,2,1.28c.78.4,1.66.79,2.59,1.18h0l2.94,1.21a41,41,0,0,1,4.91,2.28C458.91,171.8,460.24,173.08,460.19,174.66Z" style="fill:#ad6359"></path><path d="M426.55,186.3c-.42,0-.85.08-1.28.11-.52-.46-1-.93-1.49-1.42a37.72,37.72,0,0,1-2.68-3c-.06,0,0-.13.08-.07,1,.9,2,1.76,3,2.58C425,185.12,425.76,185.73,426.55,186.3Z" style="fill:#263238"></path><path d="M442.15,184.93l-.21,0-1.4.13a5.11,5.11,0,0,0-.55,0l-.5-.22a35.3,35.3,0,0,1-4.33-2.22,37.36,37.36,0,0,1-5.94-4.44,33.87,33.87,0,0,1-3.66-3.86.09.09,0,0,1,0-.11h0a.06.06,0,0,1,.09,0h0a47.07,47.07,0,0,0,4.09,3.3c1.72,1.25,3.61,2.51,5.55,3.68,1.46.9,3,1.74,4.41,2.48.5.27,1,.51,1.49.75l.73.35A1.33,1.33,0,0,0,442.15,184.93Z" style="fill:#263238"></path><path d="M453.44,178.7c-8.21-1.59-15.08-5.65-21.54-10.83-.09-.07-.17.06-.12.13,2.47,3.4,6.93,6.28,10.6,8.22a22,22,0,0,0,11,2.77C453.54,179,453.62,178.74,453.44,178.7Z" style="fill:#263238"></path><path d="M501.41,180c-.1-.25-.22-.5-.34-.75l.21,0C501.32,179.45,501.37,179.71,501.41,180Z" style="fill:#263238"></path></g><g id="freepik--Sparkles--inject-6"><path d="M471.58,106.52c-.94-2.72.74-4.68,3.57-4.17-.27.08-.54.12-.81.19-2.25.26-2.79,2-2.76,4Z" style="fill:#263238"></path><path d="M466.39,103c2.72-.94,4.68.74,4.17,3.57-.08-.27-.13-.55-.19-.82-.26-2.24-2-2.78-4-2.75Z" style="fill:#263238"></path><path d="M469.87,97.67c.94,2.72-.74,4.68-3.57,4.17.27-.08.54-.13.81-.19,2.25-.26,2.79-2,2.76-4Z" style="fill:#263238"></path><path d="M475.06,101.16c-2.72.94-4.68-.74-4.17-3.57.08.27.13.54.19.81.26,2.25,2,2.79,4,2.76Z" style="fill:#263238"></path><path d="M429.38,144.65c-.94-2.71.74-4.68,3.57-4.16-.27.08-.54.12-.82.18-2.24.27-2.78,2-2.75,4Z" style="fill:#263238"></path><path d="M424.19,141.17c2.71-.95,4.68.74,4.16,3.56-.08-.27-.12-.54-.18-.81-.27-2.25-2-2.79-4-2.75Z" style="fill:#263238"></path><path d="M427.66,135.81c.94,2.72-.74,4.68-3.56,4.17.26-.08.54-.13.81-.19,2.24-.26,2.79-2,2.75-4Z" style="fill:#263238"></path><path d="M432.85,139.3c-2.71.94-4.68-.74-4.16-3.57.08.27.12.54.18.81.27,2.25,2,2.79,4,2.76Z" style="fill:#263238"></path><path d="M474.35,115.26a1.62,1.62,0,0,1,2-2.36c-.56.22-1.14.27-1.52.75s-.37,1-.5,1.61Z" style="fill:#263238"></path><path d="M471.41,113.29a1.62,1.62,0,0,1,2.36,2c-.22-.57-.27-1.14-.75-1.52s-1-.37-1.61-.5Z" style="fill:#263238"></path><path d="M473.38,110.25a1.62,1.62,0,0,1-2,2.36c.56-.22,1.14-.26,1.51-.75s.38-1,.51-1.61Z" style="fill:#263238"></path><path d="M476.32,112.23a1.63,1.63,0,0,1-2.36-2c.22.57.26,1.15.75,1.52s1,.38,1.61.51Z" style="fill:#263238"></path><path d="M414.2,139.08a1.62,1.62,0,0,1,2-2.36c-.56.22-1.14.26-1.51.74s-.38,1-.51,1.62Z" style="fill:#263238"></path><path d="M411.26,137.1a1.62,1.62,0,0,1,2.36,2c-.22-.56-.26-1.14-.75-1.52s-1-.37-1.61-.5Z" style="fill:#263238"></path><path d="M413.23,134.06a1.62,1.62,0,0,1-2,2.36c.56-.22,1.14-.26,1.52-.74s.37-1,.5-1.62Z" style="fill:#263238"></path><path d="M416.17,136a1.62,1.62,0,0,1-2.36-2c.22.56.27,1.14.75,1.52s1,.37,1.61.5Z" style="fill:#263238"></path><path d="M481.16,96.17a1.62,1.62,0,0,1,2-2.36c-.57.22-1.14.27-1.52.75s-.37,1-.5,1.61Z" style="fill:#263238"></path><path d="M478.21,94.2a1.62,1.62,0,0,1,2.36,2c-.22-.57-.26-1.14-.74-1.52s-1-.37-1.62-.5Z" style="fill:#263238"></path><path d="M480.18,91.16a1.62,1.62,0,0,1-2,2.36c.57-.22,1.14-.26,1.52-.74s.37-1,.5-1.62Z" style="fill:#263238"></path><path d="M483.13,93.14a1.63,1.63,0,0,1-2.37-2c.23.56.27,1.14.75,1.51s1,.38,1.62.51Z" style="fill:#263238"></path><path d="M423.32,101.43a1.63,1.63,0,0,1,2-2.37c-.57.22-1.14.27-1.52.75s-.37,1-.5,1.62Z" style="fill:#263238"></path><path d="M420.37,99.45a1.62,1.62,0,0,1,2.36,2c-.22-.56-.26-1.14-.74-1.52s-1-.37-1.62-.5Z" style="fill:#263238"></path><path d="M422.34,96.41a1.62,1.62,0,0,1-2,2.36c.57-.22,1.14-.26,1.52-.74s.37-1,.5-1.62Z" style="fill:#263238"></path><path d="M425.29,98.39a1.62,1.62,0,0,1-2.36-2c.22.56.26,1.14.74,1.52s1,.37,1.62.5Z" style="fill:#263238"></path></g></svg>
