<svg xmlns="http://www.w3.org/2000/svg" viewBox="0 0 500 500"><g id="freepik--background-complete--inject-12"><g><g><path d="M443.92039,298.7336h-180.7461c-3.2324,0-5.86229-2.6298-5.86229-5.8623V29.5979c0-3.2324,2.62989-5.8618,5.86229-5.8618h180.7461c3.2324,0,5.8623,2.6294,5.8623,5.8618V292.8713c0,3.2325-2.6299,5.8623-5.8623,5.8623ZM263.17429,23.9861c-3.0947,0-5.61229,2.5176-5.61229,5.6118V292.8713c0,3.0948,2.51759,5.6123,5.61229,5.6123h180.7461c3.0947,0,5.6123-2.5175,5.6123-5.6123V29.5979c0-3.0942-2.5176-5.6118-5.6123-5.6118h-180.7461Z" style="fill:#e0e0e0;"></path><path d="M235.49269,298.7336H54.7461c-3.2324,0-5.8618-2.6298-5.8618-5.8623V29.5979c0-3.2324,2.6294-5.8618,5.8618-5.8618H235.49269c3.2324,0,5.86231,2.6294,5.86231,5.8618V292.8713c0,3.2325-2.62991,5.8623-5.86231,5.8623ZM54.7461,23.9861c-3.0942,0-5.6118,2.5176-5.6118,5.6118V292.8713c0,3.0948,2.5176,5.6123,5.6118,5.6123H235.49269c3.0947,0,5.61231-2.5175,5.61231-5.6123V29.5979c0-3.0942-2.51761-5.6118-5.61231-5.6118H54.7461Z" style="fill:#e0e0e0;"></path></g><g><rect x="0" y="334.6951" width="500" height=".25" style="fill:#e0e0e0;"></rect><rect x="51.6724" y="348.9596" width="16.06" height=".25" style="fill:#e0e0e0;"></rect><rect x="170.3524" y="346.2496" width="53.53" height=".25" style="fill:#e0e0e0;"></rect><rect x="68.7324" y="358.2496" width="36.25" height=".25" style="fill:#e0e0e0;"></rect><rect x="378.35239" y="346.1196" width="43.19" height=".25" style="fill:#e0e0e0;"></rect><rect x="430.45239" y="346.1196" width="6.33" height=".25" style="fill:#e0e0e0;"></rect><rect x="316.21239" y="352.3496" width="53.89" height=".25" style="fill:#e0e0e0;"></rect></g></g><g id="freepik--freepik--background-complete--inject-481--inject-12"><polygon points="439.68289 233.9845 438.83959 187.8015 412.95309 187.8015 412.95309 198.3335 393.89369 198.3335 393.89369 82.9684 357.24619 82.9684 357.24619 128.3752 346.25069 128.3752 346.25069 105.7008 317.65569 105.7008 317.65569 216.2806 277.33529 216.2806 277.33529 177.2116 252.054 177.2116 252.054 92.5041 220.85189 92.5041 220.85189 148.9758 191.5269 148.9758 191.5269 270.6321 168.8062 270.6321 168.8062 211.3912 145.3439 211.3912 145.3439 173.2722 120.4217 173.2722 120.4217 144.0051 92.6145 158.6735 92.6145 236.9738 63.2895 236.9738 63.2895 220.8225 24.1163 220.8225 24.1163 334.3105 480.08429 334.5306 480.08429 233.9845 439.68289 233.9845" style="fill:#ebebeb;"></polygon><path d="M147.2556,334.3705V165.521h-31.1556v169.0096c9.86-.2433,31.1556-.1601,31.1556-.1601Z" style="fill:#e6e6e6;"></path><path d="M118.8808,334.5306v-92.8642H54.7621v92.6589l64.1187,.2053Z" style="fill:#fafafa;"></path><path d="M196.7872,334.3939V198.067h-36.3231v136.3093l36.3231,.0176Z" style="fill:#e0e0e0;"></path><rect x="163.2216" y="203.4083" width="4.4028" height="9.0837" style="fill:#fafafa;"></rect><rect x="172.0272" y="203.4083" width="4.4028" height="9.0837" style="fill:#fafafa;"></rect><rect x="180.8328" y="203.4083" width="4.4028" height="9.0837" style="fill:#fafafa;"></rect><rect x="189.6385" y="203.4083" width="4.4028" height="9.0837" style="fill:#fafafa;"></rect><rect x="163.2216" y="218.6443" width="4.4028" height="9.0836" style="fill:#fafafa;"></rect><rect x="172.0272" y="218.6443" width="4.4028" height="9.0836" style="fill:#fafafa;"></rect><rect x="180.8328" y="218.6443" width="4.4028" height="9.0836" style="fill:#fafafa;"></rect><rect x="189.6385" y="218.6443" width="4.4028" height="9.0836" style="fill:#fafafa;"></rect><rect x="163.2216" y="233.8688" width="4.4028" height="9.0836" style="fill:#fafafa;"></rect><rect x="172.0272" y="233.8688" width="4.4028" height="9.0836" style="fill:#fafafa;"></rect><rect x="180.8328" y="233.8688" width="4.4028" height="9.0836" style="fill:#fafafa;"></rect><rect x="189.6385" y="233.8688" width="4.4028" height="9.0836" style="fill:#fafafa;"></rect><rect x="163.2216" y="249.0932" width="4.4028" height="9.0837" style="fill:#fafafa;"></rect><rect x="172.0272" y="249.0932" width="4.4028" height="9.0837" style="fill:#fafafa;"></rect><rect x="180.8328" y="249.0932" width="4.4028" height="9.0837" style="fill:#fafafa;"></rect><rect x="189.6385" y="249.0932" width="4.4028" height="9.0837" style="fill:#fafafa;"></rect><rect x="163.2216" y="264.3176" width="4.4028" height="9.0836" style="fill:#fafafa;"></rect><rect x="172.0272" y="264.3176" width="4.4028" height="9.0836" style="fill:#fafafa;"></rect><rect x="180.8328" y="264.3176" width="4.4028" height="9.0836" style="fill:#fafafa;"></rect><rect x="189.6385" y="264.3176" width="4.4028" height="9.0836" style="fill:#fafafa;"></rect><rect x="163.2216" y="279.542" width="4.4028" height="9.0836" style="fill:#fafafa;"></rect><rect x="172.0272" y="279.542" width="4.4028" height="9.0836" style="fill:#fafafa;"></rect><rect x="180.8328" y="279.542" width="4.4028" height="9.0836" style="fill:#fafafa;"></rect><rect x="189.6385" y="279.542" width="4.4028" height="9.0836" style="fill:#fafafa;"></rect><rect x="163.2216" y="294.7665" width="4.4028" height="9.0836" style="fill:#fafafa;"></rect><rect x="172.0272" y="294.7665" width="4.4028" height="9.0836" style="fill:#fafafa;"></rect><rect x="180.8328" y="294.7665" width="4.4028" height="9.0836" style="fill:#fafafa;"></rect><rect x="189.6385" y="294.7665" width="4.4028" height="9.0836" style="fill:#fafafa;"></rect><rect x="163.2216" y="310.0024" width="4.4028" height="9.0837" style="fill:#fafafa;"></rect><rect x="172.0272" y="310.0024" width="4.4028" height="9.0837" style="fill:#fafafa;"></rect><rect x="180.8328" y="310.0024" width="4.4028" height="9.0837" style="fill:#fafafa;"></rect><rect x="189.6385" y="310.0024" width="4.4028" height="9.0837" style="fill:#fafafa;"></rect><path d="M323.00849,334.4548V178.6483h-75.311v155.8592s74.734,.0231,75.311-.0527Z" style="fill:#f5f5f5;"></path><rect x="253.35149" y="184.8586" width="9.1301" height="10.4625" style="fill:#e6e6e6;"></rect><rect x="271.62319" y="184.8586" width="9.13" height="10.4625" style="fill:#e6e6e6;"></rect><rect x="289.88329" y="184.8586" width="9.13" height="10.4625" style="fill:#e6e6e6;"></rect><rect x="308.15479" y="184.8586" width="9.1301" height="10.4625" style="fill:#e6e6e6;"></rect><rect x="253.35149" y="202.4118" width="9.1301" height="10.4625" style="fill:#e6e6e6;"></rect><rect x="271.62319" y="202.4118" width="9.13" height="10.4625" style="fill:#e6e6e6;"></rect><rect x="289.88329" y="202.4118" width="9.13" height="10.4625" style="fill:#e6e6e6;"></rect><rect x="308.15479" y="202.4118" width="9.1301" height="10.4625" style="fill:#e6e6e6;"></rect><rect x="253.35149" y="219.9535" width="9.1301" height="10.4625" style="fill:#e6e6e6;"></rect><rect x="271.62319" y="219.9535" width="9.13" height="10.4625" style="fill:#e6e6e6;"></rect><rect x="289.88329" y="219.9535" width="9.13" height="10.4625" style="fill:#e6e6e6;"></rect><rect x="308.15479" y="219.9535" width="9.1301" height="10.4625" style="fill:#e6e6e6;"></rect><rect x="253.35149" y="237.4952" width="9.1301" height="10.4625" style="fill:#e6e6e6;"></rect><rect x="271.62319" y="237.4952" width="9.13" height="10.4625" style="fill:#e6e6e6;"></rect><rect x="289.88329" y="237.4952" width="9.13" height="10.4625" style="fill:#e6e6e6;"></rect><rect x="308.15479" y="237.4952" width="9.1301" height="10.4625" style="fill:#e6e6e6;"></rect><rect x="253.35149" y="255.0485" width="9.1301" height="10.4624" style="fill:#e6e6e6;"></rect><rect x="271.62319" y="255.0485" width="9.13" height="10.4624" style="fill:#e6e6e6;"></rect><rect x="289.88329" y="255.0485" width="9.13" height="10.4624" style="fill:#e6e6e6;"></rect><rect x="308.15479" y="255.0485" width="9.1301" height="10.4624" style="fill:#e6e6e6;"></rect><rect x="253.35149" y="272.5902" width="9.1301" height="10.4624" style="fill:#e6e6e6;"></rect><rect x="271.62319" y="272.5902" width="9.13" height="10.4624" style="fill:#e6e6e6;"></rect><rect x="289.88329" y="272.5902" width="9.13" height="10.4624" style="fill:#e6e6e6;"></rect><rect x="308.15479" y="272.5902" width="9.1301" height="10.4624" style="fill:#e6e6e6;"></rect><rect x="253.35149" y="290.1435" width="9.1301" height="10.4625" style="fill:#e6e6e6;"></rect><rect x="271.62319" y="290.1435" width="9.13" height="10.4625" style="fill:#e6e6e6;"></rect><rect x="289.88329" y="290.1435" width="9.13" height="10.4625" style="fill:#e6e6e6;"></rect><rect x="308.15479" y="290.1435" width="9.1301" height="10.4625" style="fill:#e6e6e6;"></rect><rect x="253.35149" y="307.6851" width="9.1301" height="10.4625" style="fill:#e6e6e6;"></rect><rect x="271.62319" y="307.6851" width="9.13" height="10.4625" style="fill:#e6e6e6;"></rect><rect x="289.88329" y="307.6851" width="9.13" height="10.4625" style="fill:#e6e6e6;"></rect><rect x="308.15479" y="307.6851" width="9.1301" height="10.4625" style="fill:#e6e6e6;"></rect><rect x="121.8445" y="176.9973" width="8.4133" height="9.6411" style="fill:#fafafa;"></rect><rect x="121.8445" y="193.1621" width="8.4133" height="9.6411" style="fill:#fafafa;"></rect><rect x="121.8445" y="209.3375" width="8.4133" height="9.6411" style="fill:#fafafa;"></rect><rect x="121.8445" y="225.5023" width="8.4133" height="9.6411" style="fill:#fafafa;"></rect><rect x="121.8445" y="241.667" width="8.4133" height="9.6412" style="fill:#fafafa;"></rect><rect x="121.8445" y="257.8425" width="8.4133" height="9.6412" style="fill:#fafafa;"></rect><rect x="121.8445" y="274.0072" width="8.4133" height="9.6412" style="fill:#fafafa;"></rect><rect x="121.8445" y="290.1827" width="8.4133" height="9.6412" style="fill:#fafafa;"></rect><rect x="133.0978" y="176.9973" width="8.4135" height="9.6411" style="fill:#fafafa;"></rect><rect x="133.0978" y="193.1621" width="8.4135" height="9.6411" style="fill:#fafafa;"></rect><rect x="133.0978" y="209.3375" width="8.4135" height="9.6411" style="fill:#fafafa;"></rect><rect x="133.0978" y="225.5023" width="8.4135" height="9.6411" style="fill:#fafafa;"></rect><rect x="133.0978" y="241.667" width="8.4135" height="9.6412" style="fill:#fafafa;"></rect><rect x="133.0978" y="257.8425" width="8.4135" height="9.6412" style="fill:#fafafa;"></rect><rect x="133.0978" y="274.0072" width="8.4135" height="9.6412" style="fill:#fafafa;"></rect><rect x="133.0978" y="290.1827" width="8.4135" height="9.6412" style="fill:#fafafa;"></rect><rect x="227.98909" y="103.7097" width="9.13" height="10.4624" style="fill:#fafafa;"></rect><rect x="227.98909" y="121.2514" width="9.13" height="10.4624" style="fill:#fafafa;"></rect><rect x="227.98909" y="137.598" width="9.13" height="10.4625" style="fill:#fafafa;"></rect><rect x="227.98909" y="155.1397" width="9.13" height="10.4624" style="fill:#fafafa;"></rect><rect x="227.98909" y="172.6813" width="9.13" height="10.4625" style="fill:#fafafa;"></rect><rect x="227.98909" y="190.2346" width="9.13" height="10.4625" style="fill:#fafafa;"></rect><rect x="227.98909" y="207.7764" width="9.13" height="10.4624" style="fill:#fafafa;"></rect><rect x="227.98909" y="225.3296" width="9.13" height="10.4624" style="fill:#fafafa;"></rect><rect x="365.13639" y="88.4952" width="9.1301" height="10.4624" style="fill:#fafafa;"></rect><rect x="365.13639" y="106.0369" width="9.1301" height="10.4625" style="fill:#fafafa;"></rect><rect x="365.13639" y="123.5901" width="9.1301" height="10.4625" style="fill:#fafafa;"></rect><rect x="365.13639" y="141.1318" width="9.1301" height="10.4625" style="fill:#fafafa;"></rect><rect x="365.13639" y="158.685" width="9.1301" height="10.4625" style="fill:#fafafa;"></rect><rect x="365.13639" y="176.2268" width="9.1301" height="10.4624" style="fill:#fafafa;"></rect><rect x="365.13639" y="193.7801" width="9.1301" height="10.4624" style="fill:#fafafa;"></rect><rect x="365.13639" y="211.3218" width="9.1301" height="10.4623" style="fill:#fafafa;"></rect><rect x="384.69419" y="169.1012" width="54.9887" height="165.4294" style="fill:#e6e6e6;"></rect><rect x="392.82769" y="177.258" width="16.1166" height="10.4624" style="fill:#fafafa;"></rect><rect x="392.82769" y="194.8113" width="16.1166" height="10.4624" style="fill:#fafafa;"></rect><rect x="392.82769" y="212.3529" width="16.1166" height="10.4624" style="fill:#fafafa;"></rect><rect x="392.82769" y="229.9062" width="16.1166" height="10.4625" style="fill:#fafafa;"></rect><rect x="392.82769" y="247.4479" width="16.1166" height="10.4625" style="fill:#fafafa;"></rect><rect x="392.82769" y="264.9896" width="16.1166" height="10.4625" style="fill:#fafafa;"></rect><rect x="392.82769" y="282.5428" width="16.1166" height="10.4625" style="fill:#fafafa;"></rect><rect x="392.82769" y="300.0846" width="16.1166" height="10.4624" style="fill:#fafafa;"></rect><rect x="414.38989" y="177.258" width="16.1166" height="10.4624" style="fill:#fafafa;"></rect><rect x="414.38989" y="194.8113" width="16.1166" height="10.4624" style="fill:#fafafa;"></rect><rect x="414.38989" y="212.3529" width="16.1166" height="10.4624" style="fill:#fafafa;"></rect><rect x="414.38989" y="229.9062" width="16.1166" height="10.4625" style="fill:#fafafa;"></rect><rect x="414.38989" y="247.4479" width="16.1166" height="10.4625" style="fill:#fafafa;"></rect><rect x="414.38989" y="264.9896" width="16.1166" height="10.4625" style="fill:#fafafa;"></rect><rect x="414.38989" y="282.5428" width="16.1166" height="10.4625" style="fill:#fafafa;"></rect><rect x="414.38989" y="300.0846" width="16.1166" height="10.4624" style="fill:#fafafa;"></rect><path d="M354.70869,334.4702v-114.5167h-23.98369v114.505l23.98369,.0117Z" style="fill:#e0e0e0;"></path><rect x="332.54409" y="224.5881" width="2.9082" height="7.7976" style="fill:#fafafa;"></rect><rect x="338.36039" y="224.5881" width="2.9081" height="7.7976" style="fill:#fafafa;"></rect><rect x="344.16519" y="224.5881" width="2.9081" height="7.7976" style="fill:#fafafa;"></rect><rect x="349.98149" y="224.5881" width="2.9082" height="7.7976" style="fill:#fafafa;"></rect><rect x="332.54409" y="237.669" width="2.9082" height="7.7976" style="fill:#fafafa;"></rect><rect x="338.36039" y="237.669" width="2.9081" height="7.7976" style="fill:#fafafa;"></rect><rect x="344.16519" y="237.669" width="2.9081" height="7.7976" style="fill:#fafafa;"></rect><rect x="349.98149" y="237.669" width="2.9082" height="7.7976" style="fill:#fafafa;"></rect><rect x="332.54409" y="250.75" width="2.9082" height="7.7976" style="fill:#fafafa;"></rect><rect x="338.36039" y="250.75" width="2.9081" height="7.7976" style="fill:#fafafa;"></rect><rect x="344.16519" y="250.75" width="2.9081" height="7.7976" style="fill:#fafafa;"></rect><rect x="349.98149" y="250.75" width="2.9082" height="7.7976" style="fill:#fafafa;"></rect><rect x="332.54409" y="263.8309" width="2.9082" height="7.7976" style="fill:#fafafa;"></rect><rect x="338.36039" y="263.8309" width="2.9081" height="7.7976" style="fill:#fafafa;"></rect><rect x="344.16519" y="263.8309" width="2.9081" height="7.7976" style="fill:#fafafa;"></rect><rect x="349.98149" y="263.8309" width="2.9082" height="7.7976" style="fill:#fafafa;"></rect><rect x="332.54409" y="276.9235" width="2.9082" height="7.7976" style="fill:#fafafa;"></rect><rect x="338.36039" y="276.9235" width="2.9081" height="7.7976" style="fill:#fafafa;"></rect><rect x="344.16519" y="276.9235" width="2.9081" height="7.7976" style="fill:#fafafa;"></rect><rect x="349.98149" y="276.9235" width="2.9082" height="7.7976" style="fill:#fafafa;"></rect><rect x="332.54409" y="290.0045" width="2.9082" height="7.7976" style="fill:#fafafa;"></rect><rect x="338.36039" y="290.0045" width="2.9081" height="7.7976" style="fill:#fafafa;"></rect><rect x="344.16519" y="290.0045" width="2.9081" height="7.7976" style="fill:#fafafa;"></rect><rect x="349.98149" y="290.0045" width="2.9082" height="7.7976" style="fill:#fafafa;"></rect><rect x="332.54409" y="303.0855" width="2.9082" height="7.7976" style="fill:#fafafa;"></rect><rect x="338.36039" y="303.0855" width="2.9081" height="7.7976" style="fill:#fafafa;"></rect><rect x="344.16519" y="303.0855" width="2.9081" height="7.7976" style="fill:#fafafa;"></rect><rect x="349.98149" y="303.0855" width="2.9082" height="7.7976" style="fill:#fafafa;"></rect><rect x="332.54409" y="316.1663" width="2.9082" height="7.7977" style="fill:#fafafa;"></rect><rect x="338.36039" y="316.1663" width="2.9081" height="7.7977" style="fill:#fafafa;"></rect><rect x="344.16519" y="316.1663" width="2.9081" height="7.7977" style="fill:#fafafa;"></rect><rect x="349.98149" y="316.1663" width="2.9082" height="7.7977" style="fill:#fafafa;"></rect><rect x="59.6167" y="245.5478" width="7.7744" height="6.5462" style="fill:#e6e6e6;"></rect><rect x="75.1656" y="245.5478" width="7.7744" height="6.5462" style="fill:#e6e6e6;"></rect><rect x="90.7029" y="245.5478" width="7.7743" height="6.5462" style="fill:#e6e6e6;"></rect><rect x="106.2516" y="245.5478" width="7.7745" height="6.5462" style="fill:#e6e6e6;"></rect><rect x="59.6167" y="256.52" width="7.7744" height="6.5462" style="fill:#e6e6e6;"></rect><rect x="75.1656" y="256.52" width="7.7744" height="6.5462" style="fill:#e6e6e6;"></rect><rect x="90.7029" y="256.52" width="7.7743" height="6.5462" style="fill:#e6e6e6;"></rect><rect x="106.2516" y="256.52" width="7.7745" height="6.5462" style="fill:#e6e6e6;"></rect><rect x="59.6167" y="267.4923" width="7.7744" height="6.5462" style="fill:#e6e6e6;"></rect><rect x="75.1656" y="267.4923" width="7.7744" height="6.5462" style="fill:#e6e6e6;"></rect><rect x="90.7029" y="267.4923" width="7.7743" height="6.5462" style="fill:#e6e6e6;"></rect><rect x="106.2516" y="267.4923" width="7.7745" height="6.5462" style="fill:#e6e6e6;"></rect><rect x="59.6167" y="278.4645" width="7.7744" height="6.5462" style="fill:#e6e6e6;"></rect><rect x="75.1656" y="278.4645" width="7.7744" height="6.5462" style="fill:#e6e6e6;"></rect><rect x="90.7029" y="278.4645" width="7.7743" height="6.5462" style="fill:#e6e6e6;"></rect><rect x="106.2516" y="278.4645" width="7.7745" height="6.5462" style="fill:#e6e6e6;"></rect><rect x="59.6167" y="289.4251" width="7.7744" height="6.5463" style="fill:#e6e6e6;"></rect><rect x="75.1656" y="289.4251" width="7.7744" height="6.5463" style="fill:#e6e6e6;"></rect><rect x="90.7029" y="289.4251" width="7.7743" height="6.5463" style="fill:#e6e6e6;"></rect><rect x="106.2516" y="289.4251" width="7.7745" height="6.5463" style="fill:#e6e6e6;"></rect><rect x="59.6167" y="300.3974" width="7.7744" height="6.5462" style="fill:#e6e6e6;"></rect><rect x="75.1656" y="300.3974" width="7.7744" height="6.5462" style="fill:#e6e6e6;"></rect><rect x="90.7029" y="300.3974" width="7.7743" height="6.5462" style="fill:#e6e6e6;"></rect><rect x="106.2516" y="300.3974" width="7.7745" height="6.5462" style="fill:#e6e6e6;"></rect><rect x="59.6167" y="311.3697" width="7.7744" height="6.5462" style="fill:#e6e6e6;"></rect><rect x="75.1656" y="311.3697" width="7.7744" height="6.5462" style="fill:#e6e6e6;"></rect><rect x="90.7029" y="311.3697" width="7.7743" height="6.5462" style="fill:#e6e6e6;"></rect><rect x="106.2516" y="311.3697" width="7.7745" height="6.5462" style="fill:#e6e6e6;"></rect></g><path d="M38.1635,108.6633c0-4.3303,3.5057-7.8433,7.8361-7.8523,.7641,.005,1.5236,.1198,2.2552,.3408-.1256-.7942-.1854-1.5972-.1787-2.4012,0-9.1661,7.4308-16.5967,16.597-16.5967,1.0228,.001,2.0436,.0932,3.05,.2757,4.1586-6.8462,13.0799-9.0251,19.9261-4.8663,4.2705,2.5939,6.905,7.2034,6.9728,12.1994h.2433c7.3832,0,13.3683,5.9852,13.3683,13.3684s-5.9851,13.3683-13.3683,13.3683H45.7562c-4.236-.1231-7.6033-3.5982-7.5927-7.8361Z" style="fill:#f5f5f5;"></path><path d="M278.69379,75.1654c0-4.3303,3.5057-7.8433,7.836-7.8524,.76421,.0051,1.5236,.1198,2.2553,.3409-.1256-.7942-.1854-1.5972-.1787-2.4013,0-9.1661,7.4308-16.5967,16.597-16.5967,1.0228,.001,2.0435,.0933,3.0499,.2757,4.15871-6.8462,13.08-9.025,19.9262-4.8663,4.2704,2.5939,6.905,7.2034,6.9728,12.1994h.2433c7.3832,0,13.3683,5.9852,13.3683,13.3684s-5.9851,13.3683-13.3683,13.3683h-49.1091c-4.2361-.1231-7.6033-3.5982-7.5927-7.836Z" style="fill:#f5f5f5;"></path><path d="M170.9606,76.0168c0-1.7619,1.4284-3.1903,3.1904-3.1903,.3094-.002,.6175,.041,.9145,.1276-.0427-.3244-.064-.6511-.0638-.9783,0-3.7354,3.0281-6.7635,6.7635-6.7635,.4174,.0011,.8339,.0402,1.2442,.117,1.6857-2.79,5.3138-3.6853,8.1038-1.9996,1.7495,1.057,2.8276,2.9439,2.8496,4.9878h.1064c3.0071,.0019,5.4433,2.4412,5.4414,5.4483-.0019,3.0044-2.4369,5.4395-5.4414,5.4414h-20.0033c-1.7287-.0462-3.1059-1.4611-3.1053-3.1904Z" style="fill:#f5f5f5;"></path><path d="M265.63949,130.012c0-2.1868,1.7729-3.9597,3.9599-3.9597,.384-.0026,.7664,.0508,1.135,.1584-.053-.4027-.07939-.8082-.0792-1.2144,0-4.6363,3.7585-8.3946,8.39481-8.3947,.51809,.0013,1.035,.0499,1.54429,.1452,2.0922-3.4629,6.5954-4.5741,10.0583-2.4819,2.17141,1.312,3.5095,3.654,3.5369,6.1908h.132c3.7324,.0024,6.7561,3.03,6.7539,6.7624-.00239,3.729-3.0248,6.7514-6.7539,6.7537h-24.8277c-2.1456-.0573-3.855-1.8134-3.8543-3.9598Z" style="fill:#f5f5f5;"></path><path d="M142.1496,128.1094c0-2.8725,2.3288-5.2013,5.2015-5.2013,.5044-.0034,1.0067,.0668,1.491,.208-.0698-.5289-.1044-1.0617-.1041-1.5951,0-6.09,4.9369-11.0268,11.027-11.027,.6805,.0018,1.3595,.0657,2.0285,.1909,2.7483-4.5487,8.6633-6.0083,13.2121-3.2601,2.8523,1.7233,4.6099,4.7997,4.6459,8.1319h.1734c4.9027,.0032,8.8745,3.9799,8.8715,8.8827-.0031,4.8982-3.9731,8.8684-8.8715,8.8713h-32.6125c-2.8184-.0751-5.0638-2.3819-5.0628-5.2013Z" style="fill:#e6e6e6;"></path><path d="M430.45239,99.7394c0-2.0475,1.66-3.7076,3.7077-3.7076,.3596-.0024,.7176,.0476,1.0628,.1483-.0497-.377-.0744-.7568-.0742-1.137,0-4.3411,3.5191-7.8602,7.86031-7.8603,.48509,.0013,.96909,.0468,1.44589,.1361,1.95911-3.2424,6.1754-4.2829,9.4179-2.3239,2.0331,1.2284,3.286,3.4214,3.3117,5.7966h.1236c3.4947,.0023,6.32591,2.837,6.3237,6.3318-.0021,3.4915-2.8321,6.3216-6.3237,6.3236h-23.2469c-2.009-.0535-3.6095-1.6979-3.6088-3.7076Z" style="fill:#e6e6e6;"></path><path d="M16.2157,461.7458c-1.4483,1.2825,64.4243-103.0475,64.4243-103.0475h12.692l-54.7968,103.0593-22.3195-.0118Z" style="fill:#e6e6e6;"></path><path d="M488.07909,461.7458c1.4483,1.2825-64.4243-103.0475-64.4243-103.0475h-12.692l54.7968,103.0593,22.3195-.0118Z" style="fill:#e6e6e6;"></path></g><g id="freepik--Shadow--inject-12"><path d="M421.30179,428.8986c0,30.6571-75.7541,55.5099-169.2015,55.5099s-169.20149-24.8528-169.20149-55.5099,75.7541-55.5107,169.20149-55.5107,169.2015,24.8528,169.2015,55.5107Z" style="fill:#f5f5f5;"></path></g><g id="freepik--Character--inject-12"><g><rect x="81.5782" y="353.9831" width="52.1907" height="107.1841" rx="10.6155" ry="10.6155" style="fill:#263238;"></rect><rect x="374.762" y="353.9831" width="54.24959" height="107.1841" rx="10.6155" ry="10.6155" transform="translate(803.77359 815.1503) rotate(180)" style="fill:#263238;"></rect><g><path d="M98.238,297.975c-.9845,.1988-5.6779,5.4502-9.4716,9.8563-3.3323,3.8703-5.1803,8.8677-5.1992,14.0616-.0636,17.4387,.3866,55.789,1.5415,62.3918,1.4194,8.1146,8.8712,36.5156,10.6454,37.991s13.839,1.8442,13.839,1.8442c0,0,1.7742-96.2685,0-96.6373-1.7742-.3689-11.3551-29.5076-11.3551-29.5076Z" style="fill:#0077FF;"></path><path d="M98.238,297.975c-.9845,.1988-5.6779,5.4502-9.4716,9.8563-3.3323,3.8703-5.1803,8.8677-5.1992,14.0616-.0636,17.4387,.3866,55.789,1.5415,62.3918,1.4194,8.1146,8.8712,36.5156,10.6454,37.991s13.839,1.8442,13.839,1.8442c0,0,1.7742-96.2685,0-96.6373-1.7742-.3689-11.3551-29.5076-11.3551-29.5076Z" style="opacity:.3;"></path></g><g><path d="M411.59569,297.975c1.02331,.1988,5.9019,5.4502,9.8452,9.8563,3.4638,3.8703,5.3847,8.8677,5.4044,14.0616,.066,17.4387-.4018,55.789-1.6024,62.3918-1.4753,8.1146-9.2211,36.5156-11.0653,37.991s-14.3849,1.8442-14.3849,1.8442c0,0-1.8443-96.2685,0-96.6373,1.8442-.3689,11.803-29.5076,11.803-29.5076Z" style="fill:#0077FF;"></path><path d="M411.59569,297.975c1.02331,.1988,5.9019,5.4502,9.8452,9.8563,3.4638,3.8703,5.3847,8.8677,5.4044,14.0616,.066,17.4387-.4018,55.789-1.6024,62.3918-1.4753,8.1146-9.2211,36.5156-11.0653,37.991s-14.3849,1.8442-14.3849,1.8442c0,0-1.8443-96.2685,0-96.6373,1.8442-.3689,11.803-29.5076,11.803-29.5076Z" style="opacity:.3;"></path></g><path d="M412.76779,386.2467s2.6474-77.5357,.2951-92.2062c-2.0077-12.5214-37.1441-82.4877-47.3951-102.7174-3.278-6.4687-8.03079-12.0463-13.9801-15.9466-4.166-2.7312-9.3012-4.9715-15.069-5.1485-8.8244-.2709-63.50469-.0907-81.5539-.0228-18.0492-.0679-72.7296-.2481-81.554,.0228-5.7677,.177-10.903,2.4173-15.069,5.1485-5.9493,3.9003-10.7022,9.4779-13.9801,15.9466-10.251,20.2297-45.3874,90.196-47.3951,102.7174-2.3523,14.6705,.2951,92.2062,.2951,92.2062l-4.1165,10.3916,8.233,29.9523s41.1651,4.2789,48.2219,4.2789,12.9376-7.3353,12.9376-7.3353l86.6461,2.6966v.3598l5.781-.1799,5.7809,.1799v-.3598l86.6461-2.6966s5.8807,7.3353,12.9376,7.3353,48.2219-4.2789,48.2219-4.2789l8.233-29.9523-4.1165-10.3916Z" style="fill:#0077FF;"></path><path d="M401.73129,366.5314c-52.4895,13.1586-125.7658,15.1416-146.6665,15.4406-20.90079-.299-94.1772-2.282-146.6666-15.4406,0,0-6.1805,20.4067,0,32.8775,0,0,91.0831,15.8581,146.6666,14.222,55.5834,1.6361,146.6665-14.222,146.6665-14.222,6.1805-12.4708,0-32.8775,0-32.8775Z" style="opacity:.3;"></path><path d="M140.0333,261.5339l9.9624-23.0977c2.0351-4.7183,6.546-7.7547,11.5206-7.7547h186.4541c4.8053,0,9.194,2.8354,11.3211,7.3142l10.8047,22.7503-230.06289,.7879Z" style="fill:#263238;"></path><path d="M358.06139,195.8164c-4.4566-10.3256-14.385-16.9125-25.2717-16.7607H177.3398c-10.8867-.1518-20.8151,6.4351-25.2717,16.7607l-26.4469,61.2759,123.6626,1.3508v.1262l5.781-.0631,5.7809,.0631v-.1262l123.6626-1.3508-26.4469-61.2759Z" style="fill:#fff; opacity:.5;"></path><path d="M115.5362,292.4845s-11.837,5.9596-14.5496,13.3613c-2.7126,7.4016-2.466,20.9872,0,25.6012,2.466,4.614,18.8291,9.2942,34.2779,11.0223,4.8913,.5471,25.7243,2.1295,27.8662,0,.891-.8859,2.7126-15.6363-2.2194-22.0446-4.9321-6.4083-45.3751-27.9402-45.3751-27.9402Z" style="fill:#fff;"></path><path d="M115.181,251.0926s-5.4365-9.5292-7.3553-10.0832c-1.9188-.5541-20.764,.7662-24.3063,1.1756-1.2401,.1433-5.5414,1.9269-4.9018,6.2482,.6396,4.3214,1.599,11.3021,5.9695,13.4074,4.3706,2.1052,5.9087,1.5512,12.2817,1.7728,6.3731,.2216,15.6472-.3324,16.3934-1.108,.7462-.7756,.8528-1.8837,.8528-1.8837l2.9848,2.1053,3.3046-7.0915-5.2234-4.5429Z" style="fill:#0077FF;"></path><ellipse cx="122.8916" cy="384.66102" rx="7.829" ry="8.13788" style="fill:#a24e3f;"></ellipse><path d="M161.00195,320.39648c-8.09033-6.52734-42.88379-26.07422-43.23438-26.27051-3.87109-2.64746-5.43359-7.53223-3.8374-11.90234,2.7251-7.46191,8.09229-16.74902,8.146-16.8418l.86523,.50195c-.05371,.0918-5.37695,9.30469-8.07178,16.68359-1.43945,3.93945-.03076,8.34375,3.4248,10.70996,.31348,.17285,35.18018,19.76074,43.33545,26.3418l-.62793,.77734Z" style="fill:#263238;"></path><g><path d="M153.0992,258.7225c.1643-.92,3.507-17.7189,5.1269-25.8548,.5062-2.5419,2.5526-4.3523,4.9324-4.3613,11.1828-.0422,42.2741-.1449,53.0036-.0278,2.1471,.0234,3.87591,1.9328,3.87591,4.2798l2.78609,25.9641h-69.7249Z" style="fill:#263238;"></path><rect x="170.3043" y="196.8221" width="41.461" height="27.244" rx="8.8672" ry="8.8672" style="fill:#263238;"></rect></g><g style="opacity:.2;"><path d="M153.0992,258.7225c.1643-.92,3.507-17.7189,5.1269-25.8548,.5062-2.5419,2.5526-4.3523,4.9324-4.3613,11.1828-.0422,42.2741-.1449,53.0036-.0278,2.1471,.0234,3.87591,1.9328,3.87591,4.2798l2.78609,25.9641h-69.7249Z" style="fill:#fff;"></path><rect x="170.3043" y="196.8221" width="41.461" height="27.244" rx="8.8672" ry="8.8672" style="fill:#fff;"></rect></g><path d="M117.8532,263.335l-3.7382-2.7133c-.1238,.564-.3609,1.5915-1.2876,2.0984-.8664,.4739-2.3907,.443-3.454,.5403l-1.4069,3.0849s2.8489-1.0782,4.9231-2.0623c2.074-.9841,1.9022-2.1408,1.9022-2.1408l3.0614,1.1928Z" style="opacity:.3;"></path><path d="M116.6642,247.6868l-1.5412,3.2466c1.1385,1.4077,4.8455,5.6373,4.8455,5.6373l-3.3043-8.8839Z" style="opacity:.3;"></path><path d="M393.71389,292.4845s12.304,5.9596,15.1236,13.3613c2.8197,7.4016,2.5633,20.9872,0,25.6012s-19.5719,9.2942-35.6301,11.0223c-5.0843,.5471-26.7392,2.1295-28.9655,0-.9262-.8859-2.8197-15.6363,2.3069-22.0446,5.1267-6.4083,47.1651-27.9402,47.1651-27.9402Z" style="fill:#fff;"></path><path d="M394.08309,251.0926s5.6511-9.5292,7.6455-10.0832c1.9945-.5541,21.5832,.7662,25.2652,1.1756,1.289,.1433,5.76,1.9269,5.09521,6.2482-.66481,4.3214-1.66211,11.3021-6.205,13.4074-4.543,2.1052-6.14181,1.5512-12.76631,1.7728-6.6245,.2216-16.2645-.3324-17.0401-1.108-.77559-.7756-.8864-1.8837-.8864-1.8837l-3.1025,2.1053-3.435-7.0915,5.4294-4.5429Z" style="fill:#0077FF;"></path><path d="M257.72329,327.9298v-.053s-2.17729,.0382-5.8966,.053c-3.7194-.0148-5.89669-.053-5.89669-.053v.053c-21.35621-.0807-65.9535-1.1021-84.6142-7.9222,0,0,4.9891,16.9472,9.1467,21.7489s8.8695,8.1912,19.6792,9.321c8.9507,.9355,35.3123,1.9262,55.7883,2.5601v.0002l.00939,.0001c4.2493,.1315,8.2509-.091,11.7839,.006,20.7878-.2412,46.7972-1.6267,55.7883-2.5664,10.8097-1.1298,15.5216-4.5193,19.6792-9.321s9.1466-21.7489,9.1466-21.7489c-18.6606,6.8201-63.2579,7.8415-84.6141,7.9222Z" style="opacity:.3;"></path><circle cx="386.06832" cy="384.66102" r="8.13786" transform="translate(-158.91963 385.65613) rotate(-45)" style="fill:#a24e3f;"></circle><path d="M341.60645,320.79395l-.375-.92578c12.5957-5.10742,49.28906-26.39648,49.6582-26.61133,3.52148-2.32031,4.99512-6.88477,3.47949-10.83887-2.8291-7.37598-7.33984-17.14746-7.38574-17.24512l.9082-.41992c.04492,.09863,4.57031,9.89941,7.41113,17.30762,1.68164,4.3877,.04688,9.4541-3.88672,12.04688-.39355,.22949-37.14844,21.55371-49.80957,26.68652Z" style="fill:#263238;"></path><g><path d="M349.26309,256.307c-.1728-.9492-3.6875-18.2824-5.3908-26.677-.5322-2.6228-2.6839-4.4907-5.1862-4.5-11.7583-.0436-44.4497-.1495-55.7315-.0287-2.2575,.0241-4.0752,1.9942-4.0752,4.4159l-2.9295,26.7898h73.3132Z" style="fill:#263238;"></path><path d="M349.26309,256.307c-.1728-.9492-3.6875-18.2824-5.3908-26.677-.5322-2.6228-2.6839-4.4907-5.1862-4.5-11.7583-.0436-44.4497-.1495-55.7315-.0287-2.2575,.0241-4.0752,1.9942-4.0752,4.4159l-2.9295,26.7898h73.3132Z" style="fill:#fff; opacity:.2;"></path></g><rect x="289.83259" y="193.005" width="45.5477" height="29.3696" rx="8.8673" ry="8.8673" transform="translate(625.21288 415.3796) rotate(180)" style="fill:#263238;"></rect><rect x="289.83259" y="193.005" width="45.5477" height="29.3696" rx="8.8673" ry="8.8673" transform="translate(625.21288 415.3796) rotate(180)" style="fill:#fff; opacity:.2;"></rect><path d="M391.30559,263.335l3.8856-2.7133c.1287,.564,.3752,1.5915,1.3384,2.0984,.9006,.4739,2.485,.443,3.5903,.5403l1.4624,3.0849s-2.9614-1.0782-5.11729-2.0623c-2.15591-.9841-1.97731-2.1408-1.97731-2.1408l-3.1821,1.1928Z" style="opacity:.3;"></path><path d="M392.54139,247.6868l1.602,3.2466c-1.18339,1.4077-5.0366,5.6373-5.0366,5.6373l3.4346-8.8839Z" style="opacity:.3;"></path><path d="M256.80139,270.0517c-1.4345,0-124.1925-1.5704-128.4961-.5492-2.7893,.6619-5.465,7.9415-7.0026,12.9826-.8726,2.8609,.2326,5.9645,2.6692,7.5747,10.0539,6.6441,37.6945,23.3009,67.6727,27.9572,37.4374,5.8149,59.6728,1.7143,66.1282-3.8775,6.4555-5.5918,.46321-44.0878-.9714-44.0878Z" style="fill:#fff; opacity:.2;"></path><g><path d="M291.10379,227.8426c.2178,.3268,4.6866,19.9507,4.6866,19.9507l-4.6263,14.9216h-19.3354s11.1091-26.9967,13.2226-30.4845c2.0866-3.4432,6.0525-4.3878,6.0525-4.3878Z" style="fill:#0077FF;"></path><path d="M334.10919,227.8426c-.2179,.3268-4.6866,19.9507-4.6866,19.9507l4.6262,14.9216h19.3355s-11.1091-26.9967-13.2227-30.4845c-2.0865-3.4432-6.0524-4.3878-6.0524-4.3878Z" style="fill:#0077FF;"></path><g><path d="M334.64449,227.8426c-4.3446-.2855-25.8043-3.7648-43.5407,0l.0711,34.8723h46.586l-3.1164-34.8723Z" style="fill:#0077FF;"></path><g><path d="M324.89859,195.787s9.4132-5.3007,3.8259-10.9862c-4.4073-4.4846-8.3059-3.8304-14.2016-2.757-14.4481,2.6307-13.607,8.6511-13.607,8.6511l23.9827,5.0921Z" style="fill:#263238;"></path><g><path d="M306.5,226.1023s.77249-5.5418-2.47191-15.1484c0-.0105,.5024-.2599,.5024-.2705-.4479-1.3437-.91649-2.5832-1.3541-3.6561-.01039-.0313-.01039-.0417-.01039-.0417l13.66639,7.6456c-.1771,3.125,1.2014,9.0883,1.9779,11.5982,0,0,1.8804,4.5251-4.2272,4.9922-4.4627,.3414-8.08309-5.1193-8.08309-5.1193Z" style="fill:#b97964;"></path><path d="M317.25119,218.9958l-7.7346-1.3933c.7988,2.3518,3.0297,5.0834,8.3698,5.0819,0,0-.6476-2.6429-.6352-3.6886Z" style="opacity:.2;"></path></g><g><path d="M302.78169,200.5249c1.2647,8.3981,1.8087,13.1602,6.461,17.0776,6.99831,5.8924,16.8612,1.2197,18.13431-7.4124,1.14569-7.7697-1.11491-20.1982-9.68681-22.7477-8.44519-2.512-16.17319,4.6842-14.9085,13.0825Z" style="fill:#b97964;"></path><path d="M300.81389,190.4663c10.3108-9.9307,20.7988-4.3596,24.8152,1.0843l-17.98909,.2127c-.78621-.0142-1.232,.805-1.06111,2.3024,0,0,6.2368,11.1842-2.3607,17.4607-3.0751-1.1774-3.7005-6.2935-4.9003-9.2666-1.7873-4.4299-4.0444-10.9501,1.496-11.7935Z" style="fill:#263238;"></path><path d="M300.06879,207.8584c.867,2.1146,2.6333,3.6213,4.382,4.3053,2.6304,1.0291,3.3265-1.809,2.8526-4.4483-.4265-2.3756-1.383-5.2307-4.1467-5.1316-2.7231,.0978-4.0792,2.8572-3.0879,5.2746Z" style="fill:#b97964;"></path><path d="M314.126,201.7471c.07629,.8641,.59619,1.5195,1.16149,1.464,.5651-.0554,.9616-.801,.8852-1.6651-.0762-.8642-.5963-1.5197-1.1615-1.4641-.5651,.0554-.9614,.8009-.88519,1.6652Z" style="fill:#263238;"></path><path d="M322.85579,201.4629c.07621,.8642,.59621,1.5196,1.1613,1.4641,.5652-.0555,.9616-.801,.8854-1.6652-.0763-.8641-.5963-1.5196-1.1614-1.464-.5653,.0555-.9617,.801-.8853,1.6651Z" style="fill:#263238;"></path><path d="M320.77339,201.0795s3.1148,4.0518,4.146,5.7226c-1.1068,1.1927-3.2228,.8748-3.2228,.8748l-.9232-6.5974Z" style="fill:#a24e3f;"></path><path d="M312.61139,198.0088c.1352,.0417,.2891,.0118,.4008-.0928,1.32981-1.2401,2.7882-.9084,2.80281-.9051,.218,.0522,.43909-.0816,.49339-.2987,.0542-.2172-.0793-.4358-.2961-.4883-.0768-.0188-1.90429-.4352-3.5538,1.104-.1649,.1535-.1742,.4098-.02149,.5722,.04959,.0528,.10969,.0888,.17439,.1087Z" style="fill:#263238;"></path><path d="M318.72168,211.07373c-1.47754,0-2.63184-.75732-3.57617-1.51807-.16113-.12988-.18652-.36572-.05664-.52734,.13086-.16211,.36621-.18604,.52734-.05664,1.29688,1.04395,2.33789,1.43994,3.45605,1.33545,.21777-.02783,.38867,.13086,.40918,.33691,.02051,.20654-.13086,.38965-.33691,.40918-.14355,.01416-.28516,.02051-.42285,.02051Z" style="fill:#263238;"></path></g><path d="M305.87012,207.79199c-.11621,0-.2207-.08154-.24512-.2002-.13867-.67871-.45312-1.31201-.91016-1.83105-.29492-.33447-.77441-.75391-1.38477-.84814-.54297-.08691-1.09375,.15332-1.32031,.56201-.06738,.12109-.2207,.16406-.33984,.09766-.12109-.06689-.16406-.21924-.09766-.33984,.33008-.59521,1.08496-.92725,1.83398-.81396,.75879,.11719,1.33398,.61523,1.68359,1.01221,.51465,.58398,.86914,1.29688,1.02539,2.06152,.02734,.13525-.05957,.26709-.19531,.29492-.0166,.00342-.0332,.00488-.0498,.00488Z" style="opacity:.2;"></path><path d="M326.99029,197.3375c.0736-.0228,.1416-.0671,.1944-.1316,.1422-.1744,.1185-.4311-.0538-.5732-1.7274-1.4251-3.5067-.8607-3.5897-.8457-.2131,.0689-.3323,.298-.2658,.5121,.0663,.2133,.2912,.3311,.50361,.2649,.07309-.0264,1.44949-.4436,2.83589,.7003,.1084,.0897,.25011,.1122,.3754,.0732Z" style="fill:#263238;"></path><g style="opacity:.2;"><path d="M314.70369,207.3109c-.74469,.8059-1.1425,1.922-1.0755,3.0172,0,0-.501-.8677-.279-1.7846,.222-.917,1.3545-1.2326,1.3545-1.2326Z"></path></g></g><g><polygon points="317.55279 221.6776 322.425 226.0613 314.29059 235.9256 302.53909 226.0175 306.02229 220.8965 313.36789 227.0313 317.55279 221.6776" style="fill:#0077FF;"></polygon><polygon points="317.55279 221.6776 322.425 226.0613 314.29059 235.9256 302.53909 226.0175 306.02229 220.8965 313.36789 227.0313 317.55279 221.6776" style="fill:#fff; opacity:.8;"></polygon></g></g><g><path d="M341.63965,264.48535h-4c0-12.93848-10.52539-23.46436-23.46387-23.46436s-23.46387,10.52588-23.46387,23.46436h-4c0-15.14404,12.32031-27.46436,27.46387-27.46436s27.46387,12.32031,27.46387,27.46436Z" style="fill:#263238;"></path><path d="M294.862,241.514s-3.13981-2.0932-3.61551,.6661c0,0-3.3302,0-3.235,3.0447,0,0-2.6642,.3805-1.5224,3.4252,0,0-2.0932,.5709-.666,3.235,1.4272,2.6642,4.1864,5.2331,5.6136,4.9477,1.4272-.2855,1.4272-2.1884,1.4272-2.1884,0,0,3.8059,1.0466,3.0447-2.0932,0,0,1.1418,.9514,1.903-.5709,.7612-1.5224,0-2.2835,0-2.2835,0,0,.9515,.9739,1.6175-.8927s-2.9496-5.9579-4.56709-7.29Z" style="fill:#b97964;"></path><path d="M330.27709,239.7817s3.1398-2.0932,3.6156,.666c0,0,3.3301,0,3.235,3.0447,0,0,2.6641,.3806,1.52231,3.4253,0,0,2.09319,.5709,.666,3.235-1.42721,2.6641-4.18641,5.2331-5.61361,4.9476-1.4272-.2854-1.4272-2.1883-1.4272-2.1883,0,0-3.8059,1.0466-3.0447-2.0933,0,0-1.1418,.9515-1.903-.5708-.7611-1.5224,0-2.2836,0-2.2836,0,0-.9514,.974-1.61749-.8926-.666-1.8666,2.94959-5.9579,4.56709-7.29Z" style="fill:#b97964;"></path></g></g><polygon points="384.55909 256.6873 249.45859 257.6123 125.9066 256.5725 121.7157 266.2488 249.45859 266.4952 388.74879 266.2488 384.55909 256.6873" style="fill:#263238;"></polygon><path d="M238.51019,327.7821l1.7835,9.2132c11.7326,1.9628,23.2722,2.0949,34.5769,0l1.529-9.2132c-11.1577,.3693-24.0204,.1081-37.8894,0Z" style="fill:#263238;"></path><g><path d="M265.48109,188.7638c-.195-1.3624-.3805-2.8271-.5807-3.8745-.1602-.8384-.898-1.4386-1.7515-1.4386h-24.279c-.8536,0-1.5914,.6002-1.7516,1.4386-.2002,1.0474-.3857,2.5121-.5806,3.8746-.2792,1.9505,1.22631,3.6978,3.1967,3.6978h22.5499c1.9705,0,3.476-1.7474,3.1968-3.6979Z" style="fill:#263238;"></path><rect x="249.447" y="179.0557" width="3.12479" height="5.4797" style="fill:#263238;"></rect></g><path d="M141.0241,221.6036c-.0197,.0456,99.0467-42.5504,99.0467-42.5504h27.39921l-133.9295,59.8894,7.4836-17.339Z" style="fill:#fff; opacity:.3;"></path><polygon points="129.6807 247.6868 293.86139 179.0532 332.78969 179.0532 148.0738 256.906 125.8463 256.5707 129.6807 247.6868" style="fill:#fff; opacity:.3;"></polygon></g></g></svg>
