<svg xmlns="http://www.w3.org/2000/svg" viewBox="0 0 750 500"><g id="freepik--background-complete--inject-1"><g><g><g><g><path d="M673.73379,360.8674h-180.7461c-3.2324,0-5.8623-2.6298-5.8623-5.8623V91.7317c0-3.2324,2.6299-5.8618,5.8623-5.8618h180.7461c3.2323,0,5.86221,2.6294,5.86221,5.8618V355.0051c0,3.2325-2.62991,5.8623-5.86221,5.8623ZM492.98769,86.1199c-3.09469,0-5.6123,2.5176-5.6123,5.6118V355.0051c0,3.0948,2.51761,5.6123,5.6123,5.6123h180.7461c3.0946,0,5.61221-2.5175,5.61221-5.6123V91.7317c0-3.0942-2.51761-5.6118-5.61221-5.6118h-180.7461Z" style="fill:#e0e0e0;"></path><path d="M465.30609,360.8674h-180.7466c-3.2324,0-5.8618-2.6298-5.8618-5.8623V91.7317c0-3.2324,2.6294-5.8618,5.8618-5.8618h180.7466c3.2324,0,5.8623,2.6294,5.8623,5.8618V355.0051c0,3.2325-2.6299,5.8623-5.8623,5.8623ZM284.5595,86.1199c-3.0942,0-5.6118,2.5176-5.6118,5.6118V355.0051c0,3.0948,2.5176,5.6123,5.6118,5.6123h180.7466c3.0947,0,5.6123-2.5175,5.6123-5.6123V91.7317c0-3.0942-2.5176-5.6118-5.6123-5.6118h-180.7466Z" style="fill:#e0e0e0;"></path></g><path d="M257.0123,360.8674H76.2658c-3.2324,0-5.8618-2.6298-5.8618-5.8623V91.7317c0-3.2324,2.6294-5.8618,5.8618-5.8618h180.7465c3.2324,0,5.8623,2.6294,5.8623,5.8618V355.0051c0,3.2325-2.6299,5.8623-5.8623,5.8623ZM76.2658,86.1199c-3.0942,0-5.6118,2.5176-5.6118,5.6118V355.0051c0,3.0948,2.5176,5.6123,5.6118,5.6123h180.7465c3.0948,0,5.6123-2.5175,5.6123-5.6123V91.7317c0-3.0942-2.5175-5.6118-5.6123-5.6118H76.2658Z" style="fill:#e0e0e0;"></path></g><rect y="421.9368" width="750" height=".1204" style="fill:#e0e0e0;"></rect></g><g><rect x="653.62639" y="451.3129" width="55.7291" height=".4206" style="fill:#ebebeb;"></rect><rect x="495.04359" y="455.8786" width="14.6268" height=".4206" style="fill:#ebebeb;"></rect><rect x="40.6445" y="438.5156" width="72.6745" height=".4207" style="fill:#ebebeb;"></rect><rect x="128.2991" y="438.5156" width="10.6555" height=".4207" style="fill:#ebebeb;"></rect><rect x="173.5856" y="445.6197" width="157.61289" height=".4206" style="fill:#ebebeb;"></rect></g></g><path d="M510.68209,99.1069c-2.3888-1.8047-5.87409-2.0092-8.4575-.496-3.4291-6.9294-12.985-9.9875-19.8-6.3366-1.7779-7.4668-9.1349-13.2063-16.81-13.1141-7.6752,.0924-14.892,6.0071-16.4897,13.5148-.2538,1.1931-.42189,2.5001-1.2753,3.3716-1.3863,1.4161-3.7008,.9407-5.6764,.7867-6.2159-.4849-12.4703,3.8791-14.1607,9.88l85.599-.3114c.7497-2.8984-.5408-5.4902-2.9294-7.295Z" style="fill:#e0e0e0;"></path><path d="M716.02689,196.8873c-2.3888-1.8047-5.8741-2.0092-8.4575-.496-3.4291-6.9294-12.985-9.9875-19.8-6.3366-1.7779-7.4668-9.1349-13.2063-16.81-13.1141-7.6752,.0924-14.892,6.0071-16.4897,13.5148-.2538,1.1931-.4219,2.5001-1.2753,3.3716-1.3863,1.4161-3.7008,.9407-5.67639,.7867-6.21591-.4849-12.47031,3.8791-14.16071,9.88l85.599-.3114c.74972-2.8984-.5408-5.4902-2.9294-7.295Z" style="fill:#f5f5f5;"></path><g id="freepik--freepik--background-complete--inject-481--inject-1"><polygon points="655.36409 248.0907 654.17889 183.1825 617.79649 183.1825 617.79649 197.9848 591.00939 197.9848 591.00939 35.8442 539.50289 35.8442 539.50289 99.6615 524.04929 99.6615 524.04929 67.7936 483.86019 67.7936 483.86019 223.2087 427.19169 223.2087 427.19169 168.2989 391.65989 168.2989 391.65989 49.2462 347.80679 49.2462 347.80679 128.6147 306.5918 128.6147 306.5918 299.5973 274.6588 299.5973 274.6588 216.3368 241.6836 216.3368 241.6836 162.7622 206.6565 162.7622 206.6565 121.6286 167.5748 142.2444 167.5748 252.292 126.35976 252.292 126.35976 229.5921 71.3035 229.5921 71.3035 389.0945 712.14649 389.4038 712.14649 248.0907 655.36409 248.0907" style="fill:#ebebeb;"></polygon><path d="M244.3704,389.1788V151.8683h-43.7878v237.5355c13.8578-.3419,43.7878-.225,43.7878-.225Z" style="fill:#e6e6e6;"></path><path d="M204.4909,389.4038v-130.5165H114.3749v130.228l90.116,.2885Z" style="fill:#fafafa;"></path><path d="M313.9849,389.2117V197.6102h-51.0505v191.5768l51.0505,.0247Z" style="fill:#e0e0e0;"></path><rect x="266.8099" y="205.1172" width="6.188" height="12.7667" style="fill:#fafafa;"></rect><rect x="279.1858" y="205.1172" width="6.1879" height="12.7667" style="fill:#fafafa;"></rect><rect x="291.5617" y="205.1172" width="6.1879" height="12.7667" style="fill:#fafafa;"></rect><rect x="303.9377" y="205.1172" width="6.188" height="12.7667" style="fill:#fafafa;"></rect><rect x="266.8099" y="226.5307" width="6.188" height="12.7666" style="fill:#fafafa;"></rect><rect x="279.1858" y="226.5307" width="6.1879" height="12.7666" style="fill:#fafafa;"></rect><rect x="291.5617" y="226.5307" width="6.1879" height="12.7666" style="fill:#fafafa;"></rect><rect x="303.9377" y="226.5307" width="6.188" height="12.7666" style="fill:#fafafa;"></rect><rect x="266.8099" y="247.9281" width="6.188" height="12.7666" style="fill:#fafafa;"></rect><rect x="279.1858" y="247.9281" width="6.1879" height="12.7666" style="fill:#fafafa;"></rect><rect x="291.5617" y="247.9281" width="6.1879" height="12.7666" style="fill:#fafafa;"></rect><rect x="303.9377" y="247.9281" width="6.188" height="12.7666" style="fill:#fafafa;"></rect><rect x="266.8099" y="269.3253" width="6.188" height="12.7668" style="fill:#fafafa;"></rect><rect x="279.1858" y="269.3253" width="6.1879" height="12.7668" style="fill:#fafafa;"></rect><rect x="291.5617" y="269.3253" width="6.1879" height="12.7668" style="fill:#fafafa;"></rect><rect x="303.9377" y="269.3253" width="6.188" height="12.7668" style="fill:#fafafa;"></rect><rect x="266.8099" y="290.7225" width="6.188" height="12.7666" style="fill:#fafafa;"></rect><rect x="279.1858" y="290.7225" width="6.1879" height="12.7666" style="fill:#fafafa;"></rect><rect x="291.5617" y="290.7225" width="6.1879" height="12.7666" style="fill:#fafafa;"></rect><rect x="303.9377" y="290.7225" width="6.188" height="12.7666" style="fill:#fafafa;"></rect><rect x="266.8099" y="312.1198" width="6.188" height="12.7666" style="fill:#fafafa;"></rect><rect x="279.1858" y="312.1198" width="6.1879" height="12.7666" style="fill:#fafafa;"></rect><rect x="291.5617" y="312.1198" width="6.1879" height="12.7666" style="fill:#fafafa;"></rect><rect x="303.9377" y="312.1198" width="6.188" height="12.7666" style="fill:#fafafa;"></rect><rect x="266.8099" y="333.5171" width="6.188" height="12.7666" style="fill:#fafafa;"></rect><rect x="279.1858" y="333.5171" width="6.1879" height="12.7666" style="fill:#fafafa;"></rect><rect x="291.5617" y="333.5171" width="6.1879" height="12.7666" style="fill:#fafafa;"></rect><rect x="303.9377" y="333.5171" width="6.188" height="12.7666" style="fill:#fafafa;"></rect><rect x="266.8099" y="354.9305" width="6.188" height="12.7668" style="fill:#fafafa;"></rect><rect x="279.1858" y="354.9305" width="6.1879" height="12.7668" style="fill:#fafafa;"></rect><rect x="291.5617" y="354.9305" width="6.1879" height="12.7668" style="fill:#fafafa;"></rect><rect x="303.9377" y="354.9305" width="6.188" height="12.7668" style="fill:#fafafa;"></rect><path d="M491.38339,389.2973V170.3181h-105.8463v219.0533s105.0353,.0324,105.8463-.0741Z" style="fill:#f5f5f5;"></path><rect x="393.48349" y="179.0464" width="12.832" height="14.7046" style="fill:#e6e6e6;"></rect><rect x="419.16359" y="179.0464" width="12.8318" height="14.7046" style="fill:#e6e6e6;"></rect><rect x="444.82739" y="179.0464" width="12.8318" height="14.7046" style="fill:#e6e6e6;"></rect><rect x="470.50709" y="179.0464" width="12.832" height="14.7046" style="fill:#e6e6e6;"></rect><rect x="393.48349" y="203.7167" width="12.832" height="14.7046" style="fill:#e6e6e6;"></rect><rect x="419.16359" y="203.7167" width="12.8318" height="14.7046" style="fill:#e6e6e6;"></rect><rect x="444.82739" y="203.7167" width="12.8318" height="14.7046" style="fill:#e6e6e6;"></rect><rect x="470.50709" y="203.7167" width="12.832" height="14.7046" style="fill:#e6e6e6;"></rect><rect x="393.48349" y="228.3708" width="12.832" height="14.7045" style="fill:#e6e6e6;"></rect><rect x="419.16359" y="228.3708" width="12.8318" height="14.7045" style="fill:#e6e6e6;"></rect><rect x="444.82739" y="228.3708" width="12.8318" height="14.7045" style="fill:#e6e6e6;"></rect><rect x="470.50709" y="228.3708" width="12.832" height="14.7045" style="fill:#e6e6e6;"></rect><rect x="393.48349" y="253.0248" width="12.832" height="14.7046" style="fill:#e6e6e6;"></rect><rect x="419.16359" y="253.0248" width="12.8318" height="14.7046" style="fill:#e6e6e6;"></rect><rect x="444.82739" y="253.0248" width="12.8318" height="14.7046" style="fill:#e6e6e6;"></rect><rect x="470.50709" y="253.0248" width="12.832" height="14.7046" style="fill:#e6e6e6;"></rect><rect x="393.48349" y="277.6952" width="12.832" height="14.7045" style="fill:#e6e6e6;"></rect><rect x="419.16359" y="277.6952" width="12.8318" height="14.7045" style="fill:#e6e6e6;"></rect><rect x="444.82739" y="277.6952" width="12.8318" height="14.7045" style="fill:#e6e6e6;"></rect><rect x="470.50709" y="277.6952" width="12.832" height="14.7045" style="fill:#e6e6e6;"></rect><rect x="393.48349" y="302.3493" width="12.832" height="14.7045" style="fill:#e6e6e6;"></rect><rect x="419.16359" y="302.3493" width="12.8318" height="14.7045" style="fill:#e6e6e6;"></rect><rect x="444.82739" y="302.3493" width="12.8318" height="14.7045" style="fill:#e6e6e6;"></rect><rect x="470.50709" y="302.3493" width="12.832" height="14.7045" style="fill:#e6e6e6;"></rect><rect x="393.48349" y="327.0197" width="12.832" height="14.7046" style="fill:#e6e6e6;"></rect><rect x="419.16359" y="327.0197" width="12.8318" height="14.7046" style="fill:#e6e6e6;"></rect><rect x="444.82739" y="327.0197" width="12.8318" height="14.7046" style="fill:#e6e6e6;"></rect><rect x="470.50709" y="327.0197" width="12.832" height="14.7046" style="fill:#e6e6e6;"></rect><rect x="393.48349" y="351.6737" width="12.832" height="14.7045" style="fill:#e6e6e6;"></rect><rect x="419.16359" y="351.6737" width="12.8318" height="14.7045" style="fill:#e6e6e6;"></rect><rect x="444.82739" y="351.6737" width="12.8318" height="14.7045" style="fill:#e6e6e6;"></rect><rect x="470.50709" y="351.6737" width="12.832" height="14.7045" style="fill:#e6e6e6;"></rect><rect x="208.6562" y="167.9977" width="11.8246" height="13.5502" style="fill:#fafafa;"></rect><rect x="208.6562" y="190.7166" width="11.8246" height="13.5502" style="fill:#fafafa;"></rect><rect x="208.6562" y="213.4504" width="11.8246" height="13.5502" style="fill:#fafafa;"></rect><rect x="208.6562" y="236.1694" width="11.8246" height="13.5501" style="fill:#fafafa;"></rect><rect x="208.6562" y="258.8881" width="11.8246" height="13.5503" style="fill:#fafafa;"></rect><rect x="208.6562" y="281.6221" width="11.8246" height="13.5503" style="fill:#fafafa;"></rect><rect x="208.6562" y="304.3409" width="11.8246" height="13.5502" style="fill:#fafafa;"></rect><rect x="208.6562" y="327.0748" width="11.8246" height="13.5503" style="fill:#fafafa;"></rect><rect x="224.4722" y="167.9977" width="11.8249" height="13.5502" style="fill:#fafafa;"></rect><rect x="224.4722" y="190.7166" width="11.8249" height="13.5502" style="fill:#fafafa;"></rect><rect x="224.4722" y="213.4504" width="11.8249" height="13.5502" style="fill:#fafafa;"></rect><rect x="224.4722" y="236.1694" width="11.8249" height="13.5501" style="fill:#fafafa;"></rect><rect x="224.4722" y="258.8881" width="11.8249" height="13.5503" style="fill:#fafafa;"></rect><rect x="224.4722" y="281.6221" width="11.8249" height="13.5503" style="fill:#fafafa;"></rect><rect x="224.4722" y="304.3409" width="11.8249" height="13.5502" style="fill:#fafafa;"></rect><rect x="224.4722" y="327.0748" width="11.8249" height="13.5503" style="fill:#fafafa;"></rect><rect x="357.83779" y="64.9952" width="12.8318" height="14.7045" style="fill:#fafafa;"></rect><rect x="357.83779" y="89.6493" width="12.8318" height="14.7044" style="fill:#fafafa;"></rect><rect x="357.83779" y="112.6237" width="12.8318" height="14.7046" style="fill:#fafafa;"></rect><rect x="357.83779" y="137.2778" width="12.8318" height="14.7045" style="fill:#fafafa;"></rect><rect x="357.83779" y="161.9318" width="12.8318" height="14.7045" style="fill:#fafafa;"></rect><rect x="357.83779" y="186.6022" width="12.8318" height="14.7045" style="fill:#fafafa;"></rect><rect x="357.83779" y="211.2564" width="12.8318" height="14.7044" style="fill:#fafafa;"></rect><rect x="357.83779" y="235.9266" width="12.8318" height="14.7045" style="fill:#fafafa;"></rect><rect x="550.59229" y="43.6119" width="12.8319" height="14.7044" style="fill:#fafafa;"></rect><rect x="550.59229" y="68.266" width="12.8319" height="14.7046" style="fill:#fafafa;"></rect><rect x="550.59229" y="92.9362" width="12.8319" height="14.7046" style="fill:#fafafa;"></rect><rect x="550.59229" y="117.5903" width="12.8319" height="14.7046" style="fill:#fafafa;"></rect><rect x="550.59229" y="142.2606" width="12.8319" height="14.7046" style="fill:#fafafa;"></rect><rect x="550.59229" y="166.9148" width="12.8319" height="14.7044" style="fill:#fafafa;"></rect><rect x="550.59229" y="191.5852" width="12.8319" height="14.7044" style="fill:#fafafa;"></rect><rect x="550.59229" y="216.2393" width="12.8319" height="14.7043" style="fill:#fafafa;"></rect><rect x="578.07989" y="156.9001" width="77.2842" height="232.5037" style="fill:#e6e6e6;"></rect><rect x="589.51119" y="168.3641" width="22.6512" height="14.7045" style="fill:#fafafa;"></rect><rect x="589.51119" y="193.0345" width="22.6512" height="14.7044" style="fill:#fafafa;"></rect><rect x="589.51119" y="217.6884" width="22.6512" height="14.7045" style="fill:#fafafa;"></rect><rect x="589.51119" y="242.3588" width="22.6512" height="14.7046" style="fill:#fafafa;"></rect><rect x="589.51119" y="267.0129" width="22.6512" height="14.7046" style="fill:#fafafa;"></rect><rect x="589.51119" y="291.667" width="22.6512" height="14.7046" style="fill:#fafafa;"></rect><rect x="589.51119" y="316.3373" width="22.6512" height="14.7045" style="fill:#fafafa;"></rect><rect x="589.51119" y="340.9915" width="22.6512" height="14.7044" style="fill:#fafafa;"></rect><rect x="619.81589" y="168.3641" width="22.6512" height="14.7045" style="fill:#fafafa;"></rect><rect x="619.81589" y="193.0345" width="22.6512" height="14.7044" style="fill:#fafafa;"></rect><rect x="619.81589" y="217.6884" width="22.6512" height="14.7045" style="fill:#fafafa;"></rect><rect x="619.81589" y="242.3588" width="22.6512" height="14.7046" style="fill:#fafafa;"></rect><rect x="619.81589" y="267.0129" width="22.6512" height="14.7046" style="fill:#fafafa;"></rect><rect x="619.81589" y="291.667" width="22.6512" height="14.7046" style="fill:#fafafa;"></rect><rect x="619.81589" y="316.3373" width="22.6512" height="14.7045" style="fill:#fafafa;"></rect><rect x="619.81589" y="340.9915" width="22.6512" height="14.7044" style="fill:#fafafa;"></rect><path d="M535.93659,389.3189V228.3708h-33.708v160.9317l33.708,.0164Z" style="fill:#e0e0e0;"></path><rect x="504.78519" y="234.8845" width="4.0874" height="10.9592" style="fill:#fafafa;"></rect><rect x="512.95979" y="234.8845" width="4.08721" height="10.9592" style="fill:#fafafa;"></rect><rect x="521.11819" y="234.8845" width="4.0872" height="10.9592" style="fill:#fafafa;"></rect><rect x="529.29269" y="234.8845" width="4.0874" height="10.9592" style="fill:#fafafa;"></rect><rect x="504.78519" y="253.2691" width="4.0874" height="10.9592" style="fill:#fafafa;"></rect><rect x="512.95979" y="253.2691" width="4.08721" height="10.9592" style="fill:#fafafa;"></rect><rect x="521.11819" y="253.2691" width="4.0872" height="10.9592" style="fill:#fafafa;"></rect><rect x="529.29269" y="253.2691" width="4.0874" height="10.9592" style="fill:#fafafa;"></rect><rect x="504.78519" y="271.6539" width="4.0874" height="10.9592" style="fill:#fafafa;"></rect><rect x="512.95979" y="271.6539" width="4.08721" height="10.9592" style="fill:#fafafa;"></rect><rect x="521.11819" y="271.6539" width="4.0872" height="10.9592" style="fill:#fafafa;"></rect><rect x="529.29269" y="271.6539" width="4.0874" height="10.9592" style="fill:#fafafa;"></rect><rect x="504.78519" y="290.0385" width="4.0874" height="10.9592" style="fill:#fafafa;"></rect><rect x="512.95979" y="290.0385" width="4.08721" height="10.9592" style="fill:#fafafa;"></rect><rect x="521.11819" y="290.0385" width="4.0872" height="10.9592" style="fill:#fafafa;"></rect><rect x="529.29269" y="290.0385" width="4.0874" height="10.9592" style="fill:#fafafa;"></rect><rect x="504.78519" y="308.4396" width="4.0874" height="10.9592" style="fill:#fafafa;"></rect><rect x="512.95979" y="308.4396" width="4.08721" height="10.9592" style="fill:#fafafa;"></rect><rect x="521.11819" y="308.4396" width="4.0872" height="10.9592" style="fill:#fafafa;"></rect><rect x="529.29269" y="308.4396" width="4.0874" height="10.9592" style="fill:#fafafa;"></rect><rect x="504.78519" y="326.8244" width="4.0874" height="10.9591" style="fill:#fafafa;"></rect><rect x="512.95979" y="326.8244" width="4.08721" height="10.9591" style="fill:#fafafa;"></rect><rect x="521.11819" y="326.8244" width="4.0872" height="10.9591" style="fill:#fafafa;"></rect><rect x="529.29269" y="326.8244" width="4.0874" height="10.9591" style="fill:#fafafa;"></rect><rect x="504.78519" y="345.2091" width="4.0874" height="10.9592" style="fill:#fafafa;"></rect><rect x="512.95979" y="345.2091" width="4.08721" height="10.9592" style="fill:#fafafa;"></rect><rect x="521.11819" y="345.2091" width="4.0872" height="10.9592" style="fill:#fafafa;"></rect><rect x="529.29269" y="345.2091" width="4.0874" height="10.9592" style="fill:#fafafa;"></rect><rect x="504.78519" y="363.5936" width="4.0874" height="10.9593" style="fill:#fafafa;"></rect><rect x="512.95979" y="363.5936" width="4.08721" height="10.9593" style="fill:#fafafa;"></rect><rect x="521.11819" y="363.5936" width="4.0872" height="10.9593" style="fill:#fafafa;"></rect><rect x="529.29269" y="363.5936" width="4.0874" height="10.9593" style="fill:#fafafa;"></rect><rect x="121.1978" y="264.3424" width="10.92657" height="9.2004" style="fill:#e6e6e6;"></rect><rect x="143.0511" y="264.3424" width="10.9266" height="9.2004" style="fill:#e6e6e6;"></rect><rect x="164.8881" y="264.3424" width="10.9264" height="9.2004" style="fill:#e6e6e6;"></rect><rect x="186.7411" y="264.3424" width="10.9267" height="9.2004" style="fill:#e6e6e6;"></rect><rect x="121.1978" y="279.7634" width="10.92657" height="9.2004" style="fill:#e6e6e6;"></rect><rect x="143.0511" y="279.7634" width="10.9266" height="9.2004" style="fill:#e6e6e6;"></rect><rect x="164.8881" y="279.7634" width="10.9264" height="9.2004" style="fill:#e6e6e6;"></rect><rect x="186.7411" y="279.7634" width="10.9267" height="9.2004" style="fill:#e6e6e6;"></rect><rect x="121.1978" y="295.1844" width="10.92657" height="9.2004" style="fill:#e6e6e6;"></rect><rect x="143.0511" y="295.1844" width="10.9266" height="9.2004" style="fill:#e6e6e6;"></rect><rect x="164.8881" y="295.1844" width="10.9264" height="9.2004" style="fill:#e6e6e6;"></rect><rect x="186.7411" y="295.1844" width="10.9267" height="9.2004" style="fill:#e6e6e6;"></rect><rect x="121.1978" y="310.6054" width="10.92657" height="9.2004" style="fill:#e6e6e6;"></rect><rect x="143.0511" y="310.6054" width="10.9266" height="9.2004" style="fill:#e6e6e6;"></rect><rect x="164.8881" y="310.6054" width="10.9264" height="9.2004" style="fill:#e6e6e6;"></rect><rect x="186.7411" y="310.6054" width="10.9267" height="9.2004" style="fill:#e6e6e6;"></rect><rect x="121.1978" y="326.01" width="10.92657" height="9.2006" style="fill:#e6e6e6;"></rect><rect x="143.0511" y="326.01" width="10.9266" height="9.2006" style="fill:#e6e6e6;"></rect><rect x="164.8881" y="326.01" width="10.9264" height="9.2006" style="fill:#e6e6e6;"></rect><rect x="186.7411" y="326.01" width="10.9267" height="9.2006" style="fill:#e6e6e6;"></rect><rect x="121.1978" y="341.4311" width="10.92657" height="9.2004" style="fill:#e6e6e6;"></rect><rect x="143.0511" y="341.4311" width="10.9266" height="9.2004" style="fill:#e6e6e6;"></rect><rect x="164.8881" y="341.4311" width="10.9264" height="9.2004" style="fill:#e6e6e6;"></rect><rect x="186.7411" y="341.4311" width="10.9267" height="9.2004" style="fill:#e6e6e6;"></rect><rect x="121.1978" y="356.8522" width="10.92657" height="9.2004" style="fill:#e6e6e6;"></rect><rect x="143.0511" y="356.8522" width="10.9266" height="9.2004" style="fill:#e6e6e6;"></rect><rect x="164.8881" y="356.8522" width="10.9264" height="9.2004" style="fill:#e6e6e6;"></rect><rect x="186.7411" y="356.8522" width="10.9267" height="9.2004" style="fill:#e6e6e6;"></rect></g><path d="M108.1933,156.8258c-1.875-1.4166-4.6107-1.5771-6.6385-.3893-2.6916-5.4391-10.1923-7.8395-15.5416-4.9738-1.3955-5.8609-7.1702-10.366-13.1946-10.2936-6.0245,.0725-11.6891,4.7151-12.9432,10.6081-.1992,.9365-.3312,1.9624-1.001,2.6465-1.0882,1.1115-2.9049,.7384-4.4556,.6175-4.879-.3806-9.7883,3.0448-11.1151,7.7551l67.189-.2445c.5884-2.275-.4245-4.3094-2.2994-5.726Z" style="fill:#ebebeb;"></path><path d="M291.2438,135.6065c-1.2819-.9685-3.1524-1.0783-4.5388-.2661-1.8403-3.7189-6.9687-5.3601-10.6261-3.4007-.9542-4.0072-4.9024-7.0875-9.0214-7.038-4.1191,.0496-7.9921,3.2238-8.8495,7.253-.1362,.6403-.2265,1.3417-.6844,1.8095-.7441,.7599-1.9862,.5048-3.0464,.4222-3.3359-.2603-6.6925,2.0817-7.5996,5.3023l45.9384-.1672c.4023-1.5555-.2903-2.9464-1.5722-3.915Z" style="fill:#e0e0e0;"></path><path d="M646.45949,130.6399c-1.2819-.9685-3.1524-1.0783-4.5388-.2661-1.8403-3.7189-6.96869-5.3601-10.6261-3.4007-.9542-4.0072-4.9024-7.0875-9.0214-7.038-4.1191,.0496-7.9921,3.2238-8.8495,7.253-.1362,.6403-.2265,1.3417-.6844,1.8095-.7441,.7599-1.9862,.5048-3.0464,.4222-3.33589-.2603-6.6925,2.0817-7.5996,5.3023l45.9384-.1672c.40231-1.5555-.2903-2.9464-1.5722-3.915Z" style="fill:#e0e0e0;"></path><path d="M325.27769,63.0337c-1.282-.9685-3.1525-1.0783-4.5389-.2662-1.8403-3.7188-6.9687-5.36-10.6261-3.4006-.9541-4.0072-4.9024-7.0875-9.0214-7.038-4.1191,.0496-7.9921,3.2238-8.8495,7.253-.1362,.6403-.2265,1.3417-.6844,1.8095-.744,.7599-1.9861,.5048-3.0464,.4221-3.3359-.2602-6.6924,2.0818-7.5996,5.3024l45.9384-.1672c.4023-1.5555-.2902-2.9464-1.5721-3.915Z" style="fill:#f5f5f5;"></path><path d="M116.4724,46.975c-1.28197-.9685-3.1524-1.0783-4.5389-.2661-1.8403-3.7189-6.9686-5.3601-10.6261-3.4007-.9541-4.0072-4.9024-7.0875-9.0213-7.038-4.1191,.0496-7.9921,3.2239-8.8496,7.253-.1362,.6403-.2264,1.3417-.6844,1.8095-.744,.7599-1.9861,.5048-3.0463,.4222-3.3359-.2603-6.6925,2.0818-7.5996,5.3023l45.93835-.1672c.4023-1.5555-.29024-2.9464-1.57215-3.915Z" style="fill:#f5f5f5;"></path><path d="M206.8276,95.82c-2.3888-1.8047-5.8741-2.0092-8.4575-.496-3.4291-6.9294-12.985-9.9875-19.8-6.3366-1.7779-7.4668-9.1349-13.2063-16.81-13.1141-7.6752,.0924-14.892,6.0071-16.4897,13.5148-.2538,1.1931-.4219,2.5001-1.2753,3.3716-1.3863,1.4161-3.7008,.9407-5.6764,.7867-6.21592-.4849-12.47032,3.8791-14.16072,9.88l85.59902-.3114c.7497-2.8984-.5408-5.4902-2.9294-7.295Z" style="fill:#ebebeb;"></path><path d="M695.12779,70.1107c-2.38879-1.8047-5.8741-2.0092-8.4575-.496-3.4291-6.9294-12.985-9.9875-19.8-6.3366-1.7779-7.4668-9.1349-13.2063-16.81-13.1141-7.6752,.0924-14.892,6.0071-16.4897,13.5148-.2538,1.1931-.4219,2.5001-1.2753,3.3716-1.38629,1.4161-3.7008,.9407-5.6764,.7867-6.21589-.4849-12.4703,3.8791-14.1607,9.88l85.599-.3114c.7497-2.8984-.5408-5.4902-2.9294-7.295Z" style="fill:#f5f5f5;"></path></g><g id="freepik--Lines--inject-1"><path d="M164.46973,474.54004h-.00439c-14.30664-.12598-28.34717-5.10547-39.53418-14.02344-.21631-.17188-.25146-.48633-.07959-.70215s.48633-.25391,.70264-.0791c11.01367,8.77832,24.83545,13.68066,38.91992,13.80469,.27637,.00195,.49805,.22852,.49561,.50391s-.22559,.49609-.5,.49609Z" style="fill:#263238;"></path><path d="M140.55615,475.98047c-.03906,0-.07861-.00488-.11816-.01367-5.1626-1.25098-10.12207-3.61426-14.34229-6.83691-.21973-.16797-.26172-.48145-.09424-.70117,.16748-.21875,.48096-.26172,.70068-.09375,4.11133,3.13867,8.94238,5.44141,13.97119,6.65918,.26855,.06543,.43311,.33594,.36816,.60449-.05518,.22852-.25977,.38184-.48535,.38184Z" style="fill:#263238;"></path><g><path d="M35.1123,342.64648c-.12646,0-.25293-.04785-.3501-.14355-.19727-.19336-.2002-.50977-.00684-.70703,7.68799-7.83594,17.26904-13.77344,27.7085-17.1709,.26074-.08496,.54492,.05762,.63037,.32129,.08545,.26172-.05811,.54395-.3208,.62988-10.28711,3.34766-19.72852,9.19824-27.3042,16.9209-.09814,.09961-.22754,.14941-.35693,.14941Z" style="fill:#263238;"></path><path d="M33.15527,334.02344c-.13379,0-.26709-.05371-.36572-.15918-.18799-.20117-.17725-.51758,.02441-.70605,7.02344-6.55664,13.48877-10.43359,20.96387-12.57129,.2627-.07812,.54248,.07715,.61865,.34277,.07568,.26562-.07812,.54199-.34326,.61816-7.31543,2.09277-13.65527,5.89844-20.55664,12.34082-.09668,.08984-.21924,.13477-.34131,.13477Z" style="fill:#263238;"></path></g><g><path d="M302.85352,244.83643c-.16406,0-.32422-.08057-.41992-.22803-.15039-.23193-.08398-.5415,.14746-.69141,9.21289-5.96973,19.85938-9.67285,30.78809-10.7085,.27881-.03711,.51904,.17529,.54492,.4502,.02637,.2749-.17529,.51904-.4502,.54492-10.76953,1.021-21.26025,4.66992-30.33887,10.55225-.08398,.05469-.17822,.08057-.27148,.08057Z" style="fill:#263238;"></path><path d="M302.82568,235.99414c-.17139,0-.33838-.08838-.43164-.24707-.13965-.23779-.06006-.54443,.17822-.68408,8.28516-4.86475,15.44092-7.2373,23.20215-7.69141,.28418-.00684,.51221,.19434,.52832,.46973,.01611,.27588-.19434,.51221-.46973,.52832-7.59521,.44482-14.61279,2.7749-22.75488,7.55566-.0791,.04688-.1665,.06885-.25244,.06885Z" style="fill:#263238;"></path></g><g><path d="M712.97754,290.25879c-.0625,0-.12695-.01172-.18848-.03711-10.02051-4.07715-21.00879-5.69531-31.77832-4.67969-.26758,.01465-.51855-.17676-.54492-.45117-.02539-.27441,.17578-.51855,.45117-.54492,10.93262-1.02832,22.08008,.6123,32.24902,4.75,.25586,.10352,.37891,.39551,.27441,.65137-.0791,.19434-.26562,.31152-.46289,.31152Z" style="fill:#263238;"></path><path d="M708.92871,281.56348c-.06836,0-.13867-.01367-.20508-.04395-6.94043-3.11914-14.25-4.2998-23.66797-3.8291-.30859,.02539-.51172-.19922-.52441-.47363-.01367-.27637,.19824-.51074,.47363-.52441,9.59375-.48242,17.03613,.72656,24.12891,3.91504,.25195,.11328,.36426,.40918,.25098,.66113-.08301,.18555-.26562,.29492-.45605,.29492Z" style="fill:#263238;"></path></g></g><g id="freepik--Character--inject-1"><g><g><polygon points="94.1631 438.1007 517.577 434.2132 636.92129 424.7625 656.27259 360.3297 342.78059 336.3775 154.1049 336.3775 80.2866 379.0835 94.1631 438.1007" style="fill:#7600FF;"></polygon><polygon points="94.1631 438.1007 517.577 434.2132 636.92129 424.7625 656.27259 360.3297 342.78059 336.3775 154.1049 336.3775 80.2866 379.0835 94.1631 438.1007" style="opacity:.3;"></polygon></g><path d="M40.5607,386.1128l2.6504-26.2174s-4.5435-4.4368-2.6504-7.6636c1.8931-3.2267,16.2808-18.9572,70.8024-32.2676,54.5217-13.3103,92.7625-14.117,92.7625-14.117,0,0,77.0839-52.0081,132.28089-64.8398,61.2206-14.232,141.4632-6.5523,181.21851,3.9347,39.75539,10.4869,93.14119,30.6542,93.14119,30.6542,0,0,29.9112,15.3271,57.172,16.5371,27.26081,1.2101,34.4546,2.0168,34.4546,2.0168v4.8401s-4.16479,7.6636-1.8931,17.7472c0,0-19.6884,35.4943,9.8442,50.4181l-4.9221,56.8717-75.3459,11.697s9.3223-83.1947-59.0892-78.0487c-57.882,4.354-54.1189,78.0487-54.1189,78.0487l-302.51939,2.8234s13.3721-80.3931-54.5216-81.4757c-65.5766-1.0457-55.6575,83.4924-55.6575,83.4924,0,0-54.5217,0-62.4727-4.4368-7.9511-4.4368-9.4656-9.6803-7.5725-13.3104l4.1649-1.6133,2.2717-35.0911Z" style="fill:#7600FF;"></path><path d="M229.7345,311.72s44.5109-45.1105,116.5782-62.114c72.06731-17.0035,146.8759,1.2693,161.0899,4.2415,29.6227,6.194,59.7022,20.1468,59.7022,20.1468,0,0-19.4297,24.8127-60.0555,28.2059-40.6257,3.3932-277.31479,9.5198-277.31479,9.5198Z" style="opacity:.3;"></path><path d="M193.3397,338.7547c-1.3967,.4149,8.2571,16.1189,72.4469,2.4423,64.1898-13.6767,244.54129-21.2254,270.21799-20.7369l10.3931-3.6686s-305.37269,7.7981-353.05799,21.9632Z" style="opacity:.3;"></path><path d="M93.0271,338.619l-41.8968,17.9969c-.857,.3681-1.2875,1.3922-.9745,2.3184l3.6425,10.7786c1.1675,1.4925,22.4165,.7462,41.0968-3.7313,18.6803-4.4775,35.49265-22.8851,35.49265-22.8851l-37.36065-4.4775Z" style="fill:#fff; opacity:.6;"></path><path d="M237.2407,407.4375c.0004,1.9115,136.0107-.7646,184.8167,0,48.8059,.7646,73.5678-7.2637,73.5678-7.2637,0,0-28.9761-7.2487-104.7893-4.9699-76.075,2.2867-153.5965,6.2308-153.5952,12.2336Z" style="fill:#fff; opacity:.3;"></path><path d="M408.09128,242.3717c-2.42126,30.27538-6.17408,72.26146-9.02915,102.6519-1.08321,11.37941-.83623,22.84698-.83963,34.27116,.13263,11.43906,.39033,22.89109,1.33495,34.29496,.47453,3.73303,.47279,7.74211,2.12091,11.17286-1.72429-3.39793-1.80942-7.42367-2.36451-11.14824-1.22935-11.39354-1.58845-22.85907-1.8604-34.30844-.14834-11.45441-.36067-22.94918,.6576-34.37699,2.78228-30.42735,6.79135-72.3048,9.98025-102.55722h0Z" style="fill:#263238;"></path><path d="M234.077,425.4054c-5.32409-37.58619-10.22652-75.88312-4.56643-113.7223,5.24555-5.38616,11.15612-10.16859,17.07044-14.81545,47.36997-36.63419,107.38749-57.66424,167.49562-54.71715,44.85632,1.65427,89.89192,8.16042,132.41678,22.88713,7.0701,2.50645,14.06717,5.19377,20.8407,8.51472l-.07233-.03055c.70029,.26608,1.17932,.67511,1.64426,1.10037,6.65771,6.79321,5.60124,17.5626,1.92296,25.57663-6.39526,15.32578-12.94183,30.65195-21.20529,45.07817-1.24124,2.04584-2.60137,4.12231-4.53892,5.59334-7.26554,6.07528-14.21992,12.52886-20.21278,19.84722-5.99039,7.28336-11.11353,15.37592-14.32843,24.25452-2.47316,6.67198-4.59948,13.46705-7.26846,20.07369-2.55124,6.60119-6.00441,10.02354-13.41849,10.21197-84.50453,1.31953-188.50063-.19328-273.78433-.49469,85.60459-.20146,189.00458,1.1658,273.74957-.22946,7.08349-.20508,10.29102-3.35045,12.75988-9.77779,2.6481-6.58526,4.7672-13.38475,7.22639-20.05011,3.24091-8.98995,8.40381-17.16503,14.42758-24.51101,6.02185-7.37717,13.02484-13.8916,20.28696-19.98157,1.87842-1.42929,3.13486-3.39134,4.35103-5.39106,8.20291-14.38109,14.71845-29.70873,21.06019-44.98029,3.50903-7.71132,4.63903-17.95421-1.70678-24.49361-.44287-.39721-.88352-.75262-1.35188-.91192-6.6751-3.26675-13.67199-5.98394-20.70507-8.48318-42.41337-14.7586-87.35591-21.31534-132.12107-23.03396-59.9465-3.02641-119.84664,17.87841-167.15247,54.35683-5.83354,4.3944-12.00808,9.8421-16.93823,14.48132-5.80127,37.77405-1.05036,76.07716,4.11861,113.6482h0Z" style="fill:#263238;"></path><path d="M42.4967,379.0835s1.0879,7.0629,4.9801,8.2475c3.8923,1.1847,18.7201,.7898,21.6857,2.9618,2.9655,2.1719,10.7501,23.1016,11.1208,29.6174s-30.0262,15.0062-31.509,13.4266-3.1509-2.3694,3.7069-5.3312c6.8579-2.9617,15.3838-.1974,17.7933-8.0954,2.4095-7.898-6.1164-26.6557-9.638-27.4455s-13.7157,1.1847-16.6812-2.5668c-2.9656-3.7515-1.4586-10.8144-1.4586-10.8144Z" style="opacity:.3;"></path><path d="M593.23828,332.2832c-8.01465,0-14.53418-6.33398-14.53418-14.12012s6.51953-14.12012,14.53418-14.12012,14.53418,6.33398,14.53418,14.12012-6.51953,14.12012-14.53418,14.12012Zm0-27.24023c-7.46289,0-13.53418,5.88574-13.53418,13.12012s6.07129,13.12012,13.53418,13.12012,13.53418-5.88574,13.53418-13.12012-6.07129-13.12012-13.53418-13.12012Z" style="fill:#263238;"></path><path d="M620.67339,312.3691s16.7348,18.4224,27.2441,19.1071c10.5093,.6848,42.9619,.009,42.9619,.009,1.40161-5.5353,2.9858-10.6878,5.0907-14.7477,0,0-15.312-14.7056-21.173-14.9338-5.8609-.2283-54.1237,10.5654-54.1237,10.5654Z" style="fill:#fff; opacity:.6;"></path><path d="M676.59609,385.9289c-.7333,.1953-1.0999,7.421,8.4327,8.2022,9.5327,.7811,22.8333,0,22.8333,0l.7098-8.2022h-31.9758Z" style="opacity:.3;"></path><g><ellipse cx="161.25805" cy="411.31985" rx="50.91653" ry="50.80149" style="fill:#263238;"></ellipse><g style="opacity:.3;"><path d="M163.7525,385.7876v15.9658c0,1.3736-1.1161,2.4871-2.4928,2.4871h-.0161c-1.3767,0-2.4927-1.1135-2.4927-2.4871v-15.9658c0-1.3736,1.116-2.487,2.4927-2.487h.0161c1.3767,0,2.4928,1.1134,2.4928,2.487Z" style="fill:#fff;"></path></g><g style="opacity:.3;"><rect x="158.7509" y="418.393" width="5.0016" height="20.9399" rx="2.4871" ry="2.4871" style="fill:#fff;"></rect></g><g style="opacity:.3;"><path d="M170.7782,408.705c-1.1906,.6719-2.7017,.2536-3.3751-.9344h0l-.0008-.0013c-.6922-1.1873-.2887-2.7098,.9015-3.4004l13.8629-8.023,.0063-.0037c1.1939-.684,2.7176-.2729,3.4031,.9183h0l.0036,.0064c.6856,1.1912,.2736,2.7114-.9204,3.3954l-13.8468,8.0229-.0343,.0198Z" style="fill:#fff;"></path></g><g style="opacity:.3;"><path d="M136.9272,425.2606h0l-.0038-.0063c-.6855-1.1912-.2734-2.7114,.9204-3.3954l13.8469-8.023c1.1949-.6931,2.7268-.2912,3.4255,.8986h0c.6919,1.1966,.2818,2.7261-.9167,3.4178l-13.8468,8.023c-1.1992,.6904-2.7322,.2811-3.4255-.9147Z" style="fill:#fff;"></path></g><g style="opacity:.3;"><path d="M185.5723,425.3313c-.689,1.1892-2.2139,1.5958-3.4056,.9082l-13.8629-8.023c-1.1927-.6972-1.5954-2.2255-.9007-3.4178h0l.0008-.0013c.693-1.187,2.219-1.5886,3.4086-.8973l13.8468,8.023,.0065,.0037c1.1918,.6875,1.5994,2.2089,.9103,3.398h0l-.0038,.0065Z" style="fill:#fff;"></path></g><g style="opacity:.3;"><path d="M155.1015,407.796c-.6957,1.1853-2.2228,1.5834-3.4108,.8892l-13.8468-8.0229-.0064-.0037c-1.1918-.6876-1.5994-2.2089-.9103-3.3981h0c.6934-1.1957,2.2264-1.605,3.4255-.9146l13.8469,8.023,.0064,.0037c1.1919,.6875,1.5994,2.2089,.9102,3.398h0l-.0147,.0254Z" style="fill:#fff;"></path></g><path d="M161.2597,407.1287h0c2.3182,0,4.1975,1.8751,4.1975,4.1881s-1.8793,4.1879-4.1975,4.1879-4.1975-1.875-4.1975-4.188,1.8794-4.188,4.1975-4.188Z" style="fill:#263238;"></path></g><g><ellipse cx="574.20309" cy="411.3199" rx="50.91657" ry="50.80145" style="fill:#263238;"></ellipse><g style="opacity:.3;"><rect x="571.69589" y="383.3006" width="5.0016" height="20.9399" rx="2.4928" ry="2.4928" style="fill:#fff;"></rect></g><g style="opacity:.3;"><rect x="571.69589" y="418.393" width="5.0016" height="20.9399" rx="2.4928" ry="2.4928" style="fill:#fff;"></rect></g><g style="opacity:.3;"><path d="M583.72319,408.705c-1.1906,.6719-2.7017,.2536-3.375-.9344h0l-.0008-.0013c-.6922-1.1873-.2887-2.7098,.9014-3.4004l13.8629-8.023,.0064-.0036c1.1938-.6841,2.7175-.273,3.403,.9182h0l.0036,.0064c.6857,1.1913,.2736,2.7114-.9203,3.3954l-13.8468,8.0229-.0344,.0198Z" style="fill:#fff;"></path></g><g style="opacity:.3;"><path d="M549.87219,425.2606h0l-.0037-.0063c-.68549-1.1912-.27349-2.7114,.9203-3.3954l13.8469-8.023c1.195-.693,2.7268-.2912,3.4256,.8986h0c.6919,1.1966,.28171,2.7261-.9168,3.4178l-13.8468,8.023c-1.1992,.6904-2.7322,.2811-3.4255-.9147Z" style="fill:#fff;"></path></g><g style="opacity:.3;"><path d="M598.51739,425.3313c-.6891,1.1892-2.2139,1.5958-3.4057,.9082l-13.8629-8.023c-1.1927-.6972-1.5954-2.2255-.9006-3.4178h0l.0007-.0012c.693-1.1871,2.21911-1.5887,3.4087-.8974l13.8468,8.023,.0065,.0037c1.1917,.6875,1.5994,2.2089,.9102,3.398h0l-.0037,.0065Z" style="fill:#fff;"></path></g><g style="opacity:.3;"><path d="M568.04649,407.7961c-.6957,1.1852-2.2228,1.5833-3.4108,.8891l-13.8468-8.0229-.0063-.0037c-1.1919-.6876-1.5994-2.2089-.9104-3.3981h0c.6934-1.1957,2.2264-1.605,3.4255-.9146l13.8469,8.023,.00641,.0037c1.19189,.6875,1.59939,2.2089,.91029,3.398h0l-.0148,.0255Z" style="fill:#fff;"></path></g><path d="M574.20469,407.1287h0c2.3182,0,4.1975,1.8752,4.1975,4.1881s-1.8793,4.1879-4.1975,4.1879-4.1975-1.875-4.1975-4.188c0-2.3128,1.8794-4.188,4.1975-4.188Z" style="fill:#263238;"></path></g><polygon points="399.66259 242.8708 391.725 306.9781 415.81719 306.2202 418.12209 242.3717 399.66259 242.8708" style="fill:#263238;"></polygon><path d="M228.4593,312.36911c-44.17385,9.48143-91.41613,16.25724-135.43222,26.24978,33.38279-8.7171,67.52833-14.18306,101.45535-20.32434,9.72251-1.76009,24.40454-3.99974,33.97687-5.92544h0Z" style="fill:#263238;"></path><path d="M323.27969,244.6369c-52.8581,16.5163-119.15409,61.2102-119.15409,61.2102l12.1012,.0502s56.4775-35.3449,96.0444-52.944c11.5265-5.1269,11.6283-7.4909,11.0085-8.3164Z" style="fill:#fff; opacity:.6;"></path><path d="M382.90137,342.40918h-18.38477c-3.04199,0-5.5166-2.47461-5.5166-5.5166s2.47461-5.5166,5.5166-5.5166h18.38477c3.04199,0,5.5166,2.47461,5.5166,5.5166s-2.47461,5.5166-5.5166,5.5166Zm-18.38477-10.0332c-2.49023,0-4.5166,2.02637-4.5166,4.5166s2.02637,4.5166,4.5166,4.5166h18.38477c2.49023,0,4.5166-2.02637,4.5166-4.5166s-2.02637-4.5166-4.5166-4.5166h-18.38477Z" style="fill:#263238;"></path><path d="M532.28418,342.40918h-18.38477c-3.04199,0-5.5166-2.47461-5.5166-5.5166s2.47461-5.5166,5.5166-5.5166h18.38477c3.04199,0,5.5166,2.47461,5.5166,5.5166s-2.47461,5.5166-5.5166,5.5166Zm-18.38477-10.0332c-2.49023,0-4.5166,2.02637-4.5166,4.5166s2.02637,4.5166,4.5166,4.5166h18.38477c2.49023,0,4.5166-2.02637,4.5166-4.5166s-2.02637-4.5166-4.5166-4.5166h-18.38477Z" style="fill:#263238;"></path><path d="M459.97719,295.2693l1.4544-2.6952c.1561-.2893,.0625-.6587-.2091-.8248-.1706-.1044-.36649-.0936-.5304-.0071-.499-.3481-1.2319-1.1155-1.8363-1.5348-.7452-.5168-3.03479-2.1932-3.5724-2.5522-.5378-.3591-.643-.7978-.8997-1.4535-.25669-.6557-.2941-1.5832-2.8692-3.0909-2.5752-1.5076-11.3189-6.7279-11.3189-6.7279-.2579-.1712-.54859-.3401-.83059-.4829-.54391-.2755-1.23461-.5245-1.89531-.319-.4583,.1425-.80469,.5886-1.0614,1.0516-.27,.4871-.6539,1.1972-1.0436,1.9227-.3885,.723-.7688,1.4354-1.0261,1.9301-.2229,.4284-.4088,.936-.3379,1.3991,.1811,1.1829,4.3076,3.523,5.1042,4.0175,.0009,.0005,5.6436,3.503,8.168,5.1042,2.5247,1.6016,3.2946,1.1661,3.9553,1.0699,.6605-.0965,1.069-.2222,1.63181,.0898,.56319,.312,3.07989,1.5657,3.87559,1.9882,.65641,.3486,1.6721,.637,2.1993,.9236,.0294,.1679,.1182,.3224,.268,.4143,.2715,.1664,.6182,.0666,.7743-.2227Z" style="opacity:.3;"></path><path d="M486.91079,261.0893l-2.5665-1.6711c-.2754-.1795-.65129-.1165-.8392,.1405-.11809,.1614-.1235,.3575-.0507,.5279-.388,.4687-1.213,1.136-1.6806,1.7039-.5764,.7001-2.4355,2.844-2.8375,3.3503-.4022,.5064-.848,.5752-1.5226,.777-.6746,.2019-1.602,.1629-3.3165,2.6052-1.7144,2.4425-7.6363,10.7271-7.6363,10.7271-.19189,.2429-.3841,.5187-.5496,.788-.3194,.5194-.62429,1.1872-.4739,1.8626,.1043,.4684,.5204,.8504,.9607,1.1443,.4632,.3092,1.1394,.7502,1.8304,1.1983,.68851,.4467,1.3672,.8842,1.839,1.1814,.4087,.2574,.8992,.4845,1.3666,.4519,1.1938-.0832,3.8655-4.0032,4.42391-4.7564,.00059-.0008,3.95539-5.3363,5.75889-7.7204,1.8038-2.3844,1.4332-3.1875,1.3916-3.8538-.0418-.6662-.1334-1.0837,.2238-1.6189,.3573-.5356,1.8138-2.9407,2.3003-3.6989,.40141-.6255,.77241-1.614,1.1015-2.1159,.1697-.0154,.331-.0912,.43491-.233,.18809-.2569,.11719-.6106-.15821-.79Z" style="opacity:.3;"></path><path d="M489.41329,292.2705l-1.6239-2.583c-.1743-.2773-.5268-.3515-.7869-.1657-.1634,.1166-.2411,.3085-.2409,.5034-.514,.3223-1.4843,.6824-2.1051,1.0739-.7649,.4827-3.1901,1.9268-3.7304,2.2813-.5405,.3545-.9563,.2607-1.6216,.2154-.6657-.0453-1.4628-.4205-3.8723,1.371-2.4096,1.7917-10.67619,7.8301-10.67619,7.8301-.25831,.1704-.52921,.3732-.77431,.5793-.4729,.3974-.7992,.3764-.9189,1.0985l15.2129-.6506c2.4662-1.7019,4.3628-3.9387,4.5746-4.6123,.2114-.6736,.2866-1.1194,.7984-1.5187,.5121-.3996,2.6821-2.2479,3.39-2.8206,.58431-.4727,1.2769-1.3149,1.7516-1.6914,.1543,.0463,.32371,.0299,.4674-.0726,.2602-.1855,.33-.5608,.1556-.838Z" style="opacity:.3;"></path><g><polyline points="328.11179 292.7953 342.44229 310.589 355.30229 306.4044 335.80809 286.325 328.11179 293.2382" style="fill:#b97964;"></polyline><polygon points="335.25919 301.6701 339.15459 300.4639 338.98629 299.2611 345.79649 296.6133 347.58649 298.457 335.98669 302.5733 335.25919 301.6701" style="opacity:.3;"></polygon><g><g><g><g><path d="M383.08459,295.5053s-.93959-6.0341,2.433-16.5738c-.0001-.0114-.5525-.275-.5529-.2865,.4654-1.474,.9552-2.8348,1.414-4.0134,.0106-.0343,.0105-.0458,.0105-.0458l-14.7801,8.5821c.24791,3.4068-1.1522,9.9385-1.9559,12.6909,0,0-1.9731,4.9708,4.7,5.374,4.876,.2947,8.7314-5.7275,8.7314-5.7275Z" style="fill:#b97964;"></path><path d="M371.22839,287.9378l8.416-1.6553c-.8306,2.5803-3.21739,5.6002-9.045,5.6915,0,0,.66061-2.895,.629-4.0362Z" style="opacity:.2;"></path></g><g><path d="M386.69579,267.529c-1.2335,9.1865-1.7439,14.3926-6.7525,18.7488-7.5341,6.5522-18.3785,1.6252-19.91829-7.7723-1.386-8.4588,.86389-22.061,10.17359-24.9928,9.1719-2.8884,17.7307,4.8296,16.4972,14.0163Z" style="fill:#b97964;"></path><path d="M360.01089,278.3966s5.6774-1.1382,8.6827-2.0098c.6751-.1958,1.35541-.3377,2.05341-.4204,1.27069-.1505,4.86159-.4886,7.138-.8191,1.77389-.2576,5.39719-5.3657,5.39719-5.3657l.3566,1.2571,1.4388,9.2204s-5.5474,10.1329-14.3333,8.8927c-8.0851-1.1413-10.5412-8.5057-10.7334-10.7552" style="opacity:.1;"></path><path d="M388.66779,256.5181c-.8993-5.1765-13.64-6.1526-17.3874-3.8115-.5601,.3497,6.7143,4.6871,6.2688,4.4871l3.4653,1.4858c.5562-.0819,1.5852,.6355,2.0193,2.3766,0,0-1.4267,14.1185,2.2864,18.5034,3.3353-1.3385,3.9285-6.9323,5.1857-10.1979,1.873-4.8652,4.2226-12.0198-1.8381-12.8435Z" style="fill:#263238;"></path><path d="M389.78429,275.4844c-.9092,2.3226-2.8104,3.9977-4.7067,4.7747-2.8525,1.1689-3.6617-1.9161-3.19059-4.8046,.42389-2.5997,1.41789-5.7321,4.43559-5.6721,2.9732,.0592,4.5013,3.0467,3.4617,5.702Z" style="fill:#b97964;"></path><path d="M363.766,269.464c-.06791,.9443-.624,1.6686-1.24171,1.618-.6177-.0508-1.06329-.8574-.9951-1.8017,.0681-.9444,.6242-1.6688,1.2417-1.618,.6179,.0507,1.0634,.8573,.99511,1.8017Z" style="fill:#263238;"></path><path d="M372.84939,269.464c-.0679,.9443-.624,1.6686-1.2417,1.618-.61769-.0508-1.0632-.8574-.9951-1.8017,.0681-.9444,.6242-1.6688,1.2417-1.618,.6179,.0507,1.0634,.8573,.9951,1.8017Z" style="fill:#263238;"></path><path d="M367.072,268.448s-3.32831,4.4761-4.42441,6.3175c1.2286,1.2821,3.5322,.8983,3.5322,.8983l.89221-7.2158Z" style="fill:#a24e3f;"></path><path d="M376.38179,264.5183c-.1352,.0745-.3064,.0764-.4489-.0106-1.6956-1.031-3.18089-.3539-3.1957-.3471-.2214,.104-.4874,.0098-.5934-.2101-.106-.2201-.0116-.4833,.2085-.5874,.0779-.0371,1.9389-.8863,4.0423,.3936,.2101,.1275,.2768,.3995,.1495,.6069-.0412,.0674-.0974,.119-.1623,.1547Z" style="fill:#263238;"></path></g><path d="M383.44824,275.49023c-.01465,0-.03027-.00098-.0459-.00391-.13574-.02539-.22559-.15625-.2002-.29199,.15527-.83203,.52734-1.6123,1.07715-2.25684,.37305-.43652,.98926-.98633,1.80762-1.12598,.79883-.14062,1.62598,.20801,1.99121,.84375,.06836,.12012,.02734,.27246-.0918,.3418-.12012,.06738-.27344,.02734-.3418-.0918-.25977-.4502-.87598-.70312-1.47363-.60156-.6709,.11523-1.19238,.58496-1.51074,.95801-.49316,.57812-.82715,1.27832-.96582,2.02441-.02246,.12012-.12793,.2041-.24609,.2041Z" style="opacity:.2;"></path></g><path d="M359.91059,266.9318c-.0809-.0235-.1557-.0705-.2145-.1402-.1583-.1877-.1367-.4683,.0486-.6263,1.8602-1.5854,3.8118-1.0004,3.9026-.9856,.23371,.0715,.3679,.3193,.2991,.5542-.0687,.234-.3121,.3664-.545,.2978-.0802-.0275-1.5895-.4587-3.0826,.8138-.1167,.0996-.27079,.1268-.4082,.0863Z" style="fill:#263238;"></path></g><g><path d="M363.19829,294.2477l-39.583,12.1107-28.8-5.1161-3.7874,9.1768s19.264,7.3787,31.3379,9.3472c3.8996,.6358,7.8804,.478,11.7167-.4669l10.43651-2.5704c10.122-2.3956,21.90149-5.4317,21.90149-5.4317l-3.2222-17.0496Z" style="fill:#b97964;"></path><g><path d="M358.34189,313.8884l3.6353-21.1332,13.7307-2.3944c.601-.0881,11.7549-1.0048,15.0998,11.2315l.4279,5.5684-32.8937,6.7277Z" style="fill:#263238;"></path><path d="M369.46039,311.4489c-.7602-.0114-21.9652,5.9536-21.9652,5.9536l-7.1965-17.5953s12.62331-5.1086,21.7176-7.5669c10.1638-2.7476,19.6565-3.0855,21.8521,1.6585,4.1602,8.989-14.408,17.5501-14.408,17.5501Z" style="fill:#263238;"></path></g></g><path d="M281.0666,293.8764c-.6229,.3662-17.1868,16.9577-17.1868,16.9577l12.3251-.3775,7.5653-8.9434-2.7036-7.6368Z" style="fill:#263238;"></path><path d="M280.051,284.4136c-.8021-1.6255-2.7703-2.293-4.3957-1.4906-1.6255,.8022-2.2929,2.7701-1.4906,4.3956l9.9953,22.467,7.7567-.168-11.8657-25.204Z" style="fill:#263238;"></path><path d="M297.1507,301.6572l-6.9829-1.3499-4.9845-6.0274s-6.1338-.5507-7.4509,.5425c-1.3173,1.0932-2.6428,4.5778-2.6428,4.5778,0,0-1.5977,2.8565,1.1414,4.3557,0,0-1.734,2.5424,1.3569,4.3371,0,0-2.2782,1.2859,.9907,2.6302,3.269,1.3444,5.8551,.5626,7.8571-.1556,2.002-.7183,4.5922-.1485,4.5922-.1485l6.6862,2.4225-.5634-11.1844Z" style="fill:#b97964;"></path><path d="M359.62029,254.8974c-.571-.2048-1.0829-.5141-1.3098-1.0566-.375-.8972,.3138-1.9525,1.2098-2.33,.8961-.3776,1.9132-.2641,2.8781-.1439-1.0059-.1723-2.24139-.5726-2.3582-1.5863-.07019-.6089,.3503-1.1909,.8834-1.4934,.5332-.3023,1.1606-.381,1.7706-.441,1.976-.1944,2.8575,2.0961,4.8116,1.746,9.82521-1.7602,12.3266-1.6361,17.0533,.8762,1.2808,.6807,2.0535,1.5707,2.80191,2.429,.83759,.9607,1.22069,2.2557,1.30689,3.6207l-6.7606,2.1125c-4.09329,1.0164-9.9312,2.3602-14.3506,1.78-2.0786-.2728-4.1588-.5895-6.173-1.1711-.824-.2379-1.6618-.5352-2.2892-1.1201-.6272-.585-.9942-1.5262-.6801-2.3243,.1927-.4897,.6969-.8341,1.2059-.8977Z" style="fill:#263238;"></path></g><g><g><path d="M338.62979,289.1741c3.27621-1.4046,3.4241-2.4515,3.8068-3.1642,.38241-.7127,.5581-1.1975,1.2471-1.5409,.6889-.3435,3.639-1.9732,4.5959-2.4709,.9571-.4979,2.2178-1.5847,2.78-1.6803,.0369-.0062,.0717-.0124,.1049-.0187,.04251-.5533-.0959-1.1152-.4092-1.6234-.0659-.1066-.1341-.1954-.2001-.2813-.1508-.1962-.3067-.3992-.3969-.7593-.0324-.1286-.0567-.2564-.0802-.38-.0528-.2777-.103-.5398-.2336-.7642-.0947-.1619-.1906-.2898-.2988-.394-.0782,.0542-.17269,.1239-.2861,.2153-.4447,.3568-2.09459,.5778-3.1022,.9627-1.0076,.385-4.1851,1.5087-4.89939,1.7958-.71431,.2871-1.19351,.0966-1.98041-.0907-.7869-.1872-1.6678-.7717-4.8935,.7452-3.2256,1.5169-14.2714,6.5998-14.2714,6.5998-.3415,.1384-.7044,.3104-1.0372,.4915-.6418,.3492-1.3637,.86-1.646,1.6459-.1957,.545-.0319,1.1837,.2114,1.7456,.256,.591,.636,1.4433,1.0263,2.3114,.3886,.8654,.7736,1.7156,1.0455,2.2994,.2355,.5056,.5704,1.0279,1.0476,1.2684,1.2186,.6144,6.3175-1.867,7.3414-2.3174,.0011-.0006,7.25231-3.1913,10.5281-4.5957Z" style="fill:#7600FF;"></path><path d="M348.27352,277.54141h3.99089c.25525,0,.46248,.20723,.46248,.46248v.4507c0,.25529-.20726,.46255-.46255,.46255h-3.99081c-.25525,0-.46247-.20723-.46247-.46247v-.45079c0-.25524,.20722-.46247,.46247-.46247Z" transform="translate(461.3368 -155.08795) rotate(65.91535)" style="fill:#7600FF;"></path></g><path d="M341.57649,285.5743c.0481-.0898,.0931-.1758,.1366-.2596,.3134-.6021,.6094-1.1709,1.3945-1.5622,.36-.1794,1.3901-.7392,2.3862-1.2806l.0219-.0119c.8498-.462,1.7286-.9397,2.1784-1.1736,.1501-.0781,2.2764-1.0528,2.4432-1.1587l-1.2626-2.8246c-.19,.0545-2.4162,.821-2.5742,.8815-.474,.181-1.41449,.5209-2.3242,.8496l-.02329,.0083c-1.06631,.3856-2.16891,.784-2.54221,.9341-.8139,.327-1.4357,.1707-2.0954,.0048-.0902-.0226-.1842-.0463-.28339-.0698-.10421-.0248-.20981-.0554-.32081-.088-.6385-.187-1.5128-.4431-4.1418,.7934-1.1605,.5457-2.3219,1.0903-3.48639,1.6272-2.05111,.9458-7.93821,3.6924-10.0028,4.6077-.8392,.3719-1.665,.6912-2.1392,1.5989-.4286,.8201,.1738,2.0582,.5358,2.8788,.4009,.9087,.81,1.8343,1.3024,2.6966,.2474,.4331,.5813,.8736,.9949,1.0998,.7285,.3986,5.7278-2.0646,6.3377-2.3307,1.5449-.6742,3.086-1.3566,4.6306-2.0314,1.7795-.7774,3.5585-1.5559,5.3434-2.3213,2.6698-1.1446,3.05921-1.9683,3.3433-2.5698,.0495-.1049,.0968-.2043,.1474-.2985Z" style="fill:#fff; opacity:.3;"></path><rect x="328.30621" y="280.88523" width="6.83303" height="11.59381" rx="2.2973" ry="2.2973" transform="translate(458.05705 -133.15861) rotate(65.91277)" style="fill:#7600FF;"></rect></g><g><path d="M337.21869,280.9386s.2512,6.0266-.8851,7.4661c-1.13659,1.4395-2.0878-1.0461-2.0878-1.0461,0,0,.8889,2.8034-.1775,3.3665-1.2799,.6757-2.2655-1.9332-2.2655-1.9332,0,0,.6378,2.3208-.3421,2.7537-1.01669,.4493-2.3258-2.4113-2.3258-2.4113,0,0,.15911,1.7248-.6823,1.6151-.8412-.1099-3.72959-6.1237-3.4421-8.4592,.2873-2.3355,6.844-6.3196,8.6539-6.1903,1.7772,.1271,3.5085,1.2454,5.5189,3.8352l-1.9646,1.0035h0Z" style="fill:#b97964;"></path><path d="M334.12219,287.4125l-.0037-.0118-1.3302-4.9665c-.0176-.0667,.0249-.1399,.0951-.163,.0704-.0232,.1438,.014,.1601,.0785l1.33,4.9666c.0176,.0666-.0249,.1398-.0951,.163-.06639,.022-.1337-.008-.1562-.0668Z" style="opacity:.2;"></path><path d="M331.62719,288.7099l-.0011-.0029-1.6337-4.6622c-.0226-.0651,.01461-.1403,.0833-.168,.0694-.0282,.1288-.0027,.1664,.0667l1.63391,4.6623c.02259,.065-.01491,.1401-.08361,.1682-.0683,.0276-.1412-.0011-.1652-.0641Z" style="opacity:.2;"></path><path d="M328.951,289.0307l-1.30691-3.4274c-.0245-.0643,.0112-.1404,.0794-.1698,.0682-.0295,.1436-.0016,.1681,.0625l1.3071,3.4275c.0245,.0643-.0113,.1401-.0795,.1697-.0681,.0295-.1437,.0016-.16819-.0625Z" style="opacity:.2;"></path></g><g><path d="M368.53149,280.9086c-.3136-1.0057-.2761-2.1481,.3696-2.9803,.6458-.8323,1.718-1.2928,2.771-1.2634,1.053,.0296,2.0704,.526,2.8001,1.2857,.3635,.3786,.6731,.8624,.6483,1.3868-.02849,.6026-.5049,1.1108-1.0567,1.3547-.5516,.2441-1.171,.274-1.774,.2935-.6029,.0194-1.2203,.0346-1.7825,.2533-.26929,.1047-.5292,.2567-.8175,.2741,0,0-.9483,.0695-1.1583-.6044Z" style="fill:#263238;"></path><path d="M373.60109,277.2523c-.2525,.0553-4.1939,.9012-4.3829,.8325-.1631-.0593-.1367-.3102-.12319-.3949,.10419-.1116,.20479-.2264,.324-.3215,.03079-.0241,.06719-.0504,.10189-.0762,.6146-.4509,1.3857-.695,2.1512-.6736,.6894,.0195,1.34091,.2713,1.929,.6337Z" style="fill:#fff;"></path><path d="M370.88809,279.9374c1.4781-.7019,4.0792-.1337,4.10791-.1275-.17941,.3885-.53341,.7059-.93211,.8822-.5517,.2441-1.171,.274-1.7741,.2935-.6029,.0193-1.2203,.0346-1.7825,.2532-.26929,.1048-.5294,.2568-.8175,.2742,0,0-.2283,.0155-.4853-.0466,.189-.3676,.6501-1.0382,1.6836-1.529Z" style="fill:#de5753;"></path></g><path d="M371.61744,272.49528c.77355,.39414,1.67015,.49207,2.52129,.34858,.75938-.12802,1.53997-.49046,1.94665-1.1734,.14852-.24941-.24036-.47599-.38856-.22712-.34777,.58401-1.03535,.85839-1.67772,.9666-.7249,.12212-1.51655,.03204-2.17453-.30322-.25751-.13121-.4855,.25691-.22712,.38856h0Z" style="opacity:.3;"></path><path d="M360.71923,272.49528c1.09414,.75303,2.83169,.44902,3.39284-.82482,.04934-.11201,.03185-.24041-.08072-.30784-.09508-.05696-.25895-.03028-.30784,.08072-.46772,1.06175-1.8675,1.28945-2.77716,.66338-.23914-.16459-.46442,.22524-.22712,.38856h0Z" style="opacity:.3;"></path></g><path d="M508.48349,302.0687c-1.0382,.0922,9.7036-29.9811,14.8031-30.4358s14.58041-1.3284,18.1357,.6234c3.5553,1.9519,3.6526,18.5513,3.6526,18.5513,0,0-12.1947,9.093-36.5914,11.2611Z" style="opacity:.3;"></path><g><path d="M260.5375,295.2756s-20.5881,3.1764-18.7423,16.0334c1.8459,12.8569,24.9674,5.1507,25.5266,4.3864,0,0,3.0129-15.5796-6.7843-20.4198Z" style="fill:#7600FF;"></path><path d="M260.53749,295.2756c-6.57736,1.58979-14.26851,4.02146-17.54124,10.38671-1.3755,3.01722-1.22161,7.00636,1.02835,9.55572,2.37603,2.5739,6.11984,2.9696,9.49074,2.96498,4.5432-.11938,9.30947-1.05166,13.46473-2.73758,.98723-6.18233,.73676-16.52323-6.44257-20.16983h0Zm0,0c7.4895,3.55491,8.35853,13.42025,7.12606,20.66993-.38571,.37571-.58339,.34859-.96746,.54904-6.40979,2.20486-13.72913,3.96019-20.32672,1.50095-4.89579-1.8939-6.34844-8.25754-4.09811-12.67719,3.53794-6.52277,11.43837-8.85395,18.26623-10.04273h0Z" style="fill:#263238;"></path></g><g><g><path d="M344.74854,262.8252c-.18164,0-.36328-.02148-.5415-.06641-.13428-.0332-.21582-.16797-.18262-.30273,.03369-.13281,.16748-.21973,.30273-.18164,.67041,.16309,1.4375-.09668,1.8667-.6377,.42822-.54199,.50635-1.34863,.18994-1.96289-.06348-.12207-.01514-.27344,.10742-.33691,.12402-.06152,.27344-.01367,.33691,.1084,.40967,.79492,.3125,1.7998-.24219,2.50195-.44141,.55664-1.13574,.87793-1.8374,.87793Z" style="fill:#fff;"></path><path d="M350.21777,262.8252c-.70215,0-1.39648-.32129-1.8374-.87793-.55469-.70215-.65234-1.70801-.24219-2.50195,.06348-.12207,.21387-.17285,.33691-.10742,.12256,.0625,.1709,.21387,.10742,.33594-.31641,.61426-.23828,1.4209,.19043,1.96289,.42773,.54102,1.19434,.80176,1.86621,.6377,.13232-.04004,.26904,.04883,.30273,.18164,.0332,.13477-.04834,.26953-.18262,.30273-.17822,.04492-.36035,.06641-.5415,.06641Z" style="fill:#fff;"></path><path d="M348.36035,266.7959c-.09033,0-.17773-.0498-.22217-.13574-.41016-.79395-.3125-1.7998,.24219-2.50195,.55469-.70117,1.51172-1.03027,2.37891-.81152,.13428,.0332,.21582,.16797,.18262,.30273-.0332,.13281-.16797,.22168-.30273,.18164-.67188-.16602-1.43848,.0957-1.86621,.6377-.42871,.54199-.50684,1.34863-.19043,1.96289,.06348,.12207,.01514,.27344-.10742,.33594-.03662,.01953-.07617,.02832-.11475,.02832Z" style="fill:#fff;"></path><path d="M346.60596,266.7959c-.03857,0-.07812-.00879-.11475-.02734-.12256-.06348-.1709-.21484-.10742-.33691,.31641-.61426,.23828-1.4209-.19043-1.96289s-1.1958-.80371-1.86621-.6377c-.1377,.03809-.27002-.04883-.30273-.18164-.0332-.13477,.04834-.26953,.18262-.30273,.86328-.21777,1.82324,.11035,2.37842,.81152,.55518,.70215,.65234,1.70703,.24268,2.50195-.04443,.08594-.13184,.13574-.22217,.13574Z" style="fill:#fff;"></path></g><g><path d="M388.99023,250.41162c-.18164,0-.36328-.021-.54199-.06543-.13379-.0332-.21582-.16895-.18164-.30273,.03223-.13379,.16602-.21582,.30273-.18262,.66797,.16846,1.43848-.09473,1.86621-.6377,.42871-.5415,.50684-1.34863,.18945-1.9624-.0625-.12305-.01465-.27344,.1084-.33691,.11914-.06445,.27246-.01562,.33691,.10742,.41016,.79541,.3125,1.80078-.24219,2.50244-.44141,.55762-1.13574,.87793-1.83789,.87793Z" style="fill:#fff;"></path><path d="M394.45996,250.41162c-.70215,0-1.39648-.3208-1.83789-.87793-.55469-.70166-.65234-1.70703-.24219-2.50244,.06445-.12305,.2168-.17188,.33691-.10742,.12305,.06348,.1709,.21387,.1084,.33691-.31738,.61377-.23926,1.4209,.18945,1.9624,.42773,.54199,1.19336,.80615,1.86621,.6377,.1377-.03564,.27051,.04883,.30273,.18262,.03418,.13379-.04785,.26953-.18164,.30273-.17871,.04395-.36035,.06543-.54199,.06543Z" style="fill:#fff;"></path><path d="M392.60254,254.38281c-.09082,0-.17773-.0498-.22266-.13574-.40918-.79395-.3125-1.7998,.24219-2.50195,.55566-.70117,1.50879-1.02588,2.37988-.81201,.13379,.0332,.21582,.16846,.18164,.30322-.03223,.13281-.16211,.22266-.30273,.18164-.67285-.16406-1.43848,.09668-1.86621,.6377-.42871,.54199-.50684,1.34863-.18945,1.96289,.0625,.12207,.01465,.27344-.1084,.33691-.03613,.01855-.0752,.02734-.11426,.02734Z" style="fill:#fff;"></path><path d="M390.84766,254.38281c-.03906,0-.07812-.00879-.11426-.02734-.12305-.06348-.1709-.21484-.1084-.33691,.31738-.61426,.23926-1.4209-.18945-1.96289-.42773-.54199-1.19922-.80078-1.86621-.6377-.13867,.03809-.27051-.04883-.30273-.18164-.03418-.13379,.04785-.27002,.18164-.30322,.87012-.21582,1.82422,.10986,2.37988,.81201,.55469,.70215,.65137,1.70801,.24219,2.50195-.04492,.08594-.13184,.13574-.22266,.13574Z" style="fill:#fff;"></path></g><g><path d="M337.57568,259.28027c-.08008,0-.16016-.00977-.23877-.0293-.06689-.0166-.10791-.08496-.09082-.15137s.08398-.10938,.15137-.09082c.28223,.07129,.60596-.04004,.78711-.26855,.18066-.22949,.21387-.56934,.08057-.82812-.03174-.06152-.00781-.13672,.05371-.16895,.05957-.03027,.13574-.00781,.16797,.05371,.18018,.34863,.13721,.79004-.10596,1.09766-.19336,.24512-.49756,.38574-.80518,.38574Z" style="fill:#fff;"></path><path d="M339.93311,259.28027c-.30762,0-.61182-.14062-.80518-.38574-.24316-.30762-.28613-.74902-.10596-1.09766,.03076-.06152,.10693-.08398,.16797-.05371,.06152,.03223,.08545,.10742,.05371,.16895-.1333,.25879-.1001,.59863,.08057,.82812,.18164,.22949,.50537,.3418,.7876,.26855,.06689-.02148,.13428,.02441,.15137,.09082s-.02393,.13477-.09082,.15137c-.07861,.01953-.15918,.0293-.23926,.0293Z" style="fill:#fff;"></path><path d="M339.13281,260.99414c-.04541,0-.08887-.02441-.11133-.06738-.17969-.34961-.13672-.79102,.10645-1.09863,.24414-.30664,.66406-.45215,1.04443-.35645,.06689,.0166,.10742,.08398,.09082,.15137-.01611,.06641-.08203,.1123-.15137,.09082-.28369-.06934-.60693,.04004-.7876,.26953-.18115,.22852-.21387,.56934-.08008,.82812,.03125,.06152,.00732,.13672-.0542,.16895-.01807,.00879-.0376,.01367-.05713,.01367Z" style="fill:#fff;"></path><path d="M338.37598,260.99414c-.01953,0-.03906-.00488-.05713-.01367-.06152-.03223-.08545-.10742-.0542-.16895,.13379-.25879,.10107-.59961-.08008-.82715-.18018-.22949-.50244-.33789-.78711-.27051-.06982,.01855-.13525-.02441-.15137-.09082-.01709-.06738,.02393-.13477,.09082-.15137,.38135-.09473,.7998,.04883,1.04395,.35742,.24316,.30664,.28613,.74805,.10645,1.09766-.02246,.04297-.06592,.06738-.11133,.06738Z" style="fill:#fff;"></path></g></g></g></g></svg>
