<svg xmlns="http://www.w3.org/2000/svg" viewBox="0 0 500 500"><g id="freepik--Device--inject-3"><rect x="158.04" y="21.07" width="194.04" height="411.91" rx="25.7" style="fill:#263238;stroke:#263238;stroke-miterlimit:10"></rect><path d="M345.32,49.73V404.32a22.25,22.25,0,0,1-22.25,22.25h-136a21.61,21.61,0,0,1-3-.21,22.25,22.25,0,0,1-19.23-22V49.73a22.26,22.26,0,0,1,22.26-22.25H191c12.23,0,24.49.23,36.71,0,0,.08-.08.23-.05.35,3.34-.52,8.54.92,11,3.33,3.84,3.84,8.33,9.09,14.19,9.7,6.13.63,11-4.33,15-8.27,4.48-4.43,10.46-5.1,16.52-5.1h38.76A22.25,22.25,0,0,1,345.32,49.73Z" style="fill:#73FF9D"></path><path d="M345.32,49.73V94.94c-19.45,23.43-66.81,53.6-120.66,81.77-29.15,15.26-47.93,29.64-59.86,41.06V108.51q2.52-3.57,5.46-7.29c23.56-29.73,80.7-48.8,121-73.74h31.79A22.25,22.25,0,0,1,345.32,49.73Z" style="fill:#fff;opacity:0.30000000000000004"></path><path d="M345.32,181.42V319.56c-19.45,23.43-66.81,53.6-120.66,81.77a311.72,311.72,0,0,0-40.63,25,22.25,22.25,0,0,1-19.23-22V333.13q2.52-3.57,5.46-7.29c33-41.67,132-62.41,158.19-107.71C335.48,206,341.28,192.17,345.32,181.42Z" style="fill:#fff;opacity:0.30000000000000004"></path><circle cx="253.91" cy="32.32" r="3.92" style="fill:#7d7d7d;stroke:#fff;stroke-miterlimit:10"></circle><path d="M352,139.57h0V88.3h0a3.51,3.51,0,0,1,3.51,3.51v44.24A3.52,3.52,0,0,1,352,139.57Z" style="fill:#263238;stroke:#263238;stroke-miterlimit:10"></path><path d="M352,183.75h0V158.17h0a3.51,3.51,0,0,1,3.51,3.51v18.56A3.51,3.51,0,0,1,352,183.75Z" style="fill:#263238;stroke:#263238;stroke-miterlimit:10"></path><rect x="178.68" y="245.58" width="156.21" height="22.74" rx="11.37" style="fill:#fff;stroke:#263238;stroke-miterlimit:10"></rect><circle cx="192.36" cy="307.56" r="12.9" transform="translate(-63.43 50.33) rotate(-12.82)" style="fill:#fff;stroke:#263238;stroke-miterlimit:10"></circle><circle cx="234.43" cy="307.56" r="12.9" transform="translate(-148.82 255.85) rotate(-45)" style="fill:#fff;stroke:#263238;stroke-miterlimit:10"></circle><circle cx="276.5" cy="307.56" r="12.9" transform="translate(-63.58 72.2) rotate(-13.36)" style="fill:#fff;stroke:#263238;stroke-miterlimit:10"></circle><circle cx="318.57" cy="307.56" r="12.9" transform="translate(-86.92 485.5) rotate(-67.69)" style="fill:#fff;stroke:#263238;stroke-miterlimit:10"></circle><circle cx="192.36" cy="364.42" r="12.9" transform="translate(-76.04 51.75) rotate(-12.82)" style="fill:#fff;stroke:#263238;stroke-miterlimit:10"></circle><circle cx="234.43" cy="364.42" r="12.9" transform="translate(-189.02 272.5) rotate(-45)" style="fill:#fff;stroke:#263238;stroke-miterlimit:10"></circle><circle cx="276.5" cy="364.42" r="12.9" transform="translate(-76.71 73.74) rotate(-13.36)" style="fill:#fff;stroke:#263238;stroke-miterlimit:10"></circle><circle cx="318.57" cy="364.42" r="12.9" transform="translate(-139.52 520.77) rotate(-67.69)" style="fill:#fff;stroke:#263238;stroke-miterlimit:10"></circle><circle cx="256.79" cy="137.26" r="49.08" style="fill:none;stroke:#fff;stroke-miterlimit:10"></circle><path d="M235.76,146.46V128.81a1.58,1.58,0,0,1-.59.45,6.67,6.67,0,0,1-1,.39l-1,.31a4.76,4.76,0,0,1-.56.16v-1.46a8,8,0,0,0,.82-.28,6,6,0,0,0,.94-.49,8.28,8.28,0,0,0,.92-.67,4.5,4.5,0,0,0,.79-.84h1.47v20.08Z" style="fill:#263238"></path><path d="M244.86,146.46V128.81a1.55,1.55,0,0,1-.6.45,6.13,6.13,0,0,1-1,.39l-1,.31a5.4,5.4,0,0,1-.56.16v-1.46c.23-.06.5-.16.82-.28a6,6,0,0,0,.94-.49,8.28,8.28,0,0,0,.92-.67,4.5,4.5,0,0,0,.79-.84h1.46v20.08Z" style="fill:#263238"></path><path d="M251.5,136v-2.66h1.94V136Zm0,8.42v-2.65h1.94v2.65Z" style="fill:#263238"></path><path d="M260.48,146.71a4.92,4.92,0,0,1-2.56-.6,3.48,3.48,0,0,1-1.45-1.69,6.85,6.85,0,0,1-.45-2.59v-.5h1.73v.42a6.24,6.24,0,0,0,.29,1.85,2.32,2.32,0,0,0,.85,1.2,2.72,2.72,0,0,0,1.59.42,2.91,2.91,0,0,0,1.6-.41,2.46,2.46,0,0,0,1-1.35,7.55,7.55,0,0,0,.33-2.45,6.08,6.08,0,0,0-.67-3,2.56,2.56,0,0,0-2.33-1.23h-.49V135h.49a2.71,2.71,0,0,0,2.31-.91,4.83,4.83,0,0,0,.69-2.91,5,5,0,0,0-.58-2.55,2.27,2.27,0,0,0-2.14-1,2.66,2.66,0,0,0-2.2.85,4.42,4.42,0,0,0-.73,2.64v.35H256V131a6.64,6.64,0,0,1,.45-2.57,3.43,3.43,0,0,1,1.5-1.67,5.34,5.34,0,0,1,2.68-.6,4.75,4.75,0,0,1,2.6.65,3.82,3.82,0,0,1,1.5,1.77,6.4,6.4,0,0,1,.49,2.59,5.77,5.77,0,0,1-.79,3.26,3.4,3.4,0,0,1-2.06,1.45,3.38,3.38,0,0,1,1.39.79,4.34,4.34,0,0,1,1.05,1.65,7.47,7.47,0,0,1,.41,2.64,8.85,8.85,0,0,1-.47,3,4,4,0,0,1-1.53,2A4.79,4.79,0,0,1,260.48,146.71Z" style="fill:#263238"></path><path d="M272.5,146.69a4.82,4.82,0,0,1-2.59-.62,3.54,3.54,0,0,1-1.42-1.84,8.51,8.51,0,0,1-.45-2.95h1.81a8.73,8.73,0,0,0,.23,2.11,2.34,2.34,0,0,0,2.5,1.86,2.32,2.32,0,0,0,1.73-.6,3.23,3.23,0,0,0,.82-1.73,14.85,14.85,0,0,0,.22-2.8,12.75,12.75,0,0,0-.26-2.93,2.73,2.73,0,0,0-.86-1.57,2.51,2.51,0,0,0-1.63-.49,2.68,2.68,0,0,0-1.44.42,3.87,3.87,0,0,0-1.16,1.24h-1.51V126.38h7.8l0,1.71H270.1l-.1,7a3.72,3.72,0,0,1,1.2-.94,3.92,3.92,0,0,1,1.87-.4,3.67,3.67,0,0,1,2.39.74,4.14,4.14,0,0,1,1.31,2.12,12.27,12.27,0,0,1,.39,3.31,15.65,15.65,0,0,1-.24,2.9,6.07,6.07,0,0,1-.81,2.13,3.65,3.65,0,0,1-1.44,1.32A4.74,4.74,0,0,1,272.5,146.69Z" style="fill:#263238"></path><rect x="310.04" y="35.77" width="17" height="9.32" style="fill:none;stroke:#263238;stroke-linecap:round;stroke-linejoin:round;stroke-width:0.821067px"></rect><rect x="310.04" y="35.77" width="13.26" height="9.32" style="fill:#263238;stroke:#263238;stroke-linecap:round;stroke-linejoin:round;stroke-width:0.725073px"></rect><rect x="327" y="38.37" width="2.39" height="4.11" style="fill:#263238;stroke:#263238;stroke-linecap:round;stroke-linejoin:round;stroke-width:0.725073px"></rect><rect x="176.61" y="38.66" width="3.12" height="5.34" style="fill:#263238;stroke:#263238;stroke-linecap:round;stroke-linejoin:round;stroke-width:0.8830859999999999px"></rect><rect x="181.51" y="36.78" width="3.12" height="7.22" style="fill:#263238;stroke:#263238;stroke-linecap:round;stroke-linejoin:round;stroke-width:0.8830859999999999px"></rect><rect x="186.41" y="34.56" width="3.12" height="9.44" style="fill:#263238;stroke:#263238;stroke-linecap:round;stroke-linejoin:round;stroke-width:0.8830859999999999px"></rect><path d="M317.39,259.46h0a2.27,2.27,0,0,1-2.27-2.27V250a2.27,2.27,0,0,1,2.27-2.27h0a2.27,2.27,0,0,1,2.27,2.27v7.2A2.27,2.27,0,0,1,317.39,259.46Z" style="fill:#263238"></path><path d="M317.4,261.09a4,4,0,0,1-4-4V253.7a.41.41,0,0,1,.42-.41.41.41,0,0,1,.41.41v3.38a3.19,3.19,0,0,0,6.37,0V253.7a.41.41,0,0,1,.41-.41.41.41,0,0,1,.42.41v3.38A4,4,0,0,1,317.4,261.09Z" style="fill:#263238"></path><path d="M317.4,265.41A.41.41,0,0,1,317,265v-4.32a.42.42,0,1,1,.83,0V265A.41.41,0,0,1,317.4,265.41Z" style="fill:#263238"></path><path d="M320.17,265.63h-5.53a.41.41,0,0,1-.42-.41.42.42,0,0,1,.42-.42h5.53a.42.42,0,0,1,.42.42A.41.41,0,0,1,320.17,265.63Z" style="fill:#263238"></path><path d="M159.66,314.93s.44,2.26.87,2.37,4.65-.11,4.75-1.19-2.16-1.73-2.16-1.73Z" style="fill:#fff;stroke:#263238;stroke-linejoin:round"></path></g><g id="freepik--Icons--inject-3"><circle cx="129.56" cy="185.04" r="14.82" transform="translate(-38.82 34.47) rotate(-13.2)" style="fill:none;stroke:#263238;stroke-linecap:round;stroke-linejoin:round"></circle><polyline points="124.89 191.11 129.56 185.04 129.56 174.18" style="fill:none;stroke:#263238;stroke-linecap:round;stroke-linejoin:round"></polyline><rect x="369.67" y="107.89" width="52.45" height="33.66" style="fill:none;stroke:#263238;stroke-miterlimit:10"></rect><polyline points="369.67 107.89 395.46 129.75 421.75 108.2" style="fill:none;stroke:#263238;stroke-miterlimit:10"></polyline><line x1="369.67" y1="141.55" x2="388.46" y2="124.5" style="fill:none;stroke:#263238;stroke-miterlimit:10"></line><line x1="422.12" y1="141.55" x2="402.45" y2="124.5" style="fill:none;stroke:#263238;stroke-miterlimit:10"></line><path d="M433.64,43.57c-10.81,0-19.58,7-19.58,15.67,0,5.6,3.67,10.49,9.19,13.26l-3.32,8.29,10.47-6.11a24.71,24.71,0,0,0,3.24.23c10.82,0,19.59-7,19.59-15.67S444.46,43.57,433.64,43.57Z" style="fill:none;stroke:#263238;stroke-linecap:round;stroke-linejoin:round"></path><circle cx="426.83" cy="58.67" r="1.95" style="fill:none;stroke:#263238;stroke-linecap:round;stroke-linejoin:round"></circle><path d="M435.59,58.67a1.95,1.95,0,1,0-1.95,1.95A1.94,1.94,0,0,0,435.59,58.67Z" style="fill:none;stroke:#263238;stroke-linecap:round;stroke-linejoin:round"></path><circle cx="440.45" cy="58.67" r="1.95" style="fill:none;stroke:#263238;stroke-linecap:round;stroke-linejoin:round"></circle><path d="M396.11,38.39c8.48,0,15.35,5.5,15.35,12.28,0,4.38-2.88,8.21-7.2,10.39l2.59,6.49-8.2-4.79a19.22,19.22,0,0,1-2.54.18c-8.47,0-15.34-5.49-15.34-12.27S387.64,38.39,396.11,38.39Z" style="fill:none;stroke:#263238;stroke-linecap:round;stroke-linejoin:round"></path><path d="M391.94,50.67a1.73,1.73,0,1,0-1.73,1.73A1.74,1.74,0,0,0,391.94,50.67Z" style="fill:none;stroke:#263238;stroke-linecap:round;stroke-linejoin:round"></path><circle cx="396.26" cy="50.67" r="1.73" style="fill:none;stroke:#263238;stroke-linecap:round;stroke-linejoin:round"></circle><circle cx="402.32" cy="50.67" r="1.73" style="fill:none;stroke:#263238;stroke-linecap:round;stroke-linejoin:round"></circle><rect x="52.41" y="103.1" width="77.51" height="48.17" style="fill:none;stroke:#263238;stroke-linecap:round;stroke-linejoin:round"></rect><rect x="52.41" y="144.77" width="77.51" height="6.5" style="fill:none;stroke:#263238;stroke-linecap:round;stroke-linejoin:round"></rect><polygon points="101.9 126.36 84.31 116.2 84.31 136.52 101.9 126.36" style="fill:none;stroke:#263238;stroke-linecap:round;stroke-linejoin:round"></polygon><path d="M145,230H116.14a4.7,4.7,0,0,0-4.71,4.7v16.68a4.7,4.7,0,0,0,4.71,4.7H128l2.64,4.57,2.63-4.57H145a4.69,4.69,0,0,0,4.7-4.7V234.74A4.69,4.69,0,0,0,145,230Z" style="fill:none;stroke:#263238;stroke-miterlimit:10"></path><path d="M141.29,240.48a5.42,5.42,0,0,1-1.58,3.83l-1.43,1.43-7.66,7.65L123,245.74l-1.43-1.43a5.41,5.41,0,1,1,7.65-7.65l1.43,1.43,1.43-1.43a5.41,5.41,0,0,1,9.24,3.82Z" style="fill:none;stroke:#263238;stroke-miterlimit:10"></path><path d="M65.28,228.63a9.6,9.6,0,0,0,9.6-9.6V188.58a9.61,9.61,0,1,0-19.21,0V219A9.6,9.6,0,0,0,65.28,228.63Z" style="fill:none;stroke:#263238;stroke-linecap:round;stroke-linejoin:round"></path><path d="M82.33,218.56V204.27a1.76,1.76,0,1,0-3.51,0v14.29a13.47,13.47,0,0,1-26.93,0V204.27a1.76,1.76,0,1,0-3.52,0v14.29A17,17,0,0,0,63.6,235.45v15.78h-10a1.76,1.76,0,0,0,0,3.51H77.06a1.76,1.76,0,1,0,0-3.51h-10V235.45A17,17,0,0,0,82.33,218.56Z" style="fill:none;stroke:#263238;stroke-linecap:round;stroke-linejoin:round"></path><path d="M457.69,147.62a14.37,14.37,0,0,1,5,10.89c0,6.87-10.77,21.18-13.68,24.93,1.33,1.79,2.22,2.89,2.22,2.89s14.4-17.91,14.4-25.85A14.37,14.37,0,0,0,457.69,147.62Zm-6.48,7.86a5.93,5.93,0,0,1,1.13.12,5,5,0,1,0-5.19,7.78,5,5,0,0,1,4.06-7.9Z" style="fill:none;stroke:#263238;stroke-linecap:round;stroke-linejoin:round"></path><path d="M452.34,155.6a5,5,0,0,1-4.08,7.9,5.1,5.1,0,0,1-1.11-.12M449,183.44c-.46.6-.73.92-.73.92s-14.4-17.89-14.4-25.85a14.41,14.41,0,0,1,23.83-10.89" style="fill:none;stroke:#263238;stroke-linecap:round;stroke-linejoin:round"></path><g id="freepik--JKa6IG.tif--inject-3"><path d="M427,266.53c-1.49-.21-3-.37-4.49-.64-19.49-3.5-33.2-14.19-40.39-32.8a50.45,50.45,0,0,1-3.31-18.29,4.31,4.31,0,0,1,1.65-3.55c2.2-1.82,4.35-3.71,6.52-5.57q3-2.6,5.69.36l12.14,13.35c1.73,1.91,1.67,3.79-.18,5.58-2.58,2.5-5.14,5-7.73,7.51a1,1,0,0,0-.33,1.14,21.18,21.18,0,0,0,6.75,10.57,20.2,20.2,0,0,0,8.27,4.58,1.22,1.22,0,0,0,1.37-.36c2.46-2.58,5-5.12,7.44-7.68,1.78-1.83,3.68-1.89,5.59-.16l13.41,12.2c1.91,1.73,2,3.59.33,5.56s-3.49,4-5.2,6.09a6.48,6.48,0,0,1-2.62,2.11Z" style="fill:none;stroke:#263238;stroke-linecap:round;stroke-linejoin:round"></path><path d="M413.68,207.16v-6.72a30.42,30.42,0,0,1,31.26,31.22h-6.7C437.05,216.44,428.85,208.33,413.68,207.16Z" style="fill:none;stroke:#263238;stroke-linecap:round;stroke-linejoin:round"></path><path d="M413.73,221.28v-6.91c10.76-.4,17.67,6.31,17.29,17.29h-6.9C424.34,224.6,420.87,221.09,413.73,221.28Z" style="fill:none;stroke:#263238;stroke-linecap:round;stroke-linejoin:round"></path></g><g id="freepik--YL9phh--inject-3"><path d="M79.78,50.37c0-.29.07-.55.13-.8a3.62,3.62,0,0,1,3.51-2.76H94.9A3.61,3.61,0,0,1,98.45,50c0,.1,0,.21,0,.36h6.11a4.58,4.58,0,0,1,4.63,4.68q0,9.38,0,18.76a4.63,4.63,0,0,1-4.68,4.67H73.76a4.63,4.63,0,0,1-4.68-4.64q0-9.41,0-18.82a4.65,4.65,0,0,1,3.81-4.58,5.62,5.62,0,0,1,.92-.07h6Z" style="fill:none;stroke:#000;stroke-miterlimit:10"></path><path d="M98.62,64.46A9.47,9.47,0,1,1,89.19,55,9.45,9.45,0,0,1,98.62,64.46Z" style="fill:none;stroke:#000;stroke-miterlimit:10"></path><path d="M102.65,54.93a2,2,0,0,1,2,2,2,2,0,1,1-2-2Z" style="fill:none;stroke:#000;stroke-miterlimit:10"></path></g></g></svg>