<?xml version="1.0" encoding="utf-8"?>
<!-- Generator: Adobe Illustrator 16.0.0, SVG Export Plug-In . SVG Version: 6.00 Build 0)  -->
<!DOCTYPE svg PUBLIC "-//W3C//DTD SVG 1.1//EN" "http://www.w3.org/Graphics/SVG/1.1/DTD/svg11.dtd">
<svg version="1.1" id="Layer_1" xmlns="http://www.w3.org/2000/svg" xmlns:xlink="http://www.w3.org/1999/xlink" x="0px" y="0px"
	 width="800px" height="151.516px" viewBox="-201.528 -36.605 800 151.516" enable-background="new -201.528 -36.605 800 151.516"
	 xml:space="preserve">
<g id="Background">
</g>
<g id="Guides">
</g>
<g id="Foreground">
	<g>
		<g>
			<g>
				<path fill="#ED1C24" d="M84.552,36.274l0.057,8.333c0,4.907,2.928,8.876,6.524,8.876h52.805c3.598,0,6.524-3.962,6.524-8.868
					v-4.559c0-4.91-2.924-8.85-6.524-8.85H91.133c-12.868,0-23.29-14.168-23.29-31.626v-4.56c0-17.458,10.422-31.626,23.29-31.626
					h52.805c12.868,0,23.29,14.166,23.29,31.626c0,0-0.001,6.261-0.031,7.911h-16.715l-0.02-7.908c0-4.912-2.926-8.877-6.524-8.877
					H91.133c-3.596,0-6.524,3.962-6.524,8.874v4.56c0,4.906,2.928,8.872,6.524,8.872c47.579,0,52.488-0.078,52.818-0.221
					c12.683,0.239,23.274,14.36,23.274,31.821v4.56c0,17.456-10.422,31.626-23.29,31.626H91.131
					c-12.868,0-23.29-14.168-23.29-31.626v-4.56c0-0.821,0.023-2.975,0.068-3.778H84.552L84.552,36.274z"/>
			</g>
		</g>
		<g>
			<g>
				<path fill="#ED1C24" d="M457.371,0.56v-16.423h16.064V0.56h40.172v18.038h-40.172v26.927c0.068,8.335,3.033,10.104,6.22,10.104
					h14.582c4.922-0.006,6.512-2.548,6.546-9.453V33.652h14.814c0,0,0.108,5.932,0.077,11.065
					c-0.032,5.055-0.169,11.022-0.652,13.94c-2.173,13.15-8.25,16.736-19.242,16.939l-19.987-0.257
					c-9.437-0.386-14.123-7.1-16.361-13.722c-1.103-3.259-1.615-6.485-1.85-8.879c-0.25-2.523-0.029-4.111-0.029-4.111
					l-0.169-30.031h-12.418V0.558L457.371,0.56z"/>
			</g>
		</g>
		<g>
			<g>
				<g>
					<path fill="#ED1C24" d="M418.013,16.344h-22.343c-3.701,0-6.654,1.367-6.82,6.539V73.18h-16.064V-2.162h16.064v2.36
						c2.265-1.758,5.451-2.36,8.631-2.36h19.022c12.85,0,23.183,8.864,23.472,31.123v10.57h-14.841v-13.74
						C425.134,20.577,421.948,16.344,418.013,16.344z"/>
				</g>
			</g>
		</g>
		<g>
			<path fill="#ED1C24" d="M307.575,54.086h34.563c3.457,0,6.247-3.706,6.247-8.252V29.698c0-4.549-2.793-8.256-6.247-8.256h-34.563
				c-3.456,0-6.247,3.708-6.247,8.256v16.136C301.328,50.38,304.117,54.086,307.575,54.086z M285.323,45.83V29.694
				c0-16.268,9.966-29.447,22.252-29.447h34.563c12.285,0,22.251,13.18,22.251,29.447V45.83c0,16.268-9.966,29.446-22.251,29.446
				h-34.563C295.291,75.281,285.323,62.099,285.323,45.83z"/>
		</g>
		<g>
			<path fill="#ED1C24" d="M277.241,83.769c0,17.199-10.507,31.142-23.468,31.142h-31.398c-12.96,0-23.466-13.942-23.466-31.142
				v-4.015l16.015,0.265v3.75c0,5.461,3.337,9.887,7.451,9.887h31.398c4.115,0,7.451-4.426,7.451-9.887l0.006-6.47l0.006-3.193
				c-2.219,0.968-4.594,1.489-7.052,1.489h-32.639c-12.505,0-22.641-13.449-22.641-30.045V31.393v-1.107
				c0-16.592,10.132-30.042,22.641-30.042h27.576c2.496,0,8.158,0.659,12.106,3.683v-3.67h16.011V77.3L277.241,83.769z
				 M221.548,21.388c-3.703,0-6.707,3.983-6.707,8.9v15.265c0,4.918,3.004,8.904,6.707,8.904h32.639
				c3.704,0,6.707-3.986,6.707-8.904V30.288c0-4.914-3.002-8.9-6.707-8.9H221.548z"/>
		</g>
		<g>
			<path fill="#ED1C24" d="M175.01-27.471h16.064v21.46H175.01V-27.471z M175.01,1.36h16.064v73.979H175.01V1.36z"/>
		</g>
		<g>
			<path fill="#ED1C24" d="M577.033,28.048c2.207,0,4.312,0.545,6.244,1.536v-3.688c0.168-7.037-1.548-7.656-5.66-7.656h-29.399
				c-3.368,0-4.675,1.402-4.775,6.221l0.003,1.66l-14.054,0.374v-0.576c0-15.55,3.189-24.684,17.202-25.669h29.658
				c12.12,0,22.36,9.528,22.36,25.672V75.6h-15.329v-1.929c-2.57,1.598-5.795,1.918-7.939,1.918h-32.585
				c-9.274,0-16.859-9.655-16.859-21.676v-4.188c0-12.021,7.588-21.675,16.859-21.675L577.033,28.048L577.033,28.048z
				 M539.997,50.014v3.607c0,1.93,1.243,3.65,2.926,3.65h35.646c1.686,0,2.927-1.721,2.927-3.65v-3.607
				c0-1.93-1.241-3.652-2.927-3.652h-35.646C541.238,46.362,539.997,48.085,539.997,50.014z"/>
		</g>
		<g>
			<polygon fill="#ED1C24" points="-51.221,-35.607 -23.496,-35.607 -23.496,5.353 -10.507,5.353 24.461,-35.607 62.175,-35.607 
				13.221,18.901 67.921,75.873 28.706,75.873 -11.255,33.069 -23.496,33.069 -23.496,75.873 -51.221,75.873 			"/>
			<path fill="#ED1C24" d="M-146.381,32.145h35.472l-17.985-41.88L-146.381,32.145z M-146.879-35.607h36.094l49.705,111.48h-30.85
				l-8.615-19.708h-56.199l-8.117,19.708h-30.971L-146.879-35.607z"/>
		</g>
	</g>
</g>
</svg>
