<?xml version="1.0" encoding="utf-8"?>
<!-- Generator: Adobe Illustrator 24.3.0, SVG Export Plug-In . SVG Version: 6.00 Build 0)  -->
<svg version="1.2" baseProfile="tiny" id="Layer_1" xmlns="http://www.w3.org/2000/svg" xmlns:xlink="http://www.w3.org/1999/xlink"
	 x="0px" y="0px" viewBox="0 0 623.62 334.22" overflow="visible" xml:space="preserve">
<g>
	<g>
		<path fill="#006A4D" d="M175.09,247.55c1.65,1.08,4.31,2.22,7.27,2.22c2.76,0,4.48-0.87,4.48-2.56c0-1.24-0.84-1.95-3.2-2.56
			l-3.77-0.94c-4.07-1.01-5.86-3.2-5.86-6.3c0-3.81,2.83-6.87,8.96-6.87c3.3,0,6.46,0.91,8.22,1.82l-1.35,4.31
			c-1.68-0.98-4.55-1.82-7.04-1.82c-2.76,0-3.91,0.84-3.91,2.15c0,1.25,0.84,1.72,2.49,2.19l4.21,1.18c4.14,1.14,6.16,3.2,6.16,6.46
			c0,4.31-3.97,7.24-9.49,7.24c-3.33,0-6.8-1.14-8.28-1.99L175.09,247.55z"/>
		<path fill="#006A4D" d="M221,223.55c1.61,0,2.69,0.61,2.69,2.32c0,1.72-1.08,2.36-2.69,2.36c-1.65,0-2.76-0.64-2.76-2.36
			C218.24,224.15,219.35,223.55,221,223.55 M218.64,230.86h4.71v22.9h-4.71V230.86z"/>
		<path fill="#006A4D" d="M272.32,250.96c-2.12,1.68-6.26,3.13-9.77,3.13c-6.77,0-12.19-4.38-12.19-11.75
			c0-7.44,5.42-11.82,12.19-11.82c3.71,0,6.6,1.24,8.89,3.1l-2.19,3.6c-1.78-1.48-3.91-2.33-6.6-2.33c-4.18,0-7.41,2.69-7.41,7.44
			c0,4.68,3.23,7.37,7.61,7.37c1.82,0,3.5-0.47,4.75-1.21v-4.21h-6.03v-4.07h10.74V250.96z"/>
		<path fill="#006A4D" d="M310.05,230.52c6.77,0,11.82,5.05,11.82,11.82c0,6.7-5.05,11.75-11.82,11.75
			c-6.7,0-11.75-5.05-11.75-11.75C298.3,235.57,303.35,230.52,310.05,230.52 M310.08,249.68c4.21,0,7.14-3.2,7.14-7.34
			c0-4.21-2.93-7.34-7.14-7.34c-4.14,0-7.14,3.13-7.14,7.34C302.94,246.48,305.94,249.68,310.08,249.68"/>
		<path fill="#006A4D" d="M348.89,230.85h10.07c5.62,0,9.13,2.29,9.13,7.44c0,3.63-2.59,6.33-6.03,7.04l7.31,7.64v0.77h-5.28
			l-7.64-8.25h-2.83v8.25h-4.71V230.85z M353.6,234.96v6.84h5.86c2.15,0,3.7-1.28,3.7-3.4c0-2.25-1.55-3.43-3.7-3.43H353.6z"/>
		<polygon fill="#006A4D" points="405.16,235 405.16,253.75 400.45,253.75 400.45,235 392.91,235 392.91,230.86 412.44,230.86 
			412.44,235 		"/>
		<path fill="#006A4D" d="M443.26,230.85h5.52l8.86,22.9h-4.78l-1.75-4.58h-10.4l-1.79,4.58h-4.78L443.26,230.85z M441.91,245.67
			h8.01l-3.91-10.13L441.91,245.67z"/>
	</g>
	<polygon fill="#006A4D" points="159.08,185.68 224.45,185.68 224.45,170.73 175.36,170.73 175.36,150.8 215.58,150.8 
		215.58,135.86 175.36,135.86 175.36,118 224.45,118 224.45,103.05 159.08,103.05 	"/>
	<polygon fill="#006A4D" points="90.55,158.7 44.14,103.05 29.31,103.05 29.31,185.68 46.32,185.68 46.32,130.15 92.74,185.68 
		107.56,185.68 107.56,103.05 90.55,103.05 	"/>
	<g>
		<path fill="#006A4D" d="M295.54,142.39c0-14.38,11.66-26.04,26.03-26.04c14.38,0,26.04,11.66,26.04,26.04
			c0,14.38-11.66,26.03-26.04,26.03C307.2,168.43,295.54,156.77,295.54,142.39"/>
		<path fill="#FFFFFF" d="M320.34,165.76l-2.62,1.64l-1.73-4.19L320.34,165.76z M316.16,154.25l4.2,2.6l-2.48,1.68L316.16,154.25z
			 M316.02,145.22l4.41,2.66l-2.58,1.86L316.02,145.22z M323.01,152.49l4.3-2.67l-1.68,4.39L323.01,152.49z M316.1,158.73l8.07,4.9
			l-2.44,1.58l-4.19-2.35L316.1,158.73z M319.25,159.02l7.98-4.83l-1.28,3.88l-4.16,2.81L319.25,159.02z M316.1,149.91l8.13,4.67
			l-2.68,1.83l-4.06-2.46L316.1,149.91z M319.14,150.19l8.11-4.87l-1.47,4.17l-3.95,2.39L319.14,150.19z M318.89,145.52h5.41
			l-2.57,2.03L318.89,145.52z M323.01,161.19l4.3-2.67l-1.68,4.38L323.01,161.19z M321.58,142.46c0,0-4.35-12.57-5.18-15.09
			c-0.34-1.03-0.48-1.91,0.17-2.77l5.01-6.56l5.01,6.56c0.66,0.86,0.51,1.74,0.17,2.77C325.93,129.88,321.58,142.46,321.58,142.46
			 M346.22,143.89l-23.11,0l10.52-5.42c5.87-3.02,7.82-0.49,9.96,2.17L346.22,143.89z M322.6,142.74l7.26-13.01
			c0.94-1.69,3.35-2.54,5.46-1.27l8.16,4.9l-4.09,0.01c-1.8,0-3.23,0.69-4.54,1.53L322.6,142.74z M296.93,143.89l2.63-3.25
			c2.15-2.66,4.09-5.19,9.96-2.17l10.52,5.42L296.93,143.89z M320.55,142.74l-12.25-7.84c-1.3-0.83-2.73-1.52-4.53-1.53l-4.09-0.01
			l8.16-4.9c2.11-1.27,4.52-0.42,5.46,1.27L320.55,142.74z M318.78,168.27l8.46-5l-1.62,4.86c-1.29,0.2-2.62,0.3-3.97,0.3
			C320.68,168.42,319.72,168.37,318.78,168.27"/>
		<path fill="#006A4D" d="M321.57,82.13c-33.23,0-60.26,27.03-60.26,60.26c0,33.23,27.03,60.26,60.26,60.26
			c33.23,0,60.26-27.03,60.26-60.26C381.83,109.16,354.8,82.13,321.57,82.13 M321.57,186.64c-24.4,0-44.24-19.85-44.24-44.24
			c0-24.4,19.85-44.24,44.24-44.24c24.4,0,44.25,19.85,44.25,44.24C365.82,166.79,345.97,186.64,321.57,186.64"/>
	</g>
	<polygon fill="#006A4D" points="447.05,170.01 422.99,103.05 404.4,103.05 436.35,185.68 457.74,185.68 490.55,103.05 
		471.96,103.05 	"/>
	<path fill="#006A4D" d="M562.35,103.05h-19.93l-32.93,82.63h17.25l6.44-16.53h37.54l6.32,16.53h17.25L562.35,103.05z
		 M537.57,156.52l14.82-36.57l14.09,36.57H537.57z"/>
</g>
</svg>
