<svg xmlns="http://www.w3.org/2000/svg" xmlns:xlink="http://www.w3.org/1999/xlink" width="466" height="100" viewBox="0 0 466 100"><defs><path id="a" d="M.778 0h29.793v30.301H.778z"/><path id="c" d="M.027 41.285c0 22.767 18.44 41.217 41.182 41.217 22.749 0 41.189-18.45 41.189-41.217S63.958.062 41.209.062C18.467.062.027 18.518.027 41.285"/><linearGradient id="d" x1="50%" x2="50%" y1="100%" y2="0%"><stop offset="0%" stop-color="#E20337"/><stop offset="100%" stop-color="#691412"/></linearGradient><path id="f" d="M41.236.038C18.488.038.048 18.482.048 41.23c0 22.753 18.44 41.197 41.188 41.197S82.42 63.983 82.42 41.23C82.419 18.482 63.984.038 41.236.038zM4.914 41.23c0-20.06 16.262-36.32 36.322-36.32 20.055 0 36.317 16.26 36.317 36.32 0 20.065-16.262 36.325-36.317 36.325-20.06 0-36.322-16.26-36.322-36.325z"/><path id="h" d="M.113 37.512c0 20.665 16.83 37.42 37.6 37.42 20.758 0 37.594-16.755 37.594-37.42C75.307 16.853 58.47.104 37.713.104c-20.77 0-37.6 16.75-37.6 37.408m3.621 0c0-18.674 15.208-33.81 33.979-33.81 18.764 0 33.972 15.136 33.972 33.81 0 18.68-15.208 33.816-33.972 33.816-18.77 0-33.979-15.135-33.979-33.816"/><linearGradient id="j" x1="50%" x2="50%" y1="0%" y2="97.93%"><stop offset="0%" stop-color="#5F6163"/><stop offset="35.79%" stop-color="#A5A8AB"/><stop offset="51.41%" stop-color="#E7E8E8"/><stop offset="85.42%" stop-color="#A5A8AB"/><stop offset="100%" stop-color="#474749"/></linearGradient><linearGradient id="k" x1="50.4%" x2="50.4%" y1="98.68%" y2="1.32%"><stop offset="0%" stop-color="#D1D3D5"/><stop offset="13.92%" stop-color="#B0B3B6"/><stop offset="45.4%" stop-color="#474749"/><stop offset="56.35%" stop-color="#E7E8E8"/><stop offset="100%" stop-color="#C7C8CA"/></linearGradient></defs><g fill="none" fill-rule="evenodd"><path fill="#010202" d="M193.966 63.555l-9.648-24.654h-6.858v29.341h4.336v-25.66l10.058 25.66h4.224l10.057-25.66v25.66h4.337v-29.34h-6.86zm-62.743-11.719l-2.584-1.015c-3.311-1.282-5.751-2.605-5.751-5.015 0-3.046 3.362-4.482 6.992-4.482 2.809 0 5.474.565 7.822 1.395l.338-3.2c-2.747-.779-5.239-1.138-8.242-1.138-5.7 0-12.006 2.318-12.006 7.917 0 3.96 3.476 6.061 7.043 7.456l2.656 1.046c3.69 1.385 6.643 2.985 6.643 5.928 0 3.518-3.711 4.964-7.35 4.964-3.292 0-6.46-.862-9.105-2.062l-.266 3.415c2.594.893 6.797 1.58 9.657 1.58 6.777 0 12.262-2.872 12.262-8.543 0-4.39-3.773-6.625-8.11-8.246m95.201 1.669h-4.675v-11.63h4.675c4.009 0 6.93 1.641 6.93 5.497 0 3.867-2.634 6.133-6.93 6.133m-.307-14.604h-9.145v29.341h4.777V56.53h4.03c6.807 0 12.61-2.379 12.61-9.199 0-6.543-5.844-8.43-12.272-8.43m30.186 26.606c-7.023 0-9.811-6.625-9.811-11.968s2.89-11.989 9.81-11.989c7.075 0 9.812 6.523 9.812 11.989 0 5.446-2.788 11.968-9.811 11.968m0-27.126c-9.873 0-14.896 6.943-14.896 15.158 0 8.204 5.115 15.147 14.896 15.147 9.78 0 14.886-6.615 14.886-15.147 0-8.553-4.818-15.158-14.886-15.158m-98.789 27.126c-7.022 0-9.81-6.625-9.81-11.968s2.89-11.989 9.81-11.989c7.064 0 9.812 6.523 9.812 11.989 0 5.446-2.789 11.968-9.812 11.968m0-27.126c-9.872 0-14.886 6.943-14.886 15.158 0 8.204 5.106 15.147 14.886 15.147 9.781 0 14.887-6.615 14.887-15.147 0-8.553-4.819-15.158-14.887-15.158m280.111 0h-24.913v3.23H422.8v26.101h4.747v-26.1h10.078zM296.82 51.316l-2.573-1.015c-3.332-1.282-5.772-2.605-5.772-5.015 0-3.046 3.373-4.482 7.002-4.482 2.809 0 5.474.565 7.822 1.395l.339-3.2c-2.748-.779-5.24-1.138-8.253-1.138-5.69 0-12.006 2.318-12.006 7.917 0 3.96 3.486 6.061 7.044 7.456l2.665 1.046c3.69 1.385 6.643 2.985 6.643 5.928 0 3.518-3.71 4.964-7.36 4.964-3.281 0-6.46-.862-9.094-2.062L283 66.536c2.594.882 6.797 1.579 9.658 1.579 6.786 0 12.271-2.882 12.271-8.543 0-4.4-3.783-6.635-8.11-8.256"/><g transform="translate(352.271 37.952)"><mask id="b" fill="#fff"><use xlink:href="#a"/></mask><path fill="#010202" d="M15.674 27.126c-7.022 0-9.81-6.625-9.81-11.968s2.89-11.979 9.81-11.979c7.064 0 9.812 6.523 9.812 11.979 0 5.445-2.779 11.968-9.812 11.968m0-27.126C5.791 0 .778 6.943.778 15.158c0 8.204 5.116 15.147 14.896 15.147 9.781 0 14.897-6.604 14.897-15.147S25.742 0 15.674 0" mask="url(#b)"/></g><path fill="#010202" d="M336.853 54.67h6.582v9.61c-1.795.481-3.2.615-5.178.615-7.802 0-12.23-5.087-12.23-11.886 0-6.8 5.259-11.938 12.907-11.938 2.85 0 5.905.441 8.427 1.63l.287-3.527c-2.758-1.005-6.1-1.313-9.052-1.313-9.781 0-17.644 6.184-17.644 15.148 0 8.953 7.289 15.147 17.11 15.147 3.61 0 6.531-.554 9.873-1.702V51.49h-11.082v3.179zm-26.283 13h4.501V45.66h-4.5zm0-25.914h4.501v-3.774h-4.5zm86.964 9.68h-4.48v-10.07h4.48c4.265 0 7.126 1.271 7.126 4.81 0 3.548-2.82 5.26-7.126 5.26m5.209 1.918c4.008-1.18 6.817-3.979 6.817-7.517 0-5.907-5.218-7.456-11.656-7.456h-9.627v29.341h4.777v-13.26h3.26c3.455.04 4.727.872 5.721 3.282a6588.95 6588.95 0 0 1 4.203 9.978h5.393s-3.527-8.122-4.675-10.501c-1.046-2.164-2.194-3.303-4.213-3.867m40.445 3.344l6.152-15.384 6.14 15.384h-12.292zm9.617-18.317h-6.94l-12.098 29.341h5.003l3.157-7.897h14.804l3.158 7.897h5.024l-12.108-29.34z"/><g transform="translate(0 17.439)"><mask id="e" fill="#fff"><use xlink:href="#c"/></mask><path fill="url(#d)" d="M.027 41.285c0 22.767 18.44 41.217 41.182 41.217 22.749 0 41.189-18.45 41.189-41.217S63.958.062 41.209.062C18.467.062.027 18.518.027 41.285" mask="url(#e)"/></g><g transform="translate(16.618 .817)"><mask id="g" fill="#fff"><use xlink:href="#f"/></mask><path d="M41.236.038C18.488.038.048 18.482.048 41.23c0 22.753 18.44 41.197 41.188 41.197S82.42 63.983 82.42 41.23C82.419 18.482 63.984.038 41.236.038zM4.914 41.23c0-20.06 16.262-36.32 36.322-36.32 20.055 0 36.317 16.26 36.317 36.32 0 20.065-16.262 36.325-36.317 36.325-20.06 0-36.322-16.26-36.322-36.325z" mask="url(#g)"/></g><g transform="translate(20.295 4.087)"><mask id="i" fill="#fff"><use xlink:href="#h"/></mask><path d="M.113 37.512c0 20.665 16.83 37.42 37.6 37.42 20.758 0 37.594-16.755 37.594-37.42C75.307 16.853 58.47.104 37.713.104c-20.77 0-37.6 16.75-37.6 37.408m3.621 0c0-18.674 15.208-33.81 33.979-33.81 18.764 0 33.972 15.136 33.972 33.81 0 18.68-15.208 33.816-33.972 33.816-18.77 0-33.979-15.135-33.979-33.816" mask="url(#i)"/></g><path fill="url(#j)" d="M58.57 78.883c-20.612 0-37.321-16.713-37.321-37.33 0-20.616 16.71-37.33 37.321-37.33 20.612 0 37.322 16.714 37.322 37.33 0 20.617-16.71 37.33-37.322 37.33zm.068-3.134c18.845 0 34.12-15.28 34.12-34.128S77.484 7.493 58.639 7.493c-18.844 0-34.12 15.28-34.12 34.128 0 18.849 15.276 34.128 34.12 34.128z"/><path fill="url(#k)" d="M58.57 83.106c-22.944 0-41.544-18.604-41.544-41.553C17.026 18.604 35.626 0 58.57 0c22.944 0 41.544 18.604 41.544 41.553 0 22.95-18.6 41.553-41.544 41.553zm0-4.496c20.462 0 37.05-16.59 37.05-37.057 0-20.466-16.588-37.057-37.05-37.057-20.461 0-37.049 16.591-37.049 37.057S38.11 78.61 58.571 78.61z"/></g></svg>